{"glyphs":{"0":{"ha":1010,"x_min":67,"x_max":943,"o":"m 943 736 l 943 263 q 925 142 943 197 q 859 49 907 88 q 725 -12 811 10 q 506 -35 639 -35 q 286 -12 372 -35 q 151 49 200 10 q 85 142 103 88 q 67 263 67 197 l 67 736 q 85 856 67 801 q 151 951 103 911 q 286 1013 200 990 q 506 1035 372 1035 q 725 1013 639 1035 q 859 951 811 990 q 925 856 907 911 q 943 736 943 801 m 929 263 l 929 736 q 911 852 929 800 q 846 942 893 904 q 716 1000 799 979 q 506 1021 633 1021 q 295 1000 378 1021 q 165 942 213 979 q 99 852 118 904 q 81 736 81 800 l 81 263 q 99 147 81 199 q 165 58 118 94 q 295 0 213 21 q 506 -21 378 -21 q 716 0 633 -21 q 846 58 799 21 q 911 147 893 94 q 929 263 929 199 m 231 294 l 231 704 q 243 781 231 746 q 286 840 256 815 q 370 878 317 864 q 504 892 424 892 q 723 839 665 892 q 781 704 781 786 l 781 294 q 723 159 781 211 q 504 107 665 107 q 370 121 424 107 q 286 159 317 135 q 243 218 256 183 q 231 294 231 253 m 504 878 q 300 831 356 878 q 244 704 244 783 l 244 294 q 300 168 244 215 q 504 121 356 121 q 710 168 653 121 q 767 294 767 215 l 767 704 q 710 830 767 782 q 504 878 653 878 m 394 313 l 394 686 q 415 731 394 713 q 506 750 435 750 q 597 731 576 750 q 617 686 617 713 l 617 313 q 597 266 617 285 q 506 247 576 247 q 415 266 435 247 q 394 313 394 285 m 408 686 l 408 313 q 429 274 408 288 q 506 261 450 261 q 582 274 561 261 q 603 313 603 288 l 603 686 q 582 723 603 710 q 506 736 561 736 q 429 723 450 736 q 408 686 408 710 z "},"1":{"ha":835,"x_min":53,"x_max":794,"o":"m 117 -14 q 68 1 83 -14 q 53 50 53 17 l 53 218 q 68 267 53 251 q 117 282 83 282 l 258 282 l 258 718 l 144 718 q 96 733 111 718 q 81 782 81 749 l 81 950 q 96 999 81 983 q 144 1014 111 1014 l 547 1014 q 596 999 581 1014 q 611 950 611 983 l 611 282 l 731 282 q 779 267 764 282 q 794 218 794 251 l 794 50 q 779 1 794 17 q 731 -14 764 -14 l 117 -14 m 731 0 q 769 12 757 0 q 781 50 781 24 l 781 218 q 769 256 781 244 q 731 268 757 268 l 597 268 l 597 950 q 585 988 597 976 q 547 1000 574 1000 l 144 1000 q 106 988 118 1000 q 94 950 94 976 l 94 782 q 106 744 94 756 q 144 732 118 732 l 272 732 l 272 268 l 117 268 q 78 256 90 268 q 67 218 67 244 l 67 50 q 78 12 67 24 q 117 0 90 0 l 731 0 m 192 118 l 192 132 l 428 132 l 428 861 l 219 861 l 219 875 l 442 875 l 442 132 l 656 132 l 656 118 l 192 118 z "},"2":{"ha":888,"x_min":42,"x_max":831,"o":"m 106 -14 q 57 1 72 -14 q 42 50 42 17 l 42 289 q 58 427 42 372 q 106 517 75 482 q 178 572 136 551 q 269 607 219 592 l 456 665 q 478 677 472 669 q 483 701 483 685 q 478 719 483 715 q 460 724 472 724 l 158 724 q 110 739 125 724 q 94 788 94 754 l 94 950 q 110 999 94 983 q 158 1014 125 1014 l 568 1014 q 760 951 693 1014 q 826 769 826 888 l 826 639 q 766 471 826 529 q 600 379 706 413 l 411 319 q 391 312 397 315 q 385 292 385 308 l 385 276 l 767 276 q 815 261 800 276 q 831 213 831 246 l 831 50 q 815 1 831 17 q 767 -14 800 -14 l 106 -14 m 767 0 q 805 12 793 0 q 817 50 817 24 l 817 213 q 805 251 817 239 q 767 263 793 263 l 371 263 l 371 292 q 378 321 371 314 q 407 333 386 328 l 596 393 q 754 479 696 424 q 813 639 813 535 l 813 769 q 749 941 813 882 q 568 1000 686 1000 l 158 1000 q 120 988 132 1000 q 108 950 108 976 l 108 788 q 120 749 108 761 q 158 738 132 738 l 460 738 q 489 730 481 738 q 497 701 497 722 q 490 668 497 679 q 460 651 482 657 l 274 593 q 186 560 226 579 q 117 507 146 540 q 72 422 88 474 q 56 289 56 369 l 56 50 q 67 12 56 24 q 106 0 79 0 l 767 0 m 283 456 l 607 563 q 636 585 625 569 q 647 628 647 601 l 647 754 q 611 840 647 818 q 513 861 575 861 l 233 861 l 233 875 l 513 875 q 622 849 583 875 q 661 754 661 824 l 661 628 q 648 578 661 596 q 613 550 635 560 l 289 443 q 235 409 250 429 q 219 342 219 389 l 219 139 l 692 139 l 692 125 l 207 125 l 207 342 q 224 417 207 393 q 283 456 240 442 z "},"3":{"ha":885,"x_min":54,"x_max":840,"o":"m 118 -14 q 69 1 85 -14 q 54 50 54 17 l 54 213 q 69 261 54 246 q 118 276 85 276 l 467 276 q 497 284 489 276 q 506 304 506 292 l 506 342 q 497 361 506 354 q 467 368 489 368 l 231 368 q 182 383 197 368 q 167 432 167 399 l 167 581 q 182 629 167 614 q 231 644 197 644 l 376 644 q 407 652 399 644 q 415 672 415 660 l 415 693 q 407 713 415 706 q 376 721 399 721 l 118 721 q 69 736 85 721 q 54 785 54 751 l 54 950 q 69 999 54 983 q 118 1014 85 1014 l 506 1014 q 688 956 629 1014 q 747 801 747 897 l 747 721 q 735 638 747 674 q 692 578 722 601 q 808 508 775 560 q 840 369 840 457 l 840 231 q 769 52 840 118 q 557 -14 697 -14 l 118 -14 m 118 263 q 80 251 92 263 q 68 213 68 239 l 68 50 q 80 12 68 24 q 118 0 92 0 l 557 0 q 758 62 690 0 q 826 231 826 124 l 826 369 q 788 510 826 461 q 651 571 750 560 q 715 629 697 590 q 733 721 733 668 l 733 801 q 677 947 733 893 q 506 1000 621 1000 l 118 1000 q 80 988 92 1000 q 68 950 68 976 l 68 785 q 80 747 68 758 q 118 735 92 735 l 376 735 q 419 722 410 735 q 429 693 429 710 l 429 672 q 419 643 429 656 q 376 631 410 631 l 231 631 q 192 619 204 631 q 181 581 181 607 l 181 432 q 192 394 181 406 q 231 382 204 382 l 467 382 q 510 370 500 382 q 519 342 519 358 l 519 304 q 510 275 519 288 q 467 263 500 263 l 118 263 m 306 499 l 306 513 l 421 513 q 504 523 474 513 q 551 551 535 533 q 571 591 567 568 q 575 639 575 614 l 575 733 q 542 824 575 788 q 407 861 508 861 l 193 861 l 193 875 l 407 875 q 500 863 464 875 q 556 831 536 851 q 582 785 575 811 q 589 728 589 758 l 589 639 q 574 562 589 600 q 497 510 560 524 l 519 510 q 643 471 606 510 q 681 360 681 432 l 681 264 q 674 208 681 233 q 648 164 667 182 q 593 135 629 146 q 499 125 557 125 l 193 125 l 193 139 l 499 139 q 635 173 603 139 q 667 264 667 207 l 667 360 q 631 464 667 429 q 517 499 596 499 l 306 499 z "},"4":{"ha":985,"x_min":74,"x_max":903,"o":"m 625 -14 q 576 1 592 -14 q 561 50 561 17 l 561 218 l 340 218 q 135 278 197 218 q 74 463 74 338 l 74 950 q 89 999 74 983 q 138 1014 104 1014 l 353 1014 q 401 999 386 1014 q 417 950 417 983 l 417 569 q 424 546 417 556 q 446 536 432 536 l 561 536 l 561 950 q 576 999 561 983 q 625 1014 592 1014 l 839 1014 q 888 999 872 1014 q 903 950 903 983 l 903 50 q 888 1 903 17 q 839 -14 872 -14 l 625 -14 m 575 232 l 575 50 q 587 12 575 24 q 625 0 599 0 l 839 0 q 877 12 865 0 q 889 50 889 24 l 889 950 q 877 988 889 976 q 839 1000 865 1000 l 625 1000 q 587 988 599 1000 q 575 950 575 976 l 575 522 l 446 522 q 415 535 426 522 q 403 569 403 547 l 403 950 q 391 988 403 976 q 353 1000 379 1000 l 138 1000 q 99 988 111 1000 q 88 950 88 976 l 88 463 q 147 288 88 344 q 340 232 206 232 l 575 232 m 725 125 l 725 371 l 393 371 q 276 408 314 371 q 239 517 239 444 l 239 875 l 253 875 l 253 517 q 288 417 253 450 q 393 385 322 385 l 725 385 l 725 875 l 739 875 l 739 125 l 725 125 z "},"5":{"ha":899,"x_min":63,"x_max":853,"o":"m 126 -14 q 78 1 93 -14 q 63 50 63 17 l 63 213 q 78 261 63 246 q 126 276 93 276 l 485 276 q 501 281 494 276 q 508 294 508 285 l 508 349 q 501 363 508 358 q 485 367 494 367 l 140 367 q 92 382 107 367 q 76 431 76 397 l 76 950 q 92 999 76 983 q 140 1014 107 1014 l 739 1014 q 788 999 772 1014 q 803 950 803 983 l 803 785 q 788 736 803 751 q 739 721 772 721 l 419 721 l 419 658 l 596 658 q 784 599 715 658 q 853 424 853 540 l 853 231 q 776 53 853 119 q 568 -14 700 -14 l 126 -14 m 568 0 q 766 63 693 0 q 839 231 839 125 l 839 424 q 774 589 839 533 q 596 644 708 644 l 406 644 l 406 735 l 739 735 q 777 747 765 735 q 789 785 789 758 l 789 950 q 777 988 789 976 q 739 1000 765 1000 l 140 1000 q 102 988 114 1000 q 90 950 90 976 l 90 431 q 102 392 90 404 q 140 381 114 381 l 485 381 q 512 373 501 381 q 522 349 522 365 l 522 294 q 512 270 522 278 q 485 263 501 263 l 126 263 q 88 251 100 263 q 76 213 76 239 l 76 50 q 88 12 76 24 q 126 0 100 0 l 568 0 m 201 125 l 201 139 l 529 139 q 640 168 607 139 q 674 261 674 197 l 674 383 q 640 477 674 449 q 542 506 606 506 l 242 506 l 242 875 l 664 875 l 664 861 l 256 861 l 256 519 l 542 519 q 651 487 614 519 q 688 383 688 454 l 688 261 q 651 158 688 190 q 529 125 615 125 l 201 125 z "},"6":{"ha":963,"x_min":67,"x_max":911,"o":"m 497 -35 q 279 -13 364 -35 q 147 47 194 8 q 83 140 100 86 q 67 260 67 194 l 67 715 q 83 836 67 781 q 141 931 100 892 q 251 992 182 969 q 422 1014 319 1014 l 742 1014 q 791 999 776 1014 q 806 950 806 983 l 806 786 q 790 738 806 753 q 742 722 775 722 l 482 722 q 424 709 439 722 q 408 653 408 696 l 408 642 q 481 653 440 649 q 571 657 522 657 q 735 640 669 657 q 840 590 801 622 q 895 507 879 557 q 911 393 911 457 l 911 260 q 893 140 911 194 q 829 47 875 86 q 703 -13 783 8 q 497 -35 622 -35 m 497 -21 q 694 -1 617 -21 q 817 56 772 19 q 880 144 863 93 q 897 260 897 196 l 897 393 q 828 580 897 517 q 571 643 758 643 q 472 638 515 643 q 394 622 428 632 l 394 653 q 413 720 394 704 q 482 736 431 736 l 742 736 q 780 748 768 736 q 792 786 792 760 l 792 950 q 780 988 792 976 q 742 1000 768 1000 l 422 1000 q 153 921 226 1000 q 81 715 81 842 l 81 260 q 98 144 81 196 q 161 56 115 93 q 288 -1 207 19 q 497 -21 369 -21 m 501 99 q 397 103 446 99 q 313 125 349 108 q 256 174 276 142 q 236 260 236 207 l 236 715 q 285 841 236 807 q 422 875 335 875 l 667 875 l 667 861 l 422 861 q 297 831 343 861 q 250 715 250 801 l 250 454 q 344 521 275 510 q 506 532 414 532 q 601 528 557 532 q 677 510 644 525 q 728 465 710 496 q 747 382 747 435 l 747 260 q 728 175 747 207 q 676 126 710 143 q 598 104 643 110 q 501 99 553 99 m 501 113 q 591 117 549 113 q 665 136 633 121 q 715 181 697 151 q 733 260 733 211 l 733 382 q 715 460 733 432 q 665 501 696 488 q 593 516 635 514 q 506 518 551 518 q 414 517 460 518 q 332 503 368 515 q 273 463 296 490 q 250 386 250 436 l 250 260 q 270 180 250 210 q 324 135 290 150 q 404 117 358 121 q 501 113 450 113 m 394 364 q 411 399 394 385 q 488 414 428 414 q 567 399 550 414 q 583 364 583 385 l 583 282 q 567 245 583 260 q 488 231 550 231 q 411 245 428 231 q 394 282 394 260 l 394 364 m 488 400 q 426 391 444 400 q 408 364 408 382 l 408 282 q 426 254 408 264 q 488 244 444 244 q 551 254 533 244 q 569 282 569 264 l 569 364 q 551 391 569 382 q 488 400 532 400 z "},"7":{"ha":871,"x_min":39,"x_max":813,"o":"m 204 -14 q 156 1 171 -14 q 140 50 140 17 l 140 301 q 154 418 140 371 q 195 497 168 465 q 265 551 222 529 q 367 590 308 572 l 469 618 l 469 718 l 103 718 q 54 733 69 718 q 39 782 39 749 l 39 950 q 54 999 39 983 q 103 1014 69 1014 l 749 1014 q 797 999 782 1014 q 813 950 813 983 l 813 599 q 799 482 813 529 q 758 403 785 435 q 688 349 731 371 q 586 310 644 328 l 493 282 l 493 50 q 478 1 493 17 q 429 -14 463 -14 l 204 -14 m 749 1000 l 103 1000 q 65 988 76 1000 q 53 950 53 976 l 53 782 q 65 744 53 756 q 103 732 76 732 l 483 732 l 483 607 l 371 576 q 274 540 315 560 q 207 489 233 519 q 167 413 181 458 q 154 301 154 367 l 154 50 q 166 12 154 24 q 204 0 178 0 l 429 0 q 467 12 456 0 q 479 50 479 24 l 479 293 l 582 324 q 678 360 638 340 q 746 411 719 381 q 785 488 772 442 q 799 599 799 533 l 799 950 q 787 988 799 976 q 749 1000 775 1000 m 310 125 l 310 333 q 323 383 310 365 q 358 411 336 401 l 594 506 q 625 528 615 514 q 635 569 635 543 l 635 861 l 178 861 l 178 875 l 649 875 l 649 569 q 637 519 649 538 q 600 492 625 501 l 364 397 q 335 375 346 390 q 324 333 324 360 l 324 125 l 310 125 z "},"8":{"ha":988,"x_min":51,"x_max":936,"o":"m 494 -35 q 276 -15 363 -35 q 140 38 190 4 q 71 118 90 71 q 51 221 51 165 l 51 356 q 87 501 51 447 q 176 575 122 554 q 131 635 144 597 q 117 721 117 674 l 117 801 q 134 897 117 854 q 194 971 151 940 q 311 1018 238 1001 q 496 1035 385 1035 q 680 1018 607 1035 q 795 971 753 1001 q 854 897 838 940 q 871 801 871 854 l 871 721 q 857 635 871 674 q 811 575 843 597 q 901 501 865 554 q 936 356 936 447 l 936 221 q 917 118 936 165 q 848 38 897 71 q 713 -15 799 4 q 494 -35 626 -35 m 922 356 q 880 506 922 453 q 775 571 838 558 q 839 629 821 590 q 857 721 857 668 l 857 801 q 840 893 857 853 q 781 962 822 933 q 670 1006 740 990 q 496 1021 600 1021 q 321 1006 392 1021 q 208 962 250 990 q 149 893 167 933 q 131 801 131 853 l 131 721 q 149 629 131 668 q 213 571 167 590 q 108 506 150 558 q 65 356 65 453 l 65 221 q 85 122 65 167 q 154 46 106 78 q 286 -3 203 14 q 494 -21 369 -21 q 702 -3 619 -21 q 833 46 785 14 q 902 122 882 78 q 922 221 922 167 l 922 356 m 494 93 q 356 104 411 93 q 269 135 301 115 q 225 181 238 154 q 213 240 213 208 l 213 368 q 251 460 213 421 q 389 513 289 499 q 292 553 322 524 q 263 632 263 583 l 263 775 q 318 872 263 839 q 494 906 374 906 q 670 871 615 906 q 725 764 725 836 l 725 632 q 696 553 725 583 q 600 513 667 524 q 738 460 700 499 q 775 369 775 422 l 775 240 q 763 181 775 208 q 719 135 750 154 q 633 104 688 115 q 494 93 578 93 m 276 775 l 276 632 q 331 546 276 572 q 494 519 385 519 q 658 546 604 519 q 711 632 711 572 l 711 764 q 657 862 711 832 q 494 892 603 892 q 331 863 386 892 q 276 775 276 835 m 407 667 l 407 728 q 422 763 407 749 q 494 778 436 778 q 567 763 554 778 q 581 728 581 749 l 581 667 q 567 630 581 644 q 494 615 554 615 q 422 630 436 615 q 407 667 407 644 m 421 728 l 421 667 q 436 639 421 649 q 494 629 451 629 q 552 639 538 629 q 567 667 567 649 l 567 728 q 552 755 567 746 q 494 764 538 764 q 437 755 453 764 q 421 728 421 746 m 226 368 l 226 240 q 285 144 226 181 q 494 107 344 107 q 703 144 644 107 q 761 240 761 181 l 761 369 q 702 467 761 429 q 494 506 643 506 q 286 467 346 506 q 226 368 226 428 m 372 274 l 372 347 q 396 383 372 368 q 494 397 419 397 q 592 383 569 397 q 615 347 615 368 l 615 274 q 592 237 615 251 q 494 222 569 222 q 396 237 419 222 q 372 274 372 251 m 386 347 l 386 274 q 413 245 386 254 q 494 236 439 236 q 576 245 550 236 q 601 274 601 254 l 601 347 q 576 374 601 365 q 494 383 550 383 q 413 374 440 383 q 386 347 386 365 z "},"9":{"ha":963,"x_min":51,"x_max":896,"o":"m 221 -14 q 172 1 186 -14 q 157 50 157 17 l 157 214 q 172 263 157 247 q 221 278 188 278 l 481 278 q 539 291 524 278 q 554 347 554 304 l 554 358 q 481 347 522 351 q 392 343 440 343 q 227 360 293 343 q 122 410 161 378 q 67 493 83 443 q 51 607 51 543 l 51 740 q 69 860 51 806 q 133 953 88 914 q 260 1013 179 992 q 465 1035 340 1035 q 683 1013 599 1035 q 815 953 768 992 q 879 860 863 914 q 896 740 896 806 l 896 285 q 879 164 896 219 q 822 69 863 108 q 712 8 781 31 q 540 -14 643 -14 l 221 -14 m 540 0 q 809 79 736 0 q 882 285 882 158 l 882 740 q 865 856 882 804 q 801 944 847 907 q 674 1001 756 981 q 465 1021 593 1021 q 268 1001 346 1021 q 145 944 190 981 q 83 856 100 907 q 65 740 65 804 l 65 607 q 135 420 65 483 q 392 357 204 357 q 491 363 447 357 q 568 378 535 368 l 568 347 q 550 280 568 296 q 481 264 532 264 l 221 264 q 183 252 194 264 q 171 214 171 240 l 171 50 q 183 12 171 24 q 221 0 194 0 l 540 0 m 296 125 l 296 139 l 540 139 q 666 169 619 139 q 713 285 713 199 l 713 546 q 618 479 688 490 q 457 468 549 468 q 362 472 406 468 q 285 490 318 475 q 234 535 253 504 q 215 618 215 565 l 215 740 q 234 825 215 793 q 286 874 253 857 q 365 896 319 890 q 461 901 410 901 q 565 897 517 901 q 650 875 614 892 q 706 826 686 858 q 726 740 726 793 l 726 285 q 677 159 726 193 q 540 125 628 125 l 296 125 m 457 482 q 549 483 503 482 q 631 497 594 485 q 690 537 667 510 q 713 614 713 564 l 713 740 q 692 820 713 790 q 638 865 672 850 q 558 883 604 879 q 461 888 513 888 q 372 883 414 888 q 297 864 329 879 q 247 819 265 849 q 229 740 229 789 l 229 618 q 248 540 229 568 q 297 499 267 513 q 369 484 328 486 q 457 482 411 482 m 568 636 q 551 601 568 615 q 475 586 535 586 q 396 601 413 586 q 379 636 379 615 l 379 718 q 396 755 379 740 q 475 769 413 769 q 551 755 535 769 q 568 718 568 740 l 568 636 m 475 600 q 536 609 518 600 q 554 636 554 618 l 554 718 q 536 746 554 736 q 475 756 518 756 q 411 746 429 756 q 393 718 393 736 l 393 636 q 412 609 393 618 q 475 600 431 600 z "}," ":{"ha":313,"x_min":0,"x_max":0,"o":""},"A":{"ha":1014,"x_min":61,"x_max":953,"o":"m 236 421 l 236 378 l 778 378 l 778 421 q 772 490 778 458 q 756 550 765 522 l 660 776 q 628 837 644 813 q 572 861 611 861 l 436 861 q 378 837 394 861 q 347 778 361 813 l 258 550 q 242 490 249 522 q 236 421 236 458 m 458 708 q 470 726 464 721 q 485 732 476 732 l 519 732 q 534 726 528 732 q 546 708 540 721 l 611 497 l 393 497 l 458 708 m 532 704 l 533 703 q 528 713 531 708 q 519 718 525 718 l 485 718 q 476 713 479 718 q 471 703 474 708 l 472 704 l 413 511 l 592 511 l 532 704 m 778 125 l 778 364 l 236 364 l 236 125 l 222 125 l 222 421 q 228 492 222 460 q 246 556 235 525 l 335 783 q 369 849 350 822 q 436 875 389 875 l 572 875 q 637 849 618 875 q 672 782 656 822 l 768 556 q 785 492 779 525 q 792 421 792 460 l 792 125 l 778 125 m 379 50 l 379 244 l 625 244 l 625 50 q 638 12 625 24 q 679 0 651 0 l 889 0 q 927 12 915 0 q 939 50 939 24 l 939 417 q 926 513 939 458 q 885 639 913 567 l 764 954 q 738 989 756 978 q 694 1000 721 1000 l 321 1000 q 276 989 293 1000 q 250 954 258 978 l 129 639 q 88 513 101 567 q 75 417 75 458 l 75 50 q 87 12 75 24 q 125 0 99 0 l 329 0 q 367 12 356 0 q 379 50 379 24 m 125 -14 q 76 1 92 -14 q 61 50 61 17 l 61 417 q 74 515 61 460 q 117 644 88 569 l 238 958 q 267 1001 247 988 q 321 1014 288 1014 l 694 1014 q 747 1001 726 1014 q 776 960 767 988 l 897 644 q 940 515 926 569 q 953 417 953 460 l 953 50 q 938 1 953 17 q 889 -14 922 -14 l 679 -14 q 628 2 644 -14 q 611 50 611 18 l 611 231 l 393 231 l 393 50 q 378 1 393 17 q 329 -14 363 -14 l 125 -14 z "},"À":{"ha":1014,"x_min":61,"x_max":953,"o":"m 236 421 l 236 378 l 778 378 l 778 421 q 772 490 778 458 q 756 550 765 522 l 660 776 q 628 837 644 813 q 572 861 611 861 l 436 861 q 378 837 394 861 q 347 778 361 813 l 258 550 q 242 490 249 522 q 236 421 236 458 m 458 708 q 470 726 464 721 q 485 732 476 732 l 519 732 q 534 726 528 732 q 546 708 540 721 l 611 497 l 393 497 l 458 708 m 532 704 l 533 703 q 528 713 531 708 q 519 718 525 718 l 485 718 q 476 713 479 718 q 471 703 474 708 l 472 704 l 413 511 l 592 511 l 532 704 m 778 125 l 778 364 l 236 364 l 236 125 l 222 125 l 222 421 q 228 492 222 460 q 246 556 235 525 l 335 783 q 369 849 350 822 q 436 875 389 875 l 572 875 q 637 849 618 875 q 672 782 656 822 l 768 556 q 785 492 779 525 q 792 421 792 460 l 792 125 l 778 125 m 379 50 l 379 244 l 625 244 l 625 50 q 638 12 625 24 q 679 0 651 0 l 889 0 q 927 12 915 0 q 939 50 939 24 l 939 417 q 926 513 939 458 q 885 639 913 567 l 764 954 q 738 989 756 978 q 694 1000 721 1000 l 321 1000 q 276 989 293 1000 q 250 954 258 978 l 129 639 q 88 513 101 567 q 75 417 75 458 l 75 50 q 87 12 75 24 q 125 0 99 0 l 329 0 q 367 12 356 0 q 379 50 379 24 m 125 -14 q 76 1 92 -14 q 61 50 61 17 l 61 417 q 74 515 61 460 q 117 644 88 569 l 238 958 q 267 1001 247 988 q 321 1014 288 1014 l 694 1014 q 747 1001 726 1014 q 776 960 767 988 l 897 644 q 940 515 926 569 q 953 417 953 460 l 953 50 q 938 1 953 17 q 889 -14 922 -14 l 679 -14 q 628 2 644 -14 q 611 50 611 18 l 611 231 l 393 231 l 393 50 q 378 1 393 17 q 329 -14 363 -14 l 125 -14 m 811 1092 q 795 1044 811 1060 q 749 1032 779 1028 l 264 1092 q 216 1110 231 1096 q 201 1156 201 1124 l 201 1289 q 217 1337 201 1321 q 264 1349 233 1353 l 749 1289 q 797 1271 782 1285 q 811 1225 811 1257 l 811 1092 m 750 1046 q 785 1056 774 1043 q 797 1092 797 1068 l 797 1225 q 785 1262 797 1251 q 747 1275 774 1272 l 263 1335 q 227 1325 239 1338 q 215 1289 215 1313 l 215 1156 q 227 1119 215 1129 q 265 1106 239 1108 l 750 1046 m 340 1204 l 340 1218 l 672 1176 l 672 1163 l 340 1204 z "},"Á":{"ha":1014,"x_min":61,"x_max":953,"o":"m 236 421 l 236 378 l 778 378 l 778 421 q 772 490 778 458 q 756 550 765 522 l 660 776 q 628 837 644 813 q 572 861 611 861 l 436 861 q 378 837 394 861 q 347 778 361 813 l 258 550 q 242 490 249 522 q 236 421 236 458 m 458 708 q 470 726 464 721 q 485 732 476 732 l 519 732 q 534 726 528 732 q 546 708 540 721 l 611 497 l 393 497 l 458 708 m 532 704 l 533 703 q 528 713 531 708 q 519 718 525 718 l 485 718 q 476 713 479 718 q 471 703 474 708 l 472 704 l 413 511 l 592 511 l 532 704 m 778 125 l 778 364 l 236 364 l 236 125 l 222 125 l 222 421 q 228 492 222 460 q 246 556 235 525 l 335 783 q 369 849 350 822 q 436 875 389 875 l 572 875 q 637 849 618 875 q 672 782 656 822 l 768 556 q 785 492 779 525 q 792 421 792 460 l 792 125 l 778 125 m 379 50 l 379 244 l 625 244 l 625 50 q 638 12 625 24 q 679 0 651 0 l 889 0 q 927 12 915 0 q 939 50 939 24 l 939 417 q 926 513 939 458 q 885 639 913 567 l 764 954 q 738 989 756 978 q 694 1000 721 1000 l 321 1000 q 276 989 293 1000 q 250 954 258 978 l 129 639 q 88 513 101 567 q 75 417 75 458 l 75 50 q 87 12 75 24 q 125 0 99 0 l 329 0 q 367 12 356 0 q 379 50 379 24 m 125 -14 q 76 1 92 -14 q 61 50 61 17 l 61 417 q 74 515 61 460 q 117 644 88 569 l 238 958 q 267 1001 247 988 q 321 1014 288 1014 l 694 1014 q 747 1001 726 1014 q 776 960 767 988 l 897 644 q 940 515 926 569 q 953 417 953 460 l 953 50 q 938 1 953 17 q 889 -14 922 -14 l 679 -14 q 628 2 644 -14 q 611 50 611 18 l 611 231 l 393 231 l 393 50 q 378 1 393 17 q 329 -14 363 -14 l 125 -14 m 264 1032 q 217 1044 233 1028 q 201 1092 201 1060 l 201 1225 q 216 1271 201 1257 q 264 1289 231 1285 l 749 1349 q 795 1337 779 1353 q 811 1289 811 1321 l 811 1156 q 797 1110 811 1124 q 749 1092 782 1096 l 264 1032 m 747 1106 q 785 1119 774 1108 q 797 1156 797 1129 l 797 1289 q 785 1325 797 1313 q 750 1335 774 1338 l 265 1275 q 227 1262 239 1272 q 215 1225 215 1251 l 215 1092 q 227 1056 215 1068 q 263 1046 239 1043 l 747 1106 m 340 1176 l 672 1218 l 672 1204 l 340 1163 l 340 1176 z "},"Â":{"ha":1014,"x_min":61,"x_max":953,"o":"m 236 421 l 236 378 l 778 378 l 778 421 q 772 490 778 458 q 756 550 765 522 l 660 776 q 628 837 644 813 q 572 861 611 861 l 436 861 q 378 837 394 861 q 347 778 361 813 l 258 550 q 242 490 249 522 q 236 421 236 458 m 458 708 q 470 726 464 721 q 485 732 476 732 l 519 732 q 534 726 528 732 q 546 708 540 721 l 611 497 l 393 497 l 458 708 m 532 704 l 533 703 q 528 713 531 708 q 519 718 525 718 l 485 718 q 476 713 479 718 q 471 703 474 708 l 472 704 l 413 511 l 592 511 l 532 704 m 778 125 l 778 364 l 236 364 l 236 125 l 222 125 l 222 421 q 228 492 222 460 q 246 556 235 525 l 335 783 q 369 849 350 822 q 436 875 389 875 l 572 875 q 637 849 618 875 q 672 782 656 822 l 768 556 q 785 492 779 525 q 792 421 792 460 l 792 125 l 778 125 m 379 50 l 379 244 l 625 244 l 625 50 q 638 12 625 24 q 679 0 651 0 l 889 0 q 927 12 915 0 q 939 50 939 24 l 939 417 q 926 513 939 458 q 885 639 913 567 l 764 954 q 738 989 756 978 q 694 1000 721 1000 l 321 1000 q 276 989 293 1000 q 250 954 258 978 l 129 639 q 88 513 101 567 q 75 417 75 458 l 75 50 q 87 12 75 24 q 125 0 99 0 l 329 0 q 367 12 356 0 q 379 50 379 24 m 125 -14 q 76 1 92 -14 q 61 50 61 17 l 61 417 q 74 515 61 460 q 117 644 88 569 l 238 958 q 267 1001 247 988 q 321 1014 288 1014 l 694 1014 q 747 1001 726 1014 q 776 960 767 988 l 897 644 q 940 515 926 569 q 953 417 953 460 l 953 50 q 938 1 953 17 q 889 -14 922 -14 l 679 -14 q 628 2 644 -14 q 611 50 611 18 l 611 231 l 393 231 l 393 50 q 378 1 393 17 q 329 -14 363 -14 l 125 -14 m 671 1181 l 550 1219 q 530 1225 540 1222 q 506 1228 519 1228 q 481 1225 492 1228 q 461 1219 471 1222 l 340 1181 l 340 1196 l 456 1233 q 479 1239 468 1236 q 506 1242 490 1242 q 532 1239 521 1242 q 556 1233 543 1236 l 671 1196 l 671 1181 m 463 1107 q 506 1113 486 1113 q 549 1107 525 1113 l 739 1051 q 786 1049 775 1040 q 797 1094 797 1057 l 797 1207 q 785 1256 797 1244 q 739 1281 774 1267 l 549 1350 q 528 1356 539 1354 q 504 1357 517 1357 q 477 1353 492 1356 q 450 1344 463 1350 l 272 1281 q 227 1256 239 1267 q 215 1207 215 1244 l 215 1094 q 226 1049 215 1057 q 272 1051 238 1040 l 463 1107 m 276 1038 q 216 1034 231 1024 q 201 1094 201 1044 l 201 1207 q 215 1264 201 1250 q 268 1293 229 1278 l 444 1357 q 474 1366 458 1363 q 504 1371 490 1369 q 531 1369 518 1371 q 553 1363 543 1368 l 744 1293 q 799 1264 786 1278 q 811 1207 811 1250 l 811 1094 q 797 1035 811 1046 q 735 1038 782 1024 l 544 1093 q 506 1099 522 1099 q 467 1093 489 1099 l 276 1038 z "},"Ã":{"ha":1014,"x_min":61,"x_max":953,"o":"m 236 421 l 236 378 l 778 378 l 778 421 q 772 490 778 458 q 756 550 765 522 l 660 776 q 628 837 644 813 q 572 861 611 861 l 436 861 q 378 837 394 861 q 347 778 361 813 l 258 550 q 242 490 249 522 q 236 421 236 458 m 458 708 q 470 726 464 721 q 485 732 476 732 l 519 732 q 534 726 528 732 q 546 708 540 721 l 611 497 l 393 497 l 458 708 m 532 704 l 533 703 q 528 713 531 708 q 519 718 525 718 l 485 718 q 476 713 479 718 q 471 703 474 708 l 472 704 l 413 511 l 592 511 l 532 704 m 778 125 l 778 364 l 236 364 l 236 125 l 222 125 l 222 421 q 228 492 222 460 q 246 556 235 525 l 335 783 q 369 849 350 822 q 436 875 389 875 l 572 875 q 637 849 618 875 q 672 782 656 822 l 768 556 q 785 492 779 525 q 792 421 792 460 l 792 125 l 778 125 m 379 50 l 379 244 l 625 244 l 625 50 q 638 12 625 24 q 679 0 651 0 l 889 0 q 927 12 915 0 q 939 50 939 24 l 939 417 q 926 513 939 458 q 885 639 913 567 l 764 954 q 738 989 756 978 q 694 1000 721 1000 l 321 1000 q 276 989 293 1000 q 250 954 258 978 l 129 639 q 88 513 101 567 q 75 417 75 458 l 75 50 q 87 12 75 24 q 125 0 99 0 l 329 0 q 367 12 356 0 q 379 50 379 24 m 125 -14 q 76 1 92 -14 q 61 50 61 17 l 61 417 q 74 515 61 460 q 117 644 88 569 l 238 958 q 267 1001 247 988 q 321 1014 288 1014 l 694 1014 q 747 1001 726 1014 q 776 960 767 988 l 897 644 q 940 515 926 569 q 953 417 953 460 l 953 50 q 938 1 953 17 q 889 -14 922 -14 l 679 -14 q 628 2 644 -14 q 611 50 611 18 l 611 231 l 393 231 l 393 50 q 378 1 393 17 q 329 -14 363 -14 l 125 -14 m 750 1051 q 693 1037 717 1042 q 647 1032 669 1032 q 597 1035 625 1032 q 526 1044 569 1039 l 504 1047 l 465 1053 q 401 1060 426 1058 q 356 1060 376 1063 q 315 1053 335 1058 q 269 1040 296 1049 q 218 1043 235 1031 q 201 1090 201 1056 l 201 1231 q 216 1275 201 1261 q 260 1300 231 1289 l 261 1300 l 261 1301 q 317 1316 294 1311 q 363 1321 340 1321 q 413 1317 386 1321 q 483 1308 440 1314 l 507 1306 l 538 1301 q 608 1292 582 1294 q 654 1290 635 1289 q 693 1297 674 1292 q 742 1313 713 1303 q 793 1310 776 1322 q 810 1263 810 1297 l 810 1122 q 795 1078 810 1092 q 751 1053 781 1064 l 750 1053 l 750 1051 m 506 1061 l 528 1058 q 597 1049 569 1053 q 646 1046 624 1046 q 690 1051 668 1046 q 746 1065 713 1056 q 783 1085 769 1075 q 796 1122 796 1096 l 796 1263 q 783 1297 796 1289 q 746 1299 771 1306 q 696 1283 715 1289 q 656 1276 676 1278 q 609 1278 636 1275 q 536 1288 582 1281 l 506 1292 l 482 1294 q 413 1303 440 1300 q 365 1307 386 1307 q 321 1302 343 1307 q 265 1288 299 1297 q 228 1267 242 1278 q 215 1231 215 1257 l 215 1090 q 228 1056 215 1064 q 265 1054 240 1047 q 313 1067 293 1063 q 354 1074 333 1072 q 401 1074 375 1076 q 467 1067 428 1072 l 506 1061 m 671 1168 l 671 1154 q 611 1154 643 1151 q 526 1165 579 1157 l 504 1168 l 465 1174 q 391 1182 419 1181 q 340 1179 363 1183 l 340 1194 q 392 1195 364 1197 q 468 1188 421 1193 l 507 1182 l 529 1179 q 613 1168 582 1171 q 671 1168 643 1165 z "},"Ä":{"ha":1014,"x_min":61,"x_max":953,"o":"m 236 421 l 236 378 l 778 378 l 778 421 q 772 490 778 458 q 756 550 765 522 l 660 776 q 628 837 644 813 q 572 861 611 861 l 436 861 q 378 837 394 861 q 347 778 361 813 l 258 550 q 242 490 249 522 q 236 421 236 458 m 458 708 q 470 726 464 721 q 485 732 476 732 l 519 732 q 534 726 528 732 q 546 708 540 721 l 611 497 l 393 497 l 458 708 m 532 704 l 533 703 q 528 713 531 708 q 519 718 525 718 l 485 718 q 476 713 479 718 q 471 703 474 708 l 472 704 l 413 511 l 592 511 l 532 704 m 778 125 l 778 364 l 236 364 l 236 125 l 222 125 l 222 421 q 228 492 222 460 q 246 556 235 525 l 335 783 q 369 849 350 822 q 436 875 389 875 l 572 875 q 637 849 618 875 q 672 782 656 822 l 768 556 q 785 492 779 525 q 792 421 792 460 l 792 125 l 778 125 m 379 50 l 379 244 l 625 244 l 625 50 q 638 12 625 24 q 679 0 651 0 l 889 0 q 927 12 915 0 q 939 50 939 24 l 939 417 q 926 513 939 458 q 885 639 913 567 l 764 954 q 738 989 756 978 q 694 1000 721 1000 l 321 1000 q 276 989 293 1000 q 250 954 258 978 l 129 639 q 88 513 101 567 q 75 417 75 458 l 75 50 q 87 12 75 24 q 125 0 99 0 l 329 0 q 367 12 356 0 q 379 50 379 24 m 125 -14 q 76 1 92 -14 q 61 50 61 17 l 61 417 q 74 515 61 460 q 117 644 88 569 l 238 958 q 267 1001 247 988 q 321 1014 288 1014 l 694 1014 q 747 1001 726 1014 q 776 960 767 988 l 897 644 q 940 515 926 569 q 953 417 953 460 l 953 50 q 938 1 953 17 q 889 -14 922 -14 l 679 -14 q 628 2 644 -14 q 611 50 611 18 l 611 231 l 393 231 l 393 50 q 378 1 393 17 q 329 -14 363 -14 l 125 -14 m 481 1101 q 466 1056 481 1071 q 421 1042 451 1042 l 229 1042 q 183 1056 199 1042 q 168 1101 168 1071 l 168 1269 q 183 1315 168 1300 q 229 1329 199 1329 l 421 1329 q 466 1315 451 1329 q 481 1269 481 1300 l 481 1101 m 839 1101 q 824 1056 839 1071 q 779 1042 810 1042 l 588 1042 q 542 1056 557 1042 q 528 1101 528 1071 l 528 1269 q 542 1315 528 1300 q 588 1329 557 1329 l 779 1329 q 824 1315 810 1329 q 839 1269 839 1300 l 839 1101 m 421 1056 q 456 1067 444 1056 q 467 1101 467 1078 l 467 1269 q 456 1304 467 1293 q 421 1315 444 1315 l 229 1315 q 194 1304 206 1315 q 182 1269 182 1293 l 182 1101 q 194 1067 182 1078 q 229 1056 206 1056 l 421 1056 m 779 1056 q 814 1067 803 1056 q 825 1101 825 1078 l 825 1269 q 814 1304 825 1293 q 779 1315 803 1315 l 588 1315 q 553 1304 564 1315 q 542 1269 542 1293 l 542 1101 q 553 1067 542 1078 q 588 1056 564 1056 l 779 1056 m 332 1153 l 318 1153 l 318 1218 l 332 1218 l 332 1153 m 690 1153 l 676 1153 l 676 1218 l 690 1218 l 690 1153 z "},"Å":{"ha":1014,"x_min":61,"x_max":953,"o":"m 313 1056 l 313 1118 q 320 1175 313 1149 q 349 1219 328 1201 q 408 1248 369 1238 q 508 1258 447 1258 q 669 1219 632 1258 q 707 1118 707 1179 l 707 1056 q 669 955 707 993 q 508 917 632 917 q 408 926 447 917 q 349 955 369 936 q 320 999 328 974 q 313 1056 313 1025 m 508 1244 q 362 1210 397 1244 q 326 1118 326 1176 l 326 1056 q 362 964 326 997 q 508 931 397 931 q 656 964 619 931 q 693 1056 693 997 l 693 1118 q 656 1210 693 1175 q 508 1244 619 1244 m 590 1061 q 575 1016 590 1031 q 508 1001 560 1001 q 443 1016 457 1001 q 429 1061 429 1031 l 429 1110 q 443 1151 429 1136 q 508 1165 457 1165 q 575 1151 560 1165 q 590 1110 590 1136 l 590 1061 m 508 1015 q 562 1026 547 1015 q 576 1061 576 1036 l 576 1110 q 562 1142 576 1132 q 508 1151 547 1151 q 456 1142 469 1151 q 443 1110 443 1132 l 443 1061 q 456 1026 443 1036 q 508 1015 469 1015 m 236 421 l 236 378 l 778 378 l 778 421 q 772 490 778 458 q 756 550 765 522 l 660 776 q 628 837 644 813 q 572 861 611 861 l 436 861 q 378 837 394 861 q 347 778 361 813 l 258 550 q 242 490 249 522 q 236 421 236 458 m 458 708 q 469 726 463 721 q 485 732 476 732 l 519 732 q 535 726 528 732 q 546 708 542 721 l 611 497 l 393 497 l 458 708 m 472 704 l 413 511 l 592 511 l 533 704 q 528 714 532 710 q 519 718 525 718 l 485 718 q 476 714 479 718 q 471 704 472 710 l 472 704 m 778 125 l 778 364 l 236 364 l 236 125 l 222 125 l 222 421 q 228 492 222 460 q 246 556 235 525 l 335 783 q 369 849 350 822 q 436 875 389 875 l 572 875 q 637 849 618 875 q 672 782 656 822 l 768 556 q 785 492 779 525 q 792 421 792 460 l 792 125 l 778 125 m 379 50 l 379 244 l 625 244 l 625 50 q 638 12 625 24 q 679 0 651 0 l 889 0 q 927 12 915 0 q 939 50 939 24 l 939 417 q 926 513 939 458 q 885 639 913 567 l 768 944 q 799 1001 790 969 q 808 1071 808 1033 l 808 1151 q 795 1233 808 1196 q 748 1295 782 1269 q 656 1335 714 1321 q 507 1350 597 1350 q 358 1335 417 1350 q 266 1295 300 1321 q 219 1233 232 1269 q 206 1151 206 1196 l 206 1071 q 215 1001 206 1033 q 246 944 224 969 l 129 639 q 88 513 101 567 q 75 417 75 458 l 75 50 q 87 12 75 24 q 125 0 99 0 l 329 0 q 367 12 356 0 q 379 50 379 24 m 125 -14 q 76 1 92 -14 q 61 50 61 17 l 61 417 q 74 515 61 460 q 117 644 88 569 l 231 940 q 200 999 208 967 q 192 1071 192 1032 l 192 1151 q 205 1237 192 1197 q 253 1304 218 1276 q 349 1348 288 1332 q 507 1364 411 1364 q 665 1348 603 1364 q 761 1304 726 1332 q 809 1237 796 1276 q 822 1151 822 1197 l 822 1071 q 814 1000 822 1033 q 783 940 806 967 l 897 644 q 940 515 926 569 q 953 417 953 460 l 953 50 q 938 1 953 17 q 889 -14 922 -14 l 679 -14 q 628 2 644 -14 q 611 50 611 18 l 611 231 l 393 231 l 393 50 q 378 1 393 17 q 329 -14 363 -14 l 125 -14 z "},"Ā":{"ha":1014,"x_min":61,"x_max":953,"o":"m 236 421 l 236 378 l 778 378 l 778 421 q 772 490 778 458 q 756 550 765 522 l 660 776 q 628 837 644 813 q 572 861 611 861 l 436 861 q 378 837 394 861 q 347 778 361 813 l 258 550 q 242 490 249 522 q 236 421 236 458 m 458 708 q 470 726 464 721 q 485 732 476 732 l 519 732 q 534 726 528 732 q 546 708 540 721 l 611 497 l 393 497 l 458 708 m 532 704 l 533 703 q 528 713 531 708 q 519 718 525 718 l 485 718 q 476 713 479 718 q 471 703 474 708 l 472 704 l 413 511 l 592 511 l 532 704 m 778 125 l 778 364 l 236 364 l 236 125 l 222 125 l 222 421 q 228 492 222 460 q 246 556 235 525 l 335 783 q 369 849 350 822 q 436 875 389 875 l 572 875 q 637 849 618 875 q 672 782 656 822 l 768 556 q 785 492 779 525 q 792 421 792 460 l 792 125 l 778 125 m 379 50 l 379 244 l 625 244 l 625 50 q 638 12 625 24 q 679 0 651 0 l 889 0 q 927 12 915 0 q 939 50 939 24 l 939 417 q 926 513 939 458 q 885 639 913 567 l 764 954 q 738 989 756 978 q 694 1000 721 1000 l 321 1000 q 276 989 293 1000 q 250 954 258 978 l 129 639 q 88 513 101 567 q 75 417 75 458 l 75 50 q 87 12 75 24 q 125 0 99 0 l 329 0 q 367 12 356 0 q 379 50 379 24 m 125 -14 q 76 1 92 -14 q 61 50 61 17 l 61 417 q 74 515 61 460 q 117 644 88 569 l 238 958 q 267 1001 247 988 q 321 1014 288 1014 l 694 1014 q 747 1001 726 1014 q 776 960 767 988 l 897 644 q 940 515 926 569 q 953 417 953 460 l 953 50 q 938 1 953 17 q 889 -14 922 -14 l 679 -14 q 628 2 644 -14 q 611 50 611 18 l 611 231 l 393 231 l 393 50 q 378 1 393 17 q 329 -14 363 -14 l 125 -14 m 811 1106 q 796 1057 811 1072 q 747 1042 781 1042 l 265 1042 q 217 1057 232 1042 q 201 1106 201 1072 l 201 1235 q 217 1283 201 1268 q 265 1299 232 1299 l 747 1299 q 796 1283 781 1299 q 811 1235 811 1268 l 811 1106 m 747 1056 q 785 1067 774 1056 q 797 1106 797 1079 l 797 1235 q 785 1273 797 1261 q 747 1285 774 1285 l 265 1285 q 227 1273 239 1285 q 215 1235 215 1261 l 215 1106 q 227 1067 215 1079 q 265 1056 239 1056 l 747 1056 m 340 1176 l 672 1176 l 672 1163 l 340 1163 l 340 1176 z "},"Ă":{"ha":1014,"x_min":61,"x_max":953,"o":"m 236 421 l 236 378 l 778 378 l 778 421 q 772 490 778 458 q 756 550 765 522 l 660 776 q 628 837 644 813 q 572 861 611 861 l 436 861 q 378 837 394 861 q 347 778 361 813 l 258 550 q 242 490 249 522 q 236 421 236 458 m 458 708 q 470 726 464 721 q 485 732 476 732 l 519 732 q 534 726 528 732 q 546 708 540 721 l 611 497 l 393 497 l 458 708 m 532 704 l 533 703 q 528 713 531 708 q 519 718 525 718 l 485 718 q 476 713 479 718 q 471 703 474 708 l 472 704 l 413 511 l 592 511 l 532 704 m 778 125 l 778 364 l 236 364 l 236 125 l 222 125 l 222 421 q 228 492 222 460 q 246 556 235 525 l 335 783 q 369 849 350 822 q 436 875 389 875 l 572 875 q 637 849 618 875 q 672 782 656 822 l 768 556 q 785 492 779 525 q 792 421 792 460 l 792 125 l 778 125 m 379 50 l 379 244 l 625 244 l 625 50 q 638 12 625 24 q 679 0 651 0 l 889 0 q 927 12 915 0 q 939 50 939 24 l 939 417 q 926 513 939 458 q 885 639 913 567 l 764 954 q 738 989 756 978 q 694 1000 721 1000 l 321 1000 q 276 989 293 1000 q 250 954 258 978 l 129 639 q 88 513 101 567 q 75 417 75 458 l 75 50 q 87 12 75 24 q 125 0 99 0 l 329 0 q 367 12 356 0 q 379 50 379 24 m 125 -14 q 76 1 92 -14 q 61 50 61 17 l 61 417 q 74 515 61 460 q 117 644 88 569 l 238 958 q 267 1001 247 988 q 321 1014 288 1014 l 694 1014 q 747 1001 726 1014 q 776 960 767 988 l 897 644 q 940 515 926 569 q 953 417 953 460 l 953 50 q 938 1 953 17 q 889 -14 922 -14 l 679 -14 q 628 2 644 -14 q 611 50 611 18 l 611 231 l 393 231 l 393 50 q 378 1 393 17 q 329 -14 363 -14 l 125 -14 m 822 1307 l 822 1246 q 809 1160 822 1200 q 761 1093 796 1121 q 665 1049 726 1065 q 507 1033 603 1033 q 349 1049 411 1033 q 253 1093 288 1065 q 205 1160 218 1121 q 192 1246 192 1200 l 192 1307 q 207 1356 192 1340 q 256 1371 222 1371 l 389 1371 q 431 1359 418 1371 q 443 1314 443 1347 l 443 1285 q 458 1260 443 1268 q 508 1253 474 1253 q 560 1260 544 1253 q 576 1285 576 1268 l 576 1314 q 589 1359 576 1347 q 632 1371 601 1371 l 758 1371 q 807 1356 792 1371 q 822 1307 822 1340 m 808 1246 l 808 1307 q 797 1345 808 1333 q 758 1357 785 1357 l 632 1357 q 599 1348 608 1357 q 590 1314 590 1339 l 590 1285 q 575 1252 590 1265 q 508 1239 560 1239 q 443 1252 457 1239 q 429 1285 429 1265 l 429 1314 q 420 1348 429 1339 q 389 1357 411 1357 l 256 1357 q 217 1345 229 1357 q 206 1307 206 1333 l 206 1246 q 219 1165 206 1201 q 266 1102 232 1128 q 358 1062 300 1076 q 507 1047 417 1047 q 656 1062 597 1047 q 748 1102 714 1076 q 795 1165 782 1128 q 808 1246 808 1201 m 693 1260 l 707 1260 l 707 1247 q 699 1208 707 1228 q 671 1172 692 1188 q 610 1146 650 1156 q 506 1136 569 1136 q 403 1146 442 1136 q 344 1172 364 1156 q 317 1208 324 1188 q 311 1247 311 1228 l 311 1260 l 325 1260 l 325 1247 q 359 1180 325 1210 q 506 1150 393 1150 q 656 1180 618 1150 q 693 1247 693 1210 l 693 1260 z "},"Ą":{"ha":1014,"x_min":61,"x_max":953,"o":"m 953 -211 q 940 -259 953 -246 q 893 -272 928 -272 l 739 -272 q 606 -224 643 -272 q 585 -68 569 -175 l 611 78 l 611 231 l 393 231 l 393 50 q 378 1 393 17 q 329 -14 363 -14 l 125 -14 q 76 1 92 -14 q 61 50 61 17 l 61 417 q 74 515 61 460 q 117 644 88 569 l 238 958 q 267 1001 247 988 q 321 1014 288 1014 l 694 1014 q 747 1001 726 1014 q 776 960 767 988 l 897 644 q 940 515 926 569 q 953 417 953 460 l 953 50 q 938 1 953 17 q 889 -14 922 -14 l 854 -14 l 849 -50 l 889 -50 q 940 -63 926 -50 q 953 -111 953 -76 l 953 -211 m 893 -258 q 929 -248 919 -258 q 939 -211 939 -237 l 939 -111 q 928 -74 939 -85 q 889 -64 918 -64 l 832 -64 l 842 0 l 889 0 q 927 12 915 0 q 939 50 939 24 l 939 417 q 926 513 939 458 q 885 639 913 567 l 764 954 q 738 989 756 978 q 694 1000 721 1000 l 321 1000 q 276 989 293 1000 q 250 954 258 978 l 129 639 q 88 513 101 567 q 75 417 75 458 l 75 50 q 87 12 75 24 q 125 0 99 0 l 329 0 q 367 12 356 0 q 379 50 379 24 l 379 244 l 625 244 l 625 79 l 599 -71 q 617 -212 585 -167 q 739 -258 650 -258 l 893 -258 m 814 -147 l 814 -161 l 781 -161 q 715 -135 729 -161 q 710 -57 701 -108 l 726 58 q 740 106 732 92 q 778 136 749 119 l 778 364 l 236 364 l 236 125 l 222 125 l 222 421 q 228 492 222 460 q 246 556 235 525 l 335 783 q 369 849 350 822 q 436 875 389 875 l 572 875 q 637 849 618 875 q 672 782 656 822 l 768 556 q 785 492 779 525 q 792 421 792 460 l 792 125 l 786 125 q 752 100 760 111 q 740 58 744 89 l 724 -60 q 728 -124 718 -101 q 781 -147 738 -147 l 814 -147 m 236 421 l 236 378 l 778 378 l 778 421 q 772 490 778 458 q 756 550 765 522 l 660 776 q 628 837 644 813 q 572 861 611 861 l 436 861 q 378 837 394 861 q 347 778 361 813 l 258 550 q 242 490 249 522 q 236 421 236 458 m 458 708 q 470 726 464 721 q 485 732 476 732 l 519 732 q 534 726 528 732 q 546 708 540 721 l 611 497 l 393 497 l 458 708 m 532 704 l 533 703 q 528 713 531 708 q 519 718 525 718 l 485 718 q 476 713 479 718 q 471 703 474 708 l 472 704 l 413 511 l 592 511 l 532 704 z "},"B":{"ha":1007,"x_min":82,"x_max":963,"o":"m 146 -14 q 97 1 113 -14 q 82 50 82 17 l 82 950 q 97 999 82 983 q 146 1014 113 1014 l 589 1014 q 801 958 733 1014 q 869 788 869 901 l 869 721 q 856 636 869 671 q 814 579 842 601 q 926 507 889 561 q 963 356 963 453 l 963 228 q 894 46 963 106 q 679 -14 825 -14 l 146 -14 m 679 0 q 883 56 817 0 q 949 228 949 111 l 949 356 q 906 510 949 457 q 774 571 863 563 q 835 626 815 589 q 856 721 856 663 l 856 788 q 790 948 856 896 q 589 1000 725 1000 l 146 1000 q 108 988 119 1000 q 96 950 96 976 l 96 50 q 108 12 96 24 q 146 0 119 0 l 679 0 m 624 125 l 250 125 l 250 875 l 532 875 q 625 863 589 875 q 681 831 661 851 q 707 785 700 811 q 714 728 714 758 l 714 639 q 699 563 714 597 q 625 513 685 528 q 718 501 682 513 q 774 467 754 489 q 799 417 793 446 q 806 353 806 388 l 806 264 q 799 208 806 233 q 773 164 792 182 q 718 135 754 146 q 624 125 682 125 m 532 861 l 264 861 l 264 513 l 532 513 q 622 523 589 513 q 673 551 656 533 q 695 591 690 568 q 700 639 700 614 l 700 728 q 668 822 700 783 q 532 861 636 861 m 408 764 l 526 764 q 566 750 553 764 q 579 708 579 736 l 579 669 q 566 628 579 642 q 526 614 553 614 l 408 614 l 408 764 m 526 750 l 422 750 l 422 628 l 526 628 q 556 638 547 628 q 565 669 565 649 l 565 708 q 556 740 565 729 q 526 750 547 750 m 625 499 l 264 499 l 264 139 l 624 139 q 760 173 728 139 q 792 264 792 207 l 792 353 q 760 457 792 415 q 625 499 729 499 m 408 400 l 589 400 q 628 387 615 400 q 642 346 642 374 l 642 292 q 628 250 642 264 q 589 236 615 236 l 408 236 l 408 400 m 589 386 l 422 386 l 422 250 l 589 250 q 619 260 610 250 q 628 292 628 271 l 628 346 q 618 376 628 367 q 589 386 608 386 z "},"C":{"ha":872,"x_min":67,"x_max":825,"o":"m 825 50 q 810 1 825 17 q 761 -14 794 -14 l 422 -14 q 153 60 240 -14 q 67 283 67 133 l 67 715 q 153 940 67 867 q 422 1014 240 1014 l 761 1014 q 810 999 794 1014 q 825 950 825 983 l 825 782 q 810 733 825 749 q 761 718 794 718 l 482 718 q 429 705 447 718 q 411 663 411 692 l 411 332 q 429 291 411 303 q 482 279 447 279 l 761 279 q 810 264 794 279 q 825 215 825 249 l 825 50 m 761 0 q 799 12 788 0 q 811 50 811 24 l 811 215 q 799 253 811 242 q 761 265 788 265 l 482 265 q 418 281 439 265 q 397 332 397 297 l 397 663 q 418 715 397 697 q 482 732 439 732 l 761 732 q 799 744 788 732 q 811 782 811 756 l 811 950 q 799 988 811 976 q 761 1000 788 1000 l 422 1000 q 165 930 249 1000 q 81 715 81 860 l 81 283 q 165 69 81 139 q 422 0 249 0 l 761 0 m 685 139 l 685 125 l 453 125 q 274 167 318 125 q 231 304 231 208 l 231 693 q 275 833 231 792 q 453 875 319 875 l 685 875 l 685 861 l 453 861 q 288 823 331 861 q 244 693 244 785 l 244 304 q 286 176 244 214 q 453 139 328 139 l 685 139 z "},"Ç":{"ha":872,"x_min":67,"x_max":825,"o":"m 617 -137 q 590 -176 607 -164 q 540 -189 574 -189 l 365 -189 q 308 -168 318 -189 q 311 -115 299 -147 l 350 -11 q 136 76 206 3 q 67 283 67 149 l 67 715 q 153 940 67 867 q 422 1014 240 1014 l 761 1014 q 810 999 794 1014 q 825 950 825 983 l 825 782 q 810 733 825 749 q 761 718 794 718 l 482 718 q 429 705 447 718 q 411 663 411 692 l 411 332 q 429 291 411 303 q 482 279 447 279 l 761 279 q 810 264 794 279 q 825 215 825 249 l 825 50 q 810 1 825 17 q 761 -14 794 -14 l 660 -14 l 617 -137 m 540 -175 q 581 -165 567 -175 q 604 -133 596 -156 l 651 0 l 761 0 q 799 12 788 0 q 811 50 811 24 l 811 215 q 799 253 811 242 q 761 265 788 265 l 482 265 q 418 281 439 265 q 397 332 397 297 l 397 663 q 418 715 397 697 q 482 732 439 732 l 761 732 q 799 744 788 732 q 811 782 811 756 l 811 950 q 799 988 811 976 q 761 1000 788 1000 l 422 1000 q 165 930 249 1000 q 81 715 81 860 l 81 283 q 149 83 81 153 q 358 3 218 14 l 369 3 l 324 -119 q 322 -160 314 -144 q 365 -175 331 -175 l 540 -175 m 685 125 l 563 125 l 499 -50 l 485 -50 l 547 125 l 453 125 q 274 167 318 125 q 231 304 231 208 l 231 693 q 275 833 231 792 q 453 875 319 875 l 685 875 l 685 861 l 453 861 q 288 823 331 861 q 244 693 244 785 l 244 304 q 286 176 244 214 q 453 139 328 139 l 685 139 l 685 125 z "},"Ć":{"ha":872,"x_min":67,"x_max":825,"o":"m 825 50 q 810 1 825 17 q 761 -14 794 -14 l 422 -14 q 153 60 240 -14 q 67 283 67 133 l 67 715 q 153 940 67 867 q 422 1014 240 1014 l 761 1014 q 810 999 794 1014 q 825 950 825 983 l 825 782 q 810 733 825 749 q 761 718 794 718 l 482 718 q 429 705 447 718 q 411 663 411 692 l 411 332 q 429 291 411 303 q 482 279 447 279 l 761 279 q 810 264 794 279 q 825 215 825 249 l 825 50 m 761 0 q 799 12 788 0 q 811 50 811 24 l 811 215 q 799 253 811 242 q 761 265 788 265 l 482 265 q 418 281 439 265 q 397 332 397 297 l 397 663 q 418 715 397 697 q 482 732 439 732 l 761 732 q 799 744 788 732 q 811 782 811 756 l 811 950 q 799 988 811 976 q 761 1000 788 1000 l 422 1000 q 165 930 249 1000 q 81 715 81 860 l 81 283 q 165 69 81 139 q 422 0 249 0 l 761 0 m 685 139 l 685 125 l 453 125 q 274 167 318 125 q 231 304 231 208 l 231 693 q 275 833 231 792 q 453 875 319 875 l 685 875 l 685 861 l 453 861 q 288 823 331 861 q 244 693 244 785 l 244 304 q 286 176 244 214 q 453 139 328 139 l 685 139 m 278 1032 q 231 1044 247 1028 q 215 1092 215 1060 l 215 1225 q 230 1271 215 1257 q 278 1289 244 1285 l 763 1349 q 809 1337 793 1353 q 825 1289 825 1321 l 825 1156 q 810 1110 825 1124 q 763 1092 796 1096 l 278 1032 m 761 1106 q 799 1119 788 1108 q 811 1156 811 1129 l 811 1289 q 799 1325 811 1313 q 764 1335 788 1338 l 279 1275 q 241 1262 253 1272 q 229 1225 229 1251 l 229 1092 q 241 1056 229 1068 q 276 1046 253 1043 l 761 1106 m 354 1176 l 686 1218 l 686 1204 l 354 1163 l 354 1176 z "},"Ĉ":{"ha":872,"x_min":67,"x_max":825,"o":"m 825 50 q 810 1 825 17 q 761 -14 794 -14 l 422 -14 q 153 60 240 -14 q 67 283 67 133 l 67 715 q 153 940 67 867 q 422 1014 240 1014 l 761 1014 q 810 999 794 1014 q 825 950 825 983 l 825 782 q 810 733 825 749 q 761 718 794 718 l 482 718 q 429 705 447 718 q 411 663 411 692 l 411 332 q 429 291 411 303 q 482 279 447 279 l 761 279 q 810 264 794 279 q 825 215 825 249 l 825 50 m 761 0 q 799 12 788 0 q 811 50 811 24 l 811 215 q 799 253 811 242 q 761 265 788 265 l 482 265 q 418 281 439 265 q 397 332 397 297 l 397 663 q 418 715 397 697 q 482 732 439 732 l 761 732 q 799 744 788 732 q 811 782 811 756 l 811 950 q 799 988 811 976 q 761 1000 788 1000 l 422 1000 q 165 930 249 1000 q 81 715 81 860 l 81 283 q 165 69 81 139 q 422 0 249 0 l 761 0 m 685 139 l 685 125 l 453 125 q 274 167 318 125 q 231 304 231 208 l 231 693 q 275 833 231 792 q 453 875 319 875 l 685 875 l 685 861 l 453 861 q 288 823 331 861 q 244 693 244 785 l 244 304 q 286 176 244 214 q 453 139 328 139 l 685 139 m 643 1181 l 522 1219 q 502 1225 513 1222 q 478 1228 492 1228 q 453 1225 464 1228 q 433 1219 443 1222 l 313 1181 l 313 1196 l 428 1233 q 451 1239 440 1236 q 478 1242 463 1242 q 504 1239 493 1242 q 528 1233 515 1236 l 643 1196 l 643 1181 m 435 1107 q 478 1113 458 1113 q 521 1107 497 1113 l 711 1051 q 758 1049 747 1040 q 769 1094 769 1057 l 769 1207 q 758 1256 769 1244 q 711 1281 746 1267 l 521 1350 q 500 1356 511 1354 q 476 1357 489 1357 q 449 1353 464 1356 q 422 1344 435 1350 l 244 1281 q 199 1256 211 1267 q 188 1207 188 1244 l 188 1094 q 199 1049 188 1057 q 244 1051 210 1040 l 435 1107 m 249 1038 q 188 1034 203 1024 q 174 1094 174 1044 l 174 1207 q 188 1264 174 1250 q 240 1293 201 1278 l 417 1357 q 447 1366 431 1363 q 476 1371 463 1369 q 503 1369 490 1371 q 525 1363 515 1368 l 717 1293 q 771 1264 758 1278 q 783 1207 783 1250 l 783 1094 q 769 1035 783 1046 q 707 1038 754 1024 l 517 1093 q 478 1099 494 1099 q 439 1093 461 1099 l 249 1038 z "},"Ċ":{"ha":872,"x_min":67,"x_max":825,"o":"m 825 50 q 810 1 825 17 q 761 -14 794 -14 l 422 -14 q 153 60 240 -14 q 67 283 67 133 l 67 715 q 153 940 67 867 q 422 1014 240 1014 l 761 1014 q 810 999 794 1014 q 825 950 825 983 l 825 782 q 810 733 825 749 q 761 718 794 718 l 482 718 q 429 705 447 718 q 411 663 411 692 l 411 332 q 429 291 411 303 q 482 279 447 279 l 761 279 q 810 264 794 279 q 825 215 825 249 l 825 50 m 761 0 q 799 12 788 0 q 811 50 811 24 l 811 215 q 799 253 811 242 q 761 265 788 265 l 482 265 q 418 281 439 265 q 397 332 397 297 l 397 663 q 418 715 397 697 q 482 732 439 732 l 761 732 q 799 744 788 732 q 811 782 811 756 l 811 950 q 799 988 811 976 q 761 1000 788 1000 l 422 1000 q 165 930 249 1000 q 81 715 81 860 l 81 283 q 165 69 81 139 q 422 0 249 0 l 761 0 m 685 139 l 685 125 l 453 125 q 274 167 318 125 q 231 304 231 208 l 231 693 q 275 833 231 792 q 453 875 319 875 l 685 875 l 685 861 l 453 861 q 288 823 331 861 q 244 693 244 785 l 244 304 q 286 176 244 214 q 453 139 328 139 l 685 139 m 668 1106 q 653 1057 668 1072 q 604 1042 638 1042 l 385 1042 q 336 1057 351 1042 q 321 1106 321 1072 l 321 1282 q 336 1331 321 1315 q 385 1346 351 1346 l 604 1346 q 653 1331 638 1346 q 668 1282 668 1315 l 668 1106 m 604 1056 q 642 1067 631 1056 q 654 1106 654 1079 l 654 1282 q 642 1320 654 1308 q 604 1332 631 1332 l 385 1332 q 347 1320 358 1332 q 335 1282 335 1308 l 335 1106 q 347 1067 335 1079 q 385 1056 358 1056 l 604 1056 m 501 1153 l 488 1153 l 488 1235 l 501 1235 l 501 1153 z "},"Č":{"ha":872,"x_min":67,"x_max":825,"o":"m 825 50 q 810 1 825 17 q 761 -14 794 -14 l 422 -14 q 153 60 240 -14 q 67 283 67 133 l 67 715 q 153 940 67 867 q 422 1014 240 1014 l 761 1014 q 810 999 794 1014 q 825 950 825 983 l 825 782 q 810 733 825 749 q 761 718 794 718 l 482 718 q 429 705 447 718 q 411 663 411 692 l 411 332 q 429 291 411 303 q 482 279 447 279 l 761 279 q 810 264 794 279 q 825 215 825 249 l 825 50 m 761 0 q 799 12 788 0 q 811 50 811 24 l 811 215 q 799 253 811 242 q 761 265 788 265 l 482 265 q 418 281 439 265 q 397 332 397 297 l 397 663 q 418 715 397 697 q 482 732 439 732 l 761 732 q 799 744 788 732 q 811 782 811 756 l 811 950 q 799 988 811 976 q 761 1000 788 1000 l 422 1000 q 165 930 249 1000 q 81 715 81 860 l 81 283 q 165 69 81 139 q 422 0 249 0 l 761 0 m 685 139 l 685 125 l 453 125 q 274 167 318 125 q 231 304 231 208 l 231 693 q 275 833 231 792 q 453 875 319 875 l 685 875 l 685 861 l 453 861 q 288 823 331 861 q 244 693 244 785 l 244 304 q 286 176 244 214 q 453 139 328 139 l 685 139 m 481 1031 q 454 1032 467 1031 q 432 1039 442 1033 l 240 1108 q 186 1138 199 1124 q 174 1194 174 1151 l 174 1307 q 188 1367 174 1356 q 250 1364 203 1378 l 440 1308 q 479 1303 463 1303 q 518 1308 496 1303 l 708 1364 q 769 1367 754 1378 q 783 1307 783 1357 l 783 1194 q 769 1138 783 1151 q 717 1108 756 1124 l 540 1044 q 510 1035 526 1039 q 481 1031 494 1032 m 522 1294 q 479 1289 499 1289 q 436 1294 460 1289 l 246 1350 q 199 1353 210 1361 q 188 1307 188 1344 l 188 1194 q 199 1146 188 1157 q 246 1121 211 1135 l 436 1051 q 457 1046 446 1047 q 481 1044 468 1044 q 508 1049 493 1046 q 535 1057 522 1051 l 713 1121 q 758 1146 746 1135 q 769 1194 769 1157 l 769 1307 q 758 1353 769 1344 q 713 1350 747 1361 l 522 1294 m 313 1221 l 433 1182 q 453 1176 443 1179 q 478 1174 464 1174 q 502 1176 492 1174 q 522 1182 513 1179 l 643 1221 l 643 1206 l 528 1168 q 504 1163 515 1165 q 478 1160 493 1160 q 451 1163 463 1160 q 428 1168 440 1165 l 313 1206 l 313 1221 z "},"D":{"ha":1036,"x_min":82,"x_max":969,"o":"m 969 283 q 883 60 969 133 q 614 -14 796 -14 l 146 -14 q 97 1 113 -14 q 82 50 82 17 l 82 950 q 97 999 82 983 q 146 1014 113 1014 l 614 1014 q 883 940 796 1014 q 969 717 969 867 l 969 283 m 614 0 q 872 69 788 0 q 956 283 956 139 l 956 717 q 872 931 956 861 q 614 1000 788 1000 l 146 1000 q 108 988 119 1000 q 96 950 96 976 l 96 50 q 108 12 96 24 q 146 0 119 0 l 614 0 m 247 125 l 247 875 l 583 875 q 698 860 654 875 q 765 819 742 844 q 797 758 789 793 q 806 682 806 722 l 806 314 q 798 239 806 274 q 767 179 790 204 q 699 140 743 154 q 583 125 654 125 l 247 125 m 583 861 l 261 861 l 261 139 l 583 139 q 691 152 650 139 q 754 188 732 165 q 784 244 776 211 q 792 314 792 276 l 792 682 q 783 753 792 719 q 753 810 775 786 q 690 847 731 833 q 583 861 649 861 m 411 735 l 576 735 q 626 719 610 735 q 642 668 642 703 l 642 331 q 626 279 642 296 q 576 263 610 263 l 411 263 l 411 735 m 576 721 l 425 721 l 425 276 l 576 276 q 615 290 603 276 q 628 331 628 303 l 628 668 q 615 708 628 694 q 576 721 603 721 z "},"Ď":{"ha":1036,"x_min":82,"x_max":969,"o":"m 969 283 q 883 60 969 133 q 614 -14 796 -14 l 146 -14 q 97 1 113 -14 q 82 50 82 17 l 82 950 q 97 999 82 983 q 146 1014 113 1014 l 614 1014 q 883 940 796 1014 q 969 717 969 867 l 969 283 m 614 0 q 872 69 788 0 q 956 283 956 139 l 956 717 q 872 931 956 861 q 614 1000 788 1000 l 146 1000 q 108 988 119 1000 q 96 950 96 976 l 96 50 q 108 12 96 24 q 146 0 119 0 l 614 0 m 247 125 l 247 875 l 583 875 q 698 860 654 875 q 765 819 742 844 q 797 758 789 793 q 806 682 806 722 l 806 314 q 798 239 806 274 q 767 179 790 204 q 699 140 743 154 q 583 125 654 125 l 247 125 m 583 861 l 261 861 l 261 139 l 583 139 q 691 152 650 139 q 754 188 732 165 q 784 244 776 211 q 792 314 792 276 l 792 682 q 783 753 792 719 q 753 810 775 786 q 690 847 731 833 q 583 861 649 861 m 411 735 l 576 735 q 626 719 610 735 q 642 668 642 703 l 642 331 q 626 279 642 296 q 576 263 610 263 l 411 263 l 411 735 m 576 721 l 425 721 l 425 276 l 576 276 q 615 290 603 276 q 628 331 628 303 l 628 668 q 615 708 628 694 q 576 721 603 721 m 519 1031 q 493 1032 506 1031 q 471 1039 481 1033 l 279 1108 q 225 1138 238 1124 q 213 1194 213 1151 l 213 1307 q 227 1367 213 1356 q 289 1364 242 1378 l 479 1308 q 518 1303 501 1303 q 557 1308 535 1303 l 747 1364 q 808 1367 793 1378 q 822 1307 822 1357 l 822 1194 q 808 1138 822 1151 q 756 1108 794 1124 l 579 1044 q 549 1035 565 1039 q 519 1031 533 1032 m 561 1294 q 518 1289 538 1289 q 475 1294 499 1289 l 285 1350 q 238 1353 249 1361 q 226 1307 226 1344 l 226 1194 q 238 1146 226 1157 q 285 1121 250 1135 l 475 1051 q 496 1046 485 1047 q 519 1044 507 1044 q 547 1049 532 1046 q 574 1057 561 1051 l 751 1121 q 797 1146 785 1135 q 808 1194 808 1157 l 808 1307 q 797 1353 808 1344 q 751 1350 786 1361 l 561 1294 m 351 1221 l 472 1182 q 492 1176 482 1179 q 517 1174 503 1174 q 541 1176 531 1174 q 561 1182 551 1179 l 682 1221 l 682 1206 l 567 1168 q 543 1163 554 1165 q 517 1160 532 1160 q 490 1163 501 1160 q 467 1168 479 1165 l 351 1206 l 351 1221 z "},"E":{"ha":908,"x_min":82,"x_max":854,"o":"m 146 -14 q 97 1 113 -14 q 82 50 82 17 l 82 950 q 97 999 82 983 q 146 1014 113 1014 l 790 1014 q 839 999 824 1014 q 854 950 854 983 l 854 788 q 839 739 854 754 q 790 724 824 724 l 421 724 l 421 644 l 678 644 q 726 629 711 644 q 742 581 742 614 l 742 432 q 726 383 742 399 q 678 368 711 368 l 421 368 l 421 276 l 790 276 q 839 261 824 276 q 854 213 854 246 l 854 50 q 839 1 854 17 q 790 -14 824 -14 l 146 -14 m 790 0 q 828 12 817 0 q 840 50 840 24 l 840 213 q 828 251 840 239 q 790 263 817 263 l 407 263 l 407 382 l 678 382 q 716 394 704 382 q 728 432 728 406 l 728 581 q 716 619 728 607 q 678 631 704 631 l 407 631 l 407 738 l 790 738 q 828 749 817 738 q 840 788 840 761 l 840 950 q 828 988 840 976 q 790 1000 817 1000 l 146 1000 q 108 988 119 1000 q 96 950 96 976 l 96 50 q 108 12 96 24 q 146 0 119 0 l 790 0 m 715 139 l 715 125 l 247 125 l 247 875 l 715 875 l 715 861 l 261 861 l 261 513 l 603 513 l 603 499 l 261 499 l 261 139 l 715 139 z "},"È":{"ha":908,"x_min":82,"x_max":854,"o":"m 146 -14 q 97 1 113 -14 q 82 50 82 17 l 82 950 q 97 999 82 983 q 146 1014 113 1014 l 790 1014 q 839 999 824 1014 q 854 950 854 983 l 854 788 q 839 739 854 754 q 790 724 824 724 l 421 724 l 421 644 l 678 644 q 726 629 711 644 q 742 581 742 614 l 742 432 q 726 383 742 399 q 678 368 711 368 l 421 368 l 421 276 l 790 276 q 839 261 824 276 q 854 213 854 246 l 854 50 q 839 1 854 17 q 790 -14 824 -14 l 146 -14 m 790 0 q 828 12 817 0 q 840 50 840 24 l 840 213 q 828 251 840 239 q 790 263 817 263 l 407 263 l 407 382 l 678 382 q 716 394 704 382 q 728 432 728 406 l 728 581 q 716 619 728 607 q 678 631 704 631 l 407 631 l 407 738 l 790 738 q 828 749 817 738 q 840 788 840 761 l 840 950 q 828 988 840 976 q 790 1000 817 1000 l 146 1000 q 108 988 119 1000 q 96 950 96 976 l 96 50 q 108 12 96 24 q 146 0 119 0 l 790 0 m 715 139 l 715 125 l 247 125 l 247 875 l 715 875 l 715 861 l 261 861 l 261 513 l 603 513 l 603 499 l 261 499 l 261 139 l 715 139 m 758 1092 q 742 1044 758 1060 q 696 1032 726 1028 l 211 1092 q 163 1110 178 1096 q 149 1156 149 1124 l 149 1289 q 165 1337 149 1321 q 211 1349 181 1353 l 696 1289 q 744 1271 729 1285 q 758 1225 758 1257 l 758 1092 m 697 1046 q 733 1056 721 1043 q 744 1092 744 1068 l 744 1225 q 733 1262 744 1251 q 694 1275 721 1272 l 210 1335 q 174 1325 186 1338 q 163 1289 163 1313 l 163 1156 q 174 1119 163 1129 q 213 1106 186 1108 l 697 1046 m 288 1204 l 288 1218 l 619 1176 l 619 1163 l 288 1204 z "},"É":{"ha":908,"x_min":82,"x_max":854,"o":"m 146 -14 q 97 1 113 -14 q 82 50 82 17 l 82 950 q 97 999 82 983 q 146 1014 113 1014 l 790 1014 q 839 999 824 1014 q 854 950 854 983 l 854 788 q 839 739 854 754 q 790 724 824 724 l 421 724 l 421 644 l 678 644 q 726 629 711 644 q 742 581 742 614 l 742 432 q 726 383 742 399 q 678 368 711 368 l 421 368 l 421 276 l 790 276 q 839 261 824 276 q 854 213 854 246 l 854 50 q 839 1 854 17 q 790 -14 824 -14 l 146 -14 m 790 0 q 828 12 817 0 q 840 50 840 24 l 840 213 q 828 251 840 239 q 790 263 817 263 l 407 263 l 407 382 l 678 382 q 716 394 704 382 q 728 432 728 406 l 728 581 q 716 619 728 607 q 678 631 704 631 l 407 631 l 407 738 l 790 738 q 828 749 817 738 q 840 788 840 761 l 840 950 q 828 988 840 976 q 790 1000 817 1000 l 146 1000 q 108 988 119 1000 q 96 950 96 976 l 96 50 q 108 12 96 24 q 146 0 119 0 l 790 0 m 715 139 l 715 125 l 247 125 l 247 875 l 715 875 l 715 861 l 261 861 l 261 513 l 603 513 l 603 499 l 261 499 l 261 139 l 715 139 m 253 1032 q 206 1044 222 1028 q 190 1092 190 1060 l 190 1225 q 205 1271 190 1257 q 253 1289 219 1285 l 738 1349 q 784 1337 768 1353 q 800 1289 800 1321 l 800 1156 q 785 1110 800 1124 q 738 1092 771 1096 l 253 1032 m 736 1106 q 774 1119 763 1108 q 786 1156 786 1129 l 786 1289 q 774 1325 786 1313 q 739 1335 763 1338 l 254 1275 q 216 1262 228 1272 q 204 1225 204 1251 l 204 1092 q 216 1056 204 1068 q 251 1046 228 1043 l 736 1106 m 329 1176 l 661 1218 l 661 1204 l 329 1163 l 329 1176 z "},"Ê":{"ha":908,"x_min":82,"x_max":854,"o":"m 146 -14 q 97 1 113 -14 q 82 50 82 17 l 82 950 q 97 999 82 983 q 146 1014 113 1014 l 790 1014 q 839 999 824 1014 q 854 950 854 983 l 854 788 q 839 739 854 754 q 790 724 824 724 l 421 724 l 421 644 l 678 644 q 726 629 711 644 q 742 581 742 614 l 742 432 q 726 383 742 399 q 678 368 711 368 l 421 368 l 421 276 l 790 276 q 839 261 824 276 q 854 213 854 246 l 854 50 q 839 1 854 17 q 790 -14 824 -14 l 146 -14 m 790 0 q 828 12 817 0 q 840 50 840 24 l 840 213 q 828 251 840 239 q 790 263 817 263 l 407 263 l 407 382 l 678 382 q 716 394 704 382 q 728 432 728 406 l 728 581 q 716 619 728 607 q 678 631 704 631 l 407 631 l 407 738 l 790 738 q 828 749 817 738 q 840 788 840 761 l 840 950 q 828 988 840 976 q 790 1000 817 1000 l 146 1000 q 108 988 119 1000 q 96 950 96 976 l 96 50 q 108 12 96 24 q 146 0 119 0 l 790 0 m 715 139 l 715 125 l 247 125 l 247 875 l 715 875 l 715 861 l 261 861 l 261 513 l 603 513 l 603 499 l 261 499 l 261 139 l 715 139 m 632 1181 l 511 1219 q 491 1225 501 1222 q 467 1228 481 1228 q 442 1225 453 1228 q 422 1219 432 1222 l 301 1181 l 301 1196 l 417 1233 q 440 1239 429 1236 q 467 1242 451 1242 q 493 1239 482 1242 q 517 1233 504 1236 l 632 1196 l 632 1181 m 424 1107 q 467 1113 447 1113 q 510 1107 486 1113 l 700 1051 q 747 1049 736 1040 q 758 1094 758 1057 l 758 1207 q 747 1256 758 1244 q 700 1281 735 1267 l 510 1350 q 489 1356 500 1354 q 465 1357 478 1357 q 438 1353 453 1356 q 411 1344 424 1350 l 233 1281 q 188 1256 200 1267 q 176 1207 176 1244 l 176 1094 q 188 1049 176 1057 q 233 1051 199 1040 l 424 1107 m 238 1038 q 177 1034 192 1024 q 163 1094 163 1044 l 163 1207 q 176 1264 163 1250 q 229 1293 190 1278 l 406 1357 q 435 1366 419 1363 q 465 1371 451 1369 q 492 1369 479 1371 q 514 1363 504 1368 l 706 1293 q 760 1264 747 1278 q 772 1207 772 1250 l 772 1094 q 758 1035 772 1046 q 696 1038 743 1024 l 506 1093 q 467 1099 483 1099 q 428 1093 450 1099 l 238 1038 z "},"Ë":{"ha":908,"x_min":82,"x_max":854,"o":"m 146 -14 q 97 1 113 -14 q 82 50 82 17 l 82 950 q 97 999 82 983 q 146 1014 113 1014 l 790 1014 q 839 999 824 1014 q 854 950 854 983 l 854 788 q 839 739 854 754 q 790 724 824 724 l 421 724 l 421 644 l 678 644 q 726 629 711 644 q 742 581 742 614 l 742 432 q 726 383 742 399 q 678 368 711 368 l 421 368 l 421 276 l 790 276 q 839 261 824 276 q 854 213 854 246 l 854 50 q 839 1 854 17 q 790 -14 824 -14 l 146 -14 m 790 0 q 828 12 817 0 q 840 50 840 24 l 840 213 q 828 251 840 239 q 790 263 817 263 l 407 263 l 407 382 l 678 382 q 716 394 704 382 q 728 432 728 406 l 728 581 q 716 619 728 607 q 678 631 704 631 l 407 631 l 407 738 l 790 738 q 828 749 817 738 q 840 788 840 761 l 840 950 q 828 988 840 976 q 790 1000 817 1000 l 146 1000 q 108 988 119 1000 q 96 950 96 976 l 96 50 q 108 12 96 24 q 146 0 119 0 l 790 0 m 715 139 l 715 125 l 247 125 l 247 875 l 715 875 l 715 861 l 261 861 l 261 513 l 603 513 l 603 499 l 261 499 l 261 139 l 715 139 m 456 1101 q 441 1056 456 1071 q 396 1042 426 1042 l 204 1042 q 158 1056 174 1042 q 143 1101 143 1071 l 143 1269 q 158 1315 143 1300 q 204 1329 174 1329 l 396 1329 q 441 1315 426 1329 q 456 1269 456 1300 l 456 1101 m 814 1101 q 799 1056 814 1071 q 754 1042 785 1042 l 563 1042 q 517 1056 532 1042 q 503 1101 503 1071 l 503 1269 q 517 1315 503 1300 q 563 1329 532 1329 l 754 1329 q 799 1315 785 1329 q 814 1269 814 1300 l 814 1101 m 396 1056 q 431 1067 419 1056 q 442 1101 442 1078 l 442 1269 q 431 1304 442 1293 q 396 1315 419 1315 l 204 1315 q 169 1304 181 1315 q 157 1269 157 1293 l 157 1101 q 169 1067 157 1078 q 204 1056 181 1056 l 396 1056 m 754 1056 q 789 1067 778 1056 q 800 1101 800 1078 l 800 1269 q 789 1304 800 1293 q 754 1315 778 1315 l 563 1315 q 528 1304 539 1315 q 517 1269 517 1293 l 517 1101 q 528 1067 517 1078 q 563 1056 539 1056 l 754 1056 m 307 1153 l 293 1153 l 293 1218 l 307 1218 l 307 1153 m 665 1153 l 651 1153 l 651 1218 l 665 1218 l 665 1153 z "},"Ē":{"ha":908,"x_min":82,"x_max":854,"o":"m 146 -14 q 97 1 113 -14 q 82 50 82 17 l 82 950 q 97 999 82 983 q 146 1014 113 1014 l 790 1014 q 839 999 824 1014 q 854 950 854 983 l 854 788 q 839 739 854 754 q 790 724 824 724 l 421 724 l 421 644 l 678 644 q 726 629 711 644 q 742 581 742 614 l 742 432 q 726 383 742 399 q 678 368 711 368 l 421 368 l 421 276 l 790 276 q 839 261 824 276 q 854 213 854 246 l 854 50 q 839 1 854 17 q 790 -14 824 -14 l 146 -14 m 790 0 q 828 12 817 0 q 840 50 840 24 l 840 213 q 828 251 840 239 q 790 263 817 263 l 407 263 l 407 382 l 678 382 q 716 394 704 382 q 728 432 728 406 l 728 581 q 716 619 728 607 q 678 631 704 631 l 407 631 l 407 738 l 790 738 q 828 749 817 738 q 840 788 840 761 l 840 950 q 828 988 840 976 q 790 1000 817 1000 l 146 1000 q 108 988 119 1000 q 96 950 96 976 l 96 50 q 108 12 96 24 q 146 0 119 0 l 790 0 m 715 139 l 715 125 l 247 125 l 247 875 l 715 875 l 715 861 l 261 861 l 261 513 l 603 513 l 603 499 l 261 499 l 261 139 l 715 139 m 772 1106 q 757 1057 772 1072 q 708 1042 742 1042 l 226 1042 q 178 1057 193 1042 q 163 1106 163 1072 l 163 1235 q 178 1283 163 1268 q 226 1299 193 1299 l 708 1299 q 757 1283 742 1299 q 772 1235 772 1268 l 772 1106 m 708 1056 q 747 1067 735 1056 q 758 1106 758 1079 l 758 1235 q 747 1273 758 1261 q 708 1285 735 1285 l 226 1285 q 188 1273 200 1285 q 176 1235 176 1261 l 176 1106 q 188 1067 176 1079 q 226 1056 200 1056 l 708 1056 m 301 1176 l 633 1176 l 633 1163 l 301 1163 l 301 1176 z "},"Ĕ":{"ha":908,"x_min":82,"x_max":854,"o":"m 146 -14 q 97 1 113 -14 q 82 50 82 17 l 82 950 q 97 999 82 983 q 146 1014 113 1014 l 790 1014 q 839 999 824 1014 q 854 950 854 983 l 854 788 q 839 739 854 754 q 790 724 824 724 l 421 724 l 421 644 l 678 644 q 726 629 711 644 q 742 581 742 614 l 742 432 q 726 383 742 399 q 678 368 711 368 l 421 368 l 421 276 l 790 276 q 839 261 824 276 q 854 213 854 246 l 854 50 q 839 1 854 17 q 790 -14 824 -14 l 146 -14 m 790 0 q 828 12 817 0 q 840 50 840 24 l 840 213 q 828 251 840 239 q 790 263 817 263 l 407 263 l 407 382 l 678 382 q 716 394 704 382 q 728 432 728 406 l 728 581 q 716 619 728 607 q 678 631 704 631 l 407 631 l 407 738 l 790 738 q 828 749 817 738 q 840 788 840 761 l 840 950 q 828 988 840 976 q 790 1000 817 1000 l 146 1000 q 108 988 119 1000 q 96 950 96 976 l 96 50 q 108 12 96 24 q 146 0 119 0 l 790 0 m 715 139 l 715 125 l 247 125 l 247 875 l 715 875 l 715 861 l 261 861 l 261 513 l 603 513 l 603 499 l 261 499 l 261 139 l 715 139 m 797 1307 l 797 1246 q 784 1160 797 1200 q 736 1093 771 1121 q 640 1049 701 1065 q 482 1033 578 1033 q 324 1049 386 1033 q 228 1093 263 1065 q 180 1160 193 1121 q 167 1246 167 1200 l 167 1307 q 182 1356 167 1340 q 231 1371 197 1371 l 364 1371 q 406 1359 393 1371 q 418 1314 418 1347 l 418 1285 q 433 1260 418 1268 q 483 1253 449 1253 q 535 1260 519 1253 q 551 1285 551 1268 l 551 1314 q 564 1359 551 1347 q 607 1371 576 1371 l 733 1371 q 782 1356 767 1371 q 797 1307 797 1340 m 783 1246 l 783 1307 q 772 1345 783 1333 q 733 1357 760 1357 l 607 1357 q 574 1348 583 1357 q 565 1314 565 1339 l 565 1285 q 550 1252 565 1265 q 483 1239 535 1239 q 418 1252 432 1239 q 404 1285 404 1265 l 404 1314 q 395 1348 404 1339 q 364 1357 386 1357 l 231 1357 q 192 1345 204 1357 q 181 1307 181 1333 l 181 1246 q 194 1165 181 1201 q 241 1102 207 1128 q 333 1062 275 1076 q 482 1047 392 1047 q 631 1062 572 1047 q 723 1102 689 1076 q 770 1165 757 1128 q 783 1246 783 1201 m 668 1260 l 682 1260 l 682 1247 q 674 1208 682 1228 q 646 1172 667 1188 q 585 1146 625 1156 q 481 1136 544 1136 q 378 1146 417 1136 q 319 1172 339 1156 q 292 1208 299 1188 q 286 1247 286 1228 l 286 1260 l 300 1260 l 300 1247 q 334 1180 300 1210 q 481 1150 368 1150 q 631 1180 593 1150 q 668 1247 668 1210 l 668 1260 z "},"Ė":{"ha":908,"x_min":82,"x_max":854,"o":"m 146 -14 q 97 1 113 -14 q 82 50 82 17 l 82 950 q 97 999 82 983 q 146 1014 113 1014 l 790 1014 q 839 999 824 1014 q 854 950 854 983 l 854 788 q 839 739 854 754 q 790 724 824 724 l 421 724 l 421 644 l 678 644 q 726 629 711 644 q 742 581 742 614 l 742 432 q 726 383 742 399 q 678 368 711 368 l 421 368 l 421 276 l 790 276 q 839 261 824 276 q 854 213 854 246 l 854 50 q 839 1 854 17 q 790 -14 824 -14 l 146 -14 m 790 0 q 828 12 817 0 q 840 50 840 24 l 840 213 q 828 251 840 239 q 790 263 817 263 l 407 263 l 407 382 l 678 382 q 716 394 704 382 q 728 432 728 406 l 728 581 q 716 619 728 607 q 678 631 704 631 l 407 631 l 407 738 l 790 738 q 828 749 817 738 q 840 788 840 761 l 840 950 q 828 988 840 976 q 790 1000 817 1000 l 146 1000 q 108 988 119 1000 q 96 950 96 976 l 96 50 q 108 12 96 24 q 146 0 119 0 l 790 0 m 715 139 l 715 125 l 247 125 l 247 875 l 715 875 l 715 861 l 261 861 l 261 513 l 603 513 l 603 499 l 261 499 l 261 139 l 715 139 m 626 1106 q 611 1057 626 1072 q 563 1042 596 1042 l 343 1042 q 294 1057 310 1042 q 279 1106 279 1072 l 279 1282 q 294 1331 279 1315 q 343 1346 310 1346 l 563 1346 q 611 1331 596 1346 q 626 1282 626 1315 l 626 1106 m 563 1056 q 601 1067 589 1056 q 613 1106 613 1079 l 613 1282 q 601 1320 613 1308 q 563 1332 589 1332 l 343 1332 q 305 1320 317 1332 q 293 1282 293 1308 l 293 1106 q 305 1067 293 1079 q 343 1056 317 1056 l 563 1056 m 460 1153 l 446 1153 l 446 1235 l 460 1235 l 460 1153 z "},"Ę":{"ha":908,"x_min":82,"x_max":854,"o":"m 854 -211 q 842 -259 854 -246 q 794 -272 829 -272 l 640 -272 q 508 -224 544 -272 q 486 -68 471 -175 l 496 -14 l 146 -14 q 97 1 113 -14 q 82 50 82 17 l 82 950 q 97 999 82 983 q 146 1014 113 1014 l 790 1014 q 839 999 824 1014 q 854 950 854 983 l 854 788 q 839 739 854 754 q 790 724 824 724 l 421 724 l 421 644 l 678 644 q 726 629 711 644 q 742 581 742 614 l 742 432 q 726 383 742 399 q 678 368 711 368 l 421 368 l 421 276 l 790 276 q 839 261 824 276 q 854 213 854 246 l 854 50 q 839 1 854 17 q 790 -14 824 -14 l 756 -14 l 750 -50 l 790 -50 q 841 -63 828 -50 q 854 -111 854 -76 l 854 -211 m 794 -258 q 831 -248 821 -258 q 840 -211 840 -237 l 840 -111 q 830 -74 840 -85 q 790 -64 819 -64 l 733 -64 l 743 0 l 790 0 q 828 12 817 0 q 840 50 840 24 l 840 213 q 828 251 840 239 q 790 263 817 263 l 407 263 l 407 382 l 678 382 q 716 394 704 382 q 728 432 728 406 l 728 581 q 716 619 728 607 q 678 631 704 631 l 407 631 l 407 738 l 790 738 q 828 749 817 738 q 840 788 840 761 l 840 950 q 828 988 840 976 q 790 1000 817 1000 l 146 1000 q 108 988 119 1000 q 96 950 96 976 l 96 50 q 108 12 96 24 q 146 0 119 0 l 513 0 l 500 -71 q 519 -212 486 -167 q 640 -258 551 -258 l 794 -258 m 715 -147 l 715 -161 l 682 -161 q 617 -135 631 -161 q 611 -57 603 -108 l 628 58 q 638 99 632 85 q 661 125 644 113 l 247 125 l 247 875 l 715 875 l 715 861 l 261 861 l 261 513 l 603 513 l 603 499 l 261 499 l 261 139 l 715 139 l 715 125 l 688 125 q 653 100 661 111 q 642 58 646 89 l 625 -60 q 629 -124 619 -101 q 682 -147 639 -147 l 715 -147 z "},"Ě":{"ha":908,"x_min":82,"x_max":854,"o":"m 146 -14 q 97 1 113 -14 q 82 50 82 17 l 82 950 q 97 999 82 983 q 146 1014 113 1014 l 790 1014 q 839 999 824 1014 q 854 950 854 983 l 854 788 q 839 739 854 754 q 790 724 824 724 l 421 724 l 421 644 l 678 644 q 726 629 711 644 q 742 581 742 614 l 742 432 q 726 383 742 399 q 678 368 711 368 l 421 368 l 421 276 l 790 276 q 839 261 824 276 q 854 213 854 246 l 854 50 q 839 1 854 17 q 790 -14 824 -14 l 146 -14 m 790 0 q 828 12 817 0 q 840 50 840 24 l 840 213 q 828 251 840 239 q 790 263 817 263 l 407 263 l 407 382 l 678 382 q 716 394 704 382 q 728 432 728 406 l 728 581 q 716 619 728 607 q 678 631 704 631 l 407 631 l 407 738 l 790 738 q 828 749 817 738 q 840 788 840 761 l 840 950 q 828 988 840 976 q 790 1000 817 1000 l 146 1000 q 108 988 119 1000 q 96 950 96 976 l 96 50 q 108 12 96 24 q 146 0 119 0 l 790 0 m 715 139 l 715 125 l 247 125 l 247 875 l 715 875 l 715 861 l 261 861 l 261 513 l 603 513 l 603 499 l 261 499 l 261 139 l 715 139 m 479 1031 q 453 1032 465 1031 q 431 1039 440 1033 l 239 1108 q 185 1138 197 1124 q 172 1194 172 1151 l 172 1307 q 187 1367 172 1356 q 249 1364 201 1378 l 439 1308 q 478 1303 461 1303 q 517 1308 494 1303 l 707 1364 q 767 1367 753 1378 q 782 1307 782 1357 l 782 1194 q 768 1138 782 1151 q 715 1108 754 1124 l 539 1044 q 509 1035 525 1039 q 479 1031 493 1032 m 521 1294 q 478 1289 497 1289 q 435 1294 458 1289 l 244 1350 q 197 1353 208 1361 q 186 1307 186 1344 l 186 1194 q 198 1146 186 1157 q 244 1121 210 1135 l 435 1051 q 456 1046 444 1047 q 479 1044 467 1044 q 506 1049 492 1046 q 533 1057 521 1051 l 711 1121 q 756 1146 744 1135 q 768 1194 768 1157 l 768 1307 q 757 1353 768 1344 q 711 1350 746 1361 l 521 1294 m 311 1221 l 432 1182 q 452 1176 442 1179 q 476 1174 463 1174 q 501 1176 490 1174 q 521 1182 511 1179 l 642 1221 l 642 1206 l 526 1168 q 503 1163 514 1165 q 476 1160 492 1160 q 450 1163 461 1160 q 426 1168 439 1165 l 311 1206 l 311 1221 z "},"F":{"ha":858,"x_min":82,"x_max":829,"o":"m 146 -14 q 97 1 113 -14 q 82 50 82 17 l 82 950 q 97 999 82 983 q 146 1014 113 1014 l 765 1014 q 814 999 799 1014 q 829 950 829 983 l 829 785 q 814 736 829 751 q 765 721 799 721 l 425 721 l 425 604 l 653 604 q 701 589 686 604 q 717 540 717 574 l 717 374 q 701 325 717 340 q 653 310 686 310 l 425 310 l 425 50 q 410 1 425 17 q 361 -14 394 -14 l 146 -14 m 361 0 q 399 12 388 0 q 411 50 411 24 l 411 324 l 653 324 q 691 335 679 324 q 703 374 703 347 l 703 540 q 691 578 703 567 q 653 590 679 590 l 411 590 l 411 735 l 765 735 q 803 747 792 735 q 815 785 815 758 l 815 950 q 803 988 815 976 q 765 1000 792 1000 l 146 1000 q 108 988 119 1000 q 96 950 96 976 l 96 50 q 108 12 96 24 q 146 0 119 0 l 361 0 m 247 125 l 247 875 l 690 875 l 690 861 l 261 861 l 261 464 l 578 464 l 578 450 l 261 450 l 261 125 l 247 125 z "},"G":{"ha":983,"x_min":67,"x_max":924,"o":"m 422 -14 q 153 60 240 -14 q 67 283 67 133 l 67 717 q 153 940 67 867 q 422 1014 240 1014 l 769 1014 q 818 999 803 1014 q 833 950 833 983 l 833 782 q 818 733 833 749 q 769 718 803 718 l 481 718 q 428 705 446 718 q 410 663 410 692 l 410 331 q 422 290 410 303 q 460 276 433 276 l 581 276 l 581 479 q 596 528 581 513 q 644 543 611 543 l 860 543 q 908 528 893 543 q 924 479 924 513 l 924 50 q 908 1 924 17 q 860 -14 893 -14 l 422 -14 m 860 0 q 898 12 886 0 q 910 50 910 24 l 910 479 q 898 517 910 506 q 860 529 886 529 l 644 529 q 606 517 618 529 q 594 479 594 506 l 594 263 l 460 263 q 412 279 428 263 q 396 331 396 296 l 396 663 q 417 715 396 697 q 481 732 438 732 l 769 732 q 808 744 796 732 q 819 782 819 756 l 819 950 q 808 988 819 976 q 769 1000 796 1000 l 422 1000 q 165 931 249 1000 q 81 717 81 861 l 81 283 q 165 69 81 139 q 422 0 249 0 l 860 0 m 482 125 q 357 135 406 125 q 281 166 308 144 q 242 222 253 188 q 232 304 232 256 l 232 693 q 276 833 232 792 q 454 875 321 875 l 694 875 l 694 861 l 454 861 q 289 823 332 861 q 246 693 246 785 l 246 304 q 294 176 246 214 q 482 139 342 139 l 744 139 l 744 404 l 758 404 l 758 125 l 482 125 z "},"Ĝ":{"ha":983,"x_min":67,"x_max":924,"o":"m 422 -14 q 153 60 240 -14 q 67 283 67 133 l 67 717 q 153 940 67 867 q 422 1014 240 1014 l 769 1014 q 818 999 803 1014 q 833 950 833 983 l 833 782 q 818 733 833 749 q 769 718 803 718 l 481 718 q 428 705 446 718 q 410 663 410 692 l 410 331 q 422 290 410 303 q 460 276 433 276 l 581 276 l 581 479 q 596 528 581 513 q 644 543 611 543 l 860 543 q 908 528 893 543 q 924 479 924 513 l 924 50 q 908 1 924 17 q 860 -14 893 -14 l 422 -14 m 860 0 q 898 12 886 0 q 910 50 910 24 l 910 479 q 898 517 910 506 q 860 529 886 529 l 644 529 q 606 517 618 529 q 594 479 594 506 l 594 263 l 460 263 q 412 279 428 263 q 396 331 396 296 l 396 663 q 417 715 396 697 q 481 732 438 732 l 769 732 q 808 744 796 732 q 819 782 819 756 l 819 950 q 808 988 819 976 q 769 1000 796 1000 l 422 1000 q 165 931 249 1000 q 81 717 81 861 l 81 283 q 165 69 81 139 q 422 0 249 0 l 860 0 m 482 125 q 357 135 406 125 q 281 166 308 144 q 242 222 253 188 q 232 304 232 256 l 232 693 q 276 833 232 792 q 454 875 321 875 l 694 875 l 694 861 l 454 861 q 289 823 332 861 q 246 693 246 785 l 246 304 q 294 176 246 214 q 482 139 342 139 l 744 139 l 744 404 l 758 404 l 758 125 l 482 125 m 693 1181 l 572 1219 q 552 1225 563 1222 q 528 1228 542 1228 q 503 1225 514 1228 q 483 1219 493 1222 l 363 1181 l 363 1196 l 478 1233 q 501 1239 490 1236 q 528 1242 513 1242 q 554 1239 543 1242 q 578 1233 565 1236 l 693 1196 l 693 1181 m 485 1107 q 528 1113 508 1113 q 571 1107 547 1113 l 761 1051 q 808 1049 797 1040 q 819 1094 819 1057 l 819 1207 q 808 1256 819 1244 q 761 1281 796 1267 l 571 1350 q 550 1356 561 1354 q 526 1357 539 1357 q 499 1353 514 1356 q 472 1344 485 1350 l 294 1281 q 249 1256 261 1267 q 238 1207 238 1244 l 238 1094 q 249 1049 238 1057 q 294 1051 260 1040 l 485 1107 m 299 1038 q 238 1034 253 1024 q 224 1094 224 1044 l 224 1207 q 238 1264 224 1250 q 290 1293 251 1278 l 467 1357 q 497 1366 481 1363 q 526 1371 513 1369 q 553 1369 540 1371 q 575 1363 565 1368 l 767 1293 q 821 1264 808 1278 q 833 1207 833 1250 l 833 1094 q 819 1035 833 1046 q 757 1038 804 1024 l 567 1093 q 528 1099 544 1099 q 489 1093 511 1099 l 299 1038 z "},"Ğ":{"ha":983,"x_min":67,"x_max":924,"o":"m 422 -14 q 153 60 240 -14 q 67 283 67 133 l 67 717 q 153 940 67 867 q 422 1014 240 1014 l 769 1014 q 818 999 803 1014 q 833 950 833 983 l 833 782 q 818 733 833 749 q 769 718 803 718 l 481 718 q 428 705 446 718 q 410 663 410 692 l 410 331 q 422 290 410 303 q 460 276 433 276 l 581 276 l 581 479 q 596 528 581 513 q 644 543 611 543 l 860 543 q 908 528 893 543 q 924 479 924 513 l 924 50 q 908 1 924 17 q 860 -14 893 -14 l 422 -14 m 860 0 q 898 12 886 0 q 910 50 910 24 l 910 479 q 898 517 910 506 q 860 529 886 529 l 644 529 q 606 517 618 529 q 594 479 594 506 l 594 263 l 460 263 q 412 279 428 263 q 396 331 396 296 l 396 663 q 417 715 396 697 q 481 732 438 732 l 769 732 q 808 744 796 732 q 819 782 819 756 l 819 950 q 808 988 819 976 q 769 1000 796 1000 l 422 1000 q 165 931 249 1000 q 81 717 81 861 l 81 283 q 165 69 81 139 q 422 0 249 0 l 860 0 m 482 125 q 357 135 406 125 q 281 166 308 144 q 242 222 253 188 q 232 304 232 256 l 232 693 q 276 833 232 792 q 454 875 321 875 l 694 875 l 694 861 l 454 861 q 289 823 332 861 q 246 693 246 785 l 246 304 q 294 176 246 214 q 482 139 342 139 l 744 139 l 744 404 l 758 404 l 758 125 l 482 125 m 835 1307 l 835 1246 q 822 1160 835 1200 q 774 1093 808 1121 q 677 1049 739 1065 q 519 1033 615 1033 q 362 1049 424 1033 q 265 1093 300 1065 q 217 1160 231 1121 q 204 1246 204 1200 l 204 1307 q 219 1356 204 1340 q 268 1371 235 1371 l 401 1371 q 443 1359 431 1371 q 456 1314 456 1347 l 456 1285 q 471 1260 456 1268 q 521 1253 486 1253 q 573 1260 557 1253 q 589 1285 589 1268 l 589 1314 q 601 1359 589 1347 q 644 1371 614 1371 l 771 1371 q 819 1356 804 1371 q 835 1307 835 1340 m 821 1246 l 821 1307 q 809 1345 821 1333 q 771 1357 797 1357 l 644 1357 q 612 1348 621 1357 q 603 1314 603 1339 l 603 1285 q 588 1252 603 1265 q 521 1239 572 1239 q 456 1252 469 1239 q 442 1285 442 1265 l 442 1314 q 433 1348 442 1339 q 401 1357 424 1357 l 268 1357 q 230 1345 242 1357 q 218 1307 218 1333 l 218 1246 q 231 1165 218 1201 q 278 1102 244 1128 q 371 1062 313 1076 q 519 1047 429 1047 q 668 1062 610 1047 q 760 1102 726 1076 q 808 1165 794 1128 q 821 1246 821 1201 m 706 1260 l 719 1260 l 719 1247 q 712 1208 719 1228 q 683 1172 704 1188 q 622 1146 663 1156 q 518 1136 582 1136 q 415 1146 454 1136 q 356 1172 376 1156 q 330 1208 336 1188 q 324 1247 324 1228 l 324 1260 l 338 1260 l 338 1247 q 372 1180 338 1210 q 518 1150 406 1150 q 668 1180 631 1150 q 706 1247 706 1210 l 706 1260 z "},"Ġ":{"ha":983,"x_min":67,"x_max":924,"o":"m 422 -14 q 153 60 240 -14 q 67 283 67 133 l 67 717 q 153 940 67 867 q 422 1014 240 1014 l 769 1014 q 818 999 803 1014 q 833 950 833 983 l 833 782 q 818 733 833 749 q 769 718 803 718 l 481 718 q 428 705 446 718 q 410 663 410 692 l 410 331 q 422 290 410 303 q 460 276 433 276 l 581 276 l 581 479 q 596 528 581 513 q 644 543 611 543 l 860 543 q 908 528 893 543 q 924 479 924 513 l 924 50 q 908 1 924 17 q 860 -14 893 -14 l 422 -14 m 860 0 q 898 12 886 0 q 910 50 910 24 l 910 479 q 898 517 910 506 q 860 529 886 529 l 644 529 q 606 517 618 529 q 594 479 594 506 l 594 263 l 460 263 q 412 279 428 263 q 396 331 396 296 l 396 663 q 417 715 396 697 q 481 732 438 732 l 769 732 q 808 744 796 732 q 819 782 819 756 l 819 950 q 808 988 819 976 q 769 1000 796 1000 l 422 1000 q 165 931 249 1000 q 81 717 81 861 l 81 283 q 165 69 81 139 q 422 0 249 0 l 860 0 m 482 125 q 357 135 406 125 q 281 166 308 144 q 242 222 253 188 q 232 304 232 256 l 232 693 q 276 833 232 792 q 454 875 321 875 l 694 875 l 694 861 l 454 861 q 289 823 332 861 q 246 693 246 785 l 246 304 q 294 176 246 214 q 482 139 342 139 l 744 139 l 744 404 l 758 404 l 758 125 l 482 125 m 694 1106 q 679 1057 694 1072 q 631 1042 664 1042 l 411 1042 q 363 1057 378 1042 q 347 1106 347 1072 l 347 1282 q 363 1331 347 1315 q 411 1346 378 1346 l 631 1346 q 679 1331 664 1346 q 694 1282 694 1315 l 694 1106 m 631 1056 q 669 1067 657 1056 q 681 1106 681 1079 l 681 1282 q 669 1320 681 1308 q 631 1332 657 1332 l 411 1332 q 373 1320 385 1332 q 361 1282 361 1308 l 361 1106 q 373 1067 361 1079 q 411 1056 385 1056 l 631 1056 m 528 1153 l 514 1153 l 514 1235 l 528 1235 l 528 1153 z "},"Ģ":{"ha":983,"x_min":67,"x_max":924,"o":"m 422 -14 q 153 60 240 -14 q 67 283 67 133 l 67 717 q 153 940 67 867 q 422 1014 240 1014 l 769 1014 q 818 999 803 1014 q 833 950 833 983 l 833 782 q 818 733 833 749 q 769 718 803 718 l 481 718 q 428 705 446 718 q 410 663 410 692 l 410 331 q 422 290 410 303 q 460 276 433 276 l 581 276 l 581 479 q 596 528 581 513 q 644 543 611 543 l 860 543 q 908 528 893 543 q 924 479 924 513 l 924 50 q 908 1 924 17 q 860 -14 893 -14 l 422 -14 m 860 0 q 898 12 886 0 q 910 50 910 24 l 910 479 q 898 517 910 506 q 860 529 886 529 l 644 529 q 606 517 618 529 q 594 479 594 506 l 594 263 l 460 263 q 412 279 428 263 q 396 331 396 296 l 396 663 q 417 715 396 697 q 481 732 438 732 l 769 732 q 808 744 796 732 q 819 782 819 756 l 819 950 q 808 988 819 976 q 769 1000 796 1000 l 422 1000 q 165 931 249 1000 q 81 717 81 861 l 81 283 q 165 69 81 139 q 422 0 249 0 l 860 0 m 482 125 q 357 135 406 125 q 281 166 308 144 q 242 222 253 188 q 232 304 232 256 l 232 693 q 276 833 232 792 q 454 875 321 875 l 694 875 l 694 861 l 454 861 q 289 823 332 861 q 246 693 246 785 l 246 304 q 294 176 246 214 q 482 139 342 139 l 744 139 l 744 404 l 758 404 l 758 125 l 482 125 m 415 -517 q 373 -503 386 -517 q 360 -460 360 -490 l 360 -412 q 373 -370 360 -383 q 415 -357 386 -357 l 497 -357 q 511 -351 507 -357 q 515 -337 515 -346 l 515 -333 l 410 -333 q 359 -319 374 -333 q 344 -265 344 -304 l 344 -114 q 359 -60 344 -75 q 410 -46 374 -46 l 629 -46 q 680 -60 665 -46 q 694 -114 694 -75 l 694 -325 q 643 -469 694 -421 q 507 -517 592 -517 l 415 -517 m 507 -503 q 633 -458 586 -503 q 681 -325 681 -414 l 681 -114 q 669 -72 681 -83 q 629 -60 658 -60 l 410 -60 q 369 -72 381 -60 q 358 -114 358 -83 l 358 -265 q 369 -308 358 -296 q 410 -319 381 -319 l 529 -319 l 529 -337 q 521 -362 529 -353 q 497 -371 513 -371 l 415 -371 q 383 -381 393 -371 q 374 -412 374 -390 l 374 -460 q 383 -492 374 -482 q 415 -503 393 -503 l 507 -503 m 601 -183 l 601 -318 q 572 -410 601 -382 q 486 -437 542 -437 l 438 -437 l 438 -424 l 486 -424 q 562 -399 536 -424 q 588 -318 588 -374 l 588 -197 l 438 -197 l 438 -183 l 601 -183 z "},"H":{"ha":1054,"x_min":82,"x_max":972,"o":"m 246 125 l 246 875 l 260 875 l 260 507 l 793 507 l 793 875 l 807 875 l 807 125 l 793 125 l 793 493 l 260 493 l 260 125 l 246 125 m 361 0 q 399 12 388 0 q 411 50 411 24 l 411 358 l 643 358 l 643 50 q 655 12 643 24 q 693 0 667 0 l 908 0 q 947 12 935 0 q 958 50 958 24 l 958 950 q 947 988 958 976 q 908 1000 935 1000 l 693 1000 q 655 988 667 1000 q 643 950 643 976 l 643 649 l 411 649 l 411 950 q 399 988 411 976 q 361 1000 388 1000 l 146 1000 q 108 988 119 1000 q 96 950 96 976 l 96 50 q 108 12 96 24 q 146 0 119 0 l 361 0 m 146 -14 q 97 1 113 -14 q 82 50 82 17 l 82 950 q 97 999 82 983 q 146 1014 113 1014 l 361 1014 q 410 999 394 1014 q 425 950 425 983 l 425 663 l 629 663 l 629 950 q 644 999 629 983 q 693 1014 660 1014 l 908 1014 q 957 999 942 1014 q 972 950 972 983 l 972 50 q 957 1 972 17 q 908 -14 942 -14 l 693 -14 q 644 1 660 -14 q 629 50 629 17 l 629 344 l 425 344 l 425 50 q 410 1 425 17 q 361 -14 394 -14 l 146 -14 z "},"Ĥ":{"ha":1054,"x_min":82,"x_max":972,"o":"m 246 125 l 246 875 l 260 875 l 260 507 l 793 507 l 793 875 l 807 875 l 807 125 l 793 125 l 793 493 l 260 493 l 260 125 l 246 125 m 361 0 q 399 12 388 0 q 411 50 411 24 l 411 358 l 643 358 l 643 50 q 655 12 643 24 q 693 0 667 0 l 908 0 q 947 12 935 0 q 958 50 958 24 l 958 950 q 947 988 958 976 q 908 1000 935 1000 l 693 1000 q 655 988 667 1000 q 643 950 643 976 l 643 649 l 411 649 l 411 950 q 399 988 411 976 q 361 1000 388 1000 l 146 1000 q 108 988 119 1000 q 96 950 96 976 l 96 50 q 108 12 96 24 q 146 0 119 0 l 361 0 m 146 -14 q 97 1 113 -14 q 82 50 82 17 l 82 950 q 97 999 82 983 q 146 1014 113 1014 l 361 1014 q 410 999 394 1014 q 425 950 425 983 l 425 663 l 629 663 l 629 950 q 644 999 629 983 q 693 1014 660 1014 l 908 1014 q 957 999 942 1014 q 972 950 972 983 l 972 50 q 957 1 972 17 q 908 -14 942 -14 l 693 -14 q 644 1 660 -14 q 629 50 629 17 l 629 344 l 425 344 l 425 50 q 410 1 425 17 q 361 -14 394 -14 l 146 -14 m 690 1181 l 569 1219 q 549 1225 560 1222 q 525 1228 539 1228 q 501 1225 511 1228 q 481 1219 490 1222 l 360 1181 l 360 1196 l 475 1233 q 499 1239 488 1236 q 525 1242 510 1242 q 551 1239 540 1242 q 575 1233 563 1236 l 690 1196 l 690 1181 m 482 1107 q 525 1113 506 1113 q 568 1107 544 1113 l 758 1051 q 806 1049 794 1040 q 817 1094 817 1057 l 817 1207 q 805 1256 817 1244 q 758 1281 793 1267 l 568 1350 q 547 1356 558 1354 q 524 1357 536 1357 q 497 1353 511 1356 q 469 1344 482 1350 l 292 1281 q 247 1256 258 1267 q 235 1207 235 1244 l 235 1094 q 246 1049 235 1057 q 292 1051 257 1040 l 482 1107 m 296 1038 q 235 1034 250 1024 q 221 1094 221 1044 l 221 1207 q 235 1264 221 1250 q 288 1293 249 1278 l 464 1357 q 494 1366 478 1363 q 524 1371 510 1369 q 550 1369 538 1371 q 572 1363 563 1368 l 764 1293 q 818 1264 806 1278 q 831 1207 831 1250 l 831 1094 q 816 1035 831 1046 q 754 1038 801 1024 l 564 1093 q 525 1099 542 1099 q 486 1093 508 1099 l 296 1038 z "},"I":{"ha":840,"x_min":60,"x_max":779,"o":"m 124 -14 q 75 1 90 -14 q 60 50 60 17 l 60 215 q 75 264 60 249 q 124 279 90 279 l 247 279 l 247 718 l 124 718 q 75 733 90 718 q 60 782 60 749 l 60 950 q 75 999 60 983 q 124 1014 90 1014 l 715 1014 q 764 999 749 1014 q 779 950 779 983 l 779 782 q 764 733 779 749 q 715 718 749 718 l 594 718 l 594 279 l 715 279 q 764 264 749 279 q 779 215 779 249 l 779 50 q 764 1 779 17 q 715 -14 749 -14 l 124 -14 m 124 0 l 715 0 q 753 12 742 0 q 765 50 765 24 l 765 215 q 753 253 765 242 q 715 265 742 265 l 581 265 l 581 732 l 715 732 q 753 744 742 732 q 765 782 765 756 l 765 950 q 753 988 765 976 q 715 1000 742 1000 l 124 1000 q 85 988 97 1000 q 74 950 74 976 l 74 782 q 85 744 74 756 q 124 732 97 732 l 261 732 l 261 265 l 124 265 q 85 253 97 265 q 74 215 74 242 l 74 50 q 85 12 74 24 q 124 0 97 0 m 640 125 l 199 125 l 199 139 l 414 139 l 414 861 l 199 861 l 199 875 l 640 875 l 640 861 l 428 861 l 428 139 l 640 139 l 640 125 z "},"Ì":{"ha":840,"x_min":60,"x_max":779,"o":"m 124 -14 q 75 1 90 -14 q 60 50 60 17 l 60 215 q 75 264 60 249 q 124 279 90 279 l 247 279 l 247 718 l 124 718 q 75 733 90 718 q 60 782 60 749 l 60 950 q 75 999 60 983 q 124 1014 90 1014 l 715 1014 q 764 999 749 1014 q 779 950 779 983 l 779 782 q 764 733 779 749 q 715 718 749 718 l 594 718 l 594 279 l 715 279 q 764 264 749 279 q 779 215 779 249 l 779 50 q 764 1 779 17 q 715 -14 749 -14 l 124 -14 m 124 0 l 715 0 q 753 12 742 0 q 765 50 765 24 l 765 215 q 753 253 765 242 q 715 265 742 265 l 581 265 l 581 732 l 715 732 q 753 744 742 732 q 765 782 765 756 l 765 950 q 753 988 765 976 q 715 1000 742 1000 l 124 1000 q 85 988 97 1000 q 74 950 74 976 l 74 782 q 85 744 74 756 q 124 732 97 732 l 261 732 l 261 265 l 124 265 q 85 253 97 265 q 74 215 74 242 l 74 50 q 85 12 74 24 q 124 0 97 0 m 640 125 l 199 125 l 199 139 l 414 139 l 414 861 l 199 861 l 199 875 l 640 875 l 640 861 l 428 861 l 428 139 l 640 139 l 640 125 m 724 1092 q 708 1044 724 1060 q 661 1032 692 1028 l 176 1092 q 128 1110 143 1096 q 114 1156 114 1124 l 114 1289 q 130 1337 114 1321 q 176 1349 146 1353 l 661 1289 q 709 1271 694 1285 q 724 1225 724 1257 l 724 1092 m 663 1046 q 698 1056 686 1043 q 710 1092 710 1068 l 710 1225 q 698 1262 710 1251 q 660 1275 686 1272 l 175 1335 q 140 1325 151 1338 q 128 1289 128 1313 l 128 1156 q 140 1119 128 1129 q 178 1106 151 1108 l 663 1046 m 253 1204 l 253 1218 l 585 1176 l 585 1163 l 253 1204 z "},"Í":{"ha":840,"x_min":60,"x_max":779,"o":"m 124 -14 q 75 1 90 -14 q 60 50 60 17 l 60 215 q 75 264 60 249 q 124 279 90 279 l 247 279 l 247 718 l 124 718 q 75 733 90 718 q 60 782 60 749 l 60 950 q 75 999 60 983 q 124 1014 90 1014 l 715 1014 q 764 999 749 1014 q 779 950 779 983 l 779 782 q 764 733 779 749 q 715 718 749 718 l 594 718 l 594 279 l 715 279 q 764 264 749 279 q 779 215 779 249 l 779 50 q 764 1 779 17 q 715 -14 749 -14 l 124 -14 m 124 0 l 715 0 q 753 12 742 0 q 765 50 765 24 l 765 215 q 753 253 765 242 q 715 265 742 265 l 581 265 l 581 732 l 715 732 q 753 744 742 732 q 765 782 765 756 l 765 950 q 753 988 765 976 q 715 1000 742 1000 l 124 1000 q 85 988 97 1000 q 74 950 74 976 l 74 782 q 85 744 74 756 q 124 732 97 732 l 261 732 l 261 265 l 124 265 q 85 253 97 265 q 74 215 74 242 l 74 50 q 85 12 74 24 q 124 0 97 0 m 640 125 l 199 125 l 199 139 l 414 139 l 414 861 l 199 861 l 199 875 l 640 875 l 640 861 l 428 861 l 428 139 l 640 139 l 640 125 m 176 1032 q 130 1044 146 1028 q 114 1092 114 1060 l 114 1225 q 128 1271 114 1257 q 176 1289 143 1285 l 661 1349 q 708 1337 692 1353 q 724 1289 724 1321 l 724 1156 q 709 1110 724 1124 q 661 1092 694 1096 l 176 1032 m 660 1106 q 698 1119 686 1108 q 710 1156 710 1129 l 710 1289 q 698 1325 710 1313 q 663 1335 686 1338 l 178 1275 q 140 1262 151 1272 q 128 1225 128 1251 l 128 1092 q 140 1056 128 1068 q 175 1046 151 1043 l 660 1106 m 253 1176 l 585 1218 l 585 1204 l 253 1163 l 253 1176 z "},"Î":{"ha":840,"x_min":60,"x_max":779,"o":"m 124 -14 q 75 1 90 -14 q 60 50 60 17 l 60 215 q 75 264 60 249 q 124 279 90 279 l 247 279 l 247 718 l 124 718 q 75 733 90 718 q 60 782 60 749 l 60 950 q 75 999 60 983 q 124 1014 90 1014 l 715 1014 q 764 999 749 1014 q 779 950 779 983 l 779 782 q 764 733 779 749 q 715 718 749 718 l 594 718 l 594 279 l 715 279 q 764 264 749 279 q 779 215 779 249 l 779 50 q 764 1 779 17 q 715 -14 749 -14 l 124 -14 m 124 0 l 715 0 q 753 12 742 0 q 765 50 765 24 l 765 215 q 753 253 765 242 q 715 265 742 265 l 581 265 l 581 732 l 715 732 q 753 744 742 732 q 765 782 765 756 l 765 950 q 753 988 765 976 q 715 1000 742 1000 l 124 1000 q 85 988 97 1000 q 74 950 74 976 l 74 782 q 85 744 74 756 q 124 732 97 732 l 261 732 l 261 265 l 124 265 q 85 253 97 265 q 74 215 74 242 l 74 50 q 85 12 74 24 q 124 0 97 0 m 640 125 l 199 125 l 199 139 l 414 139 l 414 861 l 199 861 l 199 875 l 640 875 l 640 861 l 428 861 l 428 139 l 640 139 l 640 125 m 583 1181 l 463 1219 q 442 1225 453 1222 q 418 1228 432 1228 q 394 1225 404 1228 q 374 1219 383 1222 l 253 1181 l 253 1196 l 368 1233 q 392 1239 381 1236 q 418 1242 403 1242 q 444 1239 433 1242 q 468 1233 456 1236 l 583 1196 l 583 1181 m 375 1107 q 418 1113 399 1113 q 461 1107 438 1113 l 651 1051 q 699 1049 688 1040 q 710 1094 710 1057 l 710 1207 q 698 1256 710 1244 q 651 1281 686 1267 l 461 1350 q 440 1356 451 1354 q 417 1357 429 1357 q 390 1353 404 1356 q 363 1344 375 1350 l 185 1281 q 140 1256 151 1267 q 128 1207 128 1244 l 128 1094 q 139 1049 128 1057 q 185 1051 150 1040 l 375 1107 m 189 1038 q 128 1034 143 1024 q 114 1094 114 1044 l 114 1207 q 128 1264 114 1250 q 181 1293 142 1278 l 357 1357 q 387 1366 371 1363 q 417 1371 403 1369 q 443 1369 431 1371 q 465 1363 456 1368 l 657 1293 q 711 1264 699 1278 q 724 1207 724 1250 l 724 1094 q 709 1035 724 1046 q 647 1038 694 1024 l 457 1093 q 418 1099 435 1099 q 379 1093 401 1099 l 189 1038 z "},"Ï":{"ha":840,"x_min":60,"x_max":779,"o":"m 124 -14 q 75 1 90 -14 q 60 50 60 17 l 60 215 q 75 264 60 249 q 124 279 90 279 l 247 279 l 247 718 l 124 718 q 75 733 90 718 q 60 782 60 749 l 60 950 q 75 999 60 983 q 124 1014 90 1014 l 715 1014 q 764 999 749 1014 q 779 950 779 983 l 779 782 q 764 733 779 749 q 715 718 749 718 l 594 718 l 594 279 l 715 279 q 764 264 749 279 q 779 215 779 249 l 779 50 q 764 1 779 17 q 715 -14 749 -14 l 124 -14 m 124 0 l 715 0 q 753 12 742 0 q 765 50 765 24 l 765 215 q 753 253 765 242 q 715 265 742 265 l 581 265 l 581 732 l 715 732 q 753 744 742 732 q 765 782 765 756 l 765 950 q 753 988 765 976 q 715 1000 742 1000 l 124 1000 q 85 988 97 1000 q 74 950 74 976 l 74 782 q 85 744 74 756 q 124 732 97 732 l 261 732 l 261 265 l 124 265 q 85 253 97 265 q 74 215 74 242 l 74 50 q 85 12 74 24 q 124 0 97 0 m 640 125 l 199 125 l 199 139 l 414 139 l 414 861 l 199 861 l 199 875 l 640 875 l 640 861 l 428 861 l 428 139 l 640 139 l 640 125 m 393 1101 q 378 1056 393 1071 q 333 1042 364 1042 l 142 1042 q 96 1056 111 1042 q 81 1101 81 1071 l 81 1269 q 96 1315 81 1300 q 142 1329 111 1329 l 333 1329 q 378 1315 364 1329 q 393 1269 393 1300 l 393 1101 m 751 1101 q 737 1056 751 1071 q 692 1042 722 1042 l 500 1042 q 455 1056 469 1042 q 440 1101 440 1071 l 440 1269 q 455 1315 440 1300 q 500 1329 469 1329 l 692 1329 q 737 1315 722 1329 q 751 1269 751 1300 l 751 1101 m 333 1056 q 368 1067 357 1056 q 379 1101 379 1078 l 379 1269 q 368 1304 379 1293 q 333 1315 357 1315 l 142 1315 q 106 1304 118 1315 q 94 1269 94 1293 l 94 1101 q 106 1067 94 1078 q 142 1056 118 1056 l 333 1056 m 692 1056 q 726 1067 715 1056 q 738 1101 738 1078 l 738 1269 q 726 1304 738 1293 q 692 1315 715 1315 l 500 1315 q 465 1304 476 1315 q 454 1269 454 1293 l 454 1101 q 465 1067 454 1078 q 500 1056 476 1056 l 692 1056 m 244 1153 l 231 1153 l 231 1218 l 244 1218 l 244 1153 m 603 1153 l 589 1153 l 589 1218 l 603 1218 l 603 1153 z "},"Ĩ":{"ha":840,"x_min":60,"x_max":779,"o":"m 124 -14 q 75 1 90 -14 q 60 50 60 17 l 60 215 q 75 264 60 249 q 124 279 90 279 l 247 279 l 247 718 l 124 718 q 75 733 90 718 q 60 782 60 749 l 60 950 q 75 999 60 983 q 124 1014 90 1014 l 715 1014 q 764 999 749 1014 q 779 950 779 983 l 779 782 q 764 733 779 749 q 715 718 749 718 l 594 718 l 594 279 l 715 279 q 764 264 749 279 q 779 215 779 249 l 779 50 q 764 1 779 17 q 715 -14 749 -14 l 124 -14 m 124 0 l 715 0 q 753 12 742 0 q 765 50 765 24 l 765 215 q 753 253 765 242 q 715 265 742 265 l 581 265 l 581 732 l 715 732 q 753 744 742 732 q 765 782 765 756 l 765 950 q 753 988 765 976 q 715 1000 742 1000 l 124 1000 q 85 988 97 1000 q 74 950 74 976 l 74 782 q 85 744 74 756 q 124 732 97 732 l 261 732 l 261 265 l 124 265 q 85 253 97 265 q 74 215 74 242 l 74 50 q 85 12 74 24 q 124 0 97 0 m 640 125 l 199 125 l 199 139 l 414 139 l 414 861 l 199 861 l 199 875 l 640 875 l 640 861 l 428 861 l 428 139 l 640 139 l 640 125 m 663 1051 q 606 1037 629 1042 q 560 1032 582 1032 q 510 1035 538 1032 q 439 1044 482 1039 l 417 1047 l 378 1053 q 314 1060 339 1058 q 268 1060 289 1063 q 228 1053 247 1058 q 182 1040 208 1049 q 131 1043 147 1031 q 114 1090 114 1056 l 114 1231 q 128 1275 114 1261 q 172 1300 143 1289 l 174 1300 l 174 1301 q 230 1316 207 1311 q 276 1321 253 1321 q 326 1317 299 1321 q 396 1308 353 1314 l 419 1306 l 450 1301 q 521 1292 494 1294 q 567 1290 547 1289 q 606 1297 586 1292 q 654 1313 625 1303 q 706 1310 689 1322 q 722 1263 722 1297 l 722 1122 q 708 1078 722 1092 q 664 1053 693 1064 l 663 1053 l 663 1051 m 418 1061 l 440 1058 q 509 1049 482 1053 q 558 1046 536 1046 q 603 1051 581 1046 q 658 1065 625 1056 q 695 1085 682 1075 q 708 1122 708 1096 l 708 1263 q 696 1297 708 1289 q 658 1299 683 1306 q 608 1283 628 1289 q 569 1276 589 1278 q 522 1278 549 1275 q 449 1288 494 1281 l 418 1292 l 394 1294 q 326 1303 353 1300 q 277 1307 299 1307 q 233 1302 256 1307 q 178 1288 211 1297 q 141 1267 154 1278 q 128 1231 128 1257 l 128 1090 q 140 1056 128 1064 q 178 1054 153 1047 q 226 1067 206 1063 q 267 1074 246 1072 q 314 1074 288 1076 q 379 1067 340 1072 l 418 1061 m 583 1168 l 583 1154 q 524 1154 556 1151 q 439 1165 492 1157 l 417 1168 l 378 1174 q 303 1182 332 1181 q 253 1179 275 1183 l 253 1194 q 305 1195 276 1197 q 381 1188 333 1193 l 419 1182 l 442 1179 q 525 1168 494 1171 q 583 1168 556 1165 z "},"Ī":{"ha":840,"x_min":60,"x_max":779,"o":"m 124 -14 q 75 1 90 -14 q 60 50 60 17 l 60 215 q 75 264 60 249 q 124 279 90 279 l 247 279 l 247 718 l 124 718 q 75 733 90 718 q 60 782 60 749 l 60 950 q 75 999 60 983 q 124 1014 90 1014 l 715 1014 q 764 999 749 1014 q 779 950 779 983 l 779 782 q 764 733 779 749 q 715 718 749 718 l 594 718 l 594 279 l 715 279 q 764 264 749 279 q 779 215 779 249 l 779 50 q 764 1 779 17 q 715 -14 749 -14 l 124 -14 m 124 0 l 715 0 q 753 12 742 0 q 765 50 765 24 l 765 215 q 753 253 765 242 q 715 265 742 265 l 581 265 l 581 732 l 715 732 q 753 744 742 732 q 765 782 765 756 l 765 950 q 753 988 765 976 q 715 1000 742 1000 l 124 1000 q 85 988 97 1000 q 74 950 74 976 l 74 782 q 85 744 74 756 q 124 732 97 732 l 261 732 l 261 265 l 124 265 q 85 253 97 265 q 74 215 74 242 l 74 50 q 85 12 74 24 q 124 0 97 0 m 640 125 l 199 125 l 199 139 l 414 139 l 414 861 l 199 861 l 199 875 l 640 875 l 640 861 l 428 861 l 428 139 l 640 139 l 640 125 m 724 1106 q 708 1057 724 1072 q 660 1042 693 1042 l 178 1042 q 129 1057 144 1042 q 114 1106 114 1072 l 114 1235 q 129 1283 114 1268 q 178 1299 144 1299 l 660 1299 q 708 1283 693 1299 q 724 1235 724 1268 l 724 1106 m 660 1056 q 698 1067 686 1056 q 710 1106 710 1079 l 710 1235 q 698 1273 710 1261 q 660 1285 686 1285 l 178 1285 q 140 1273 151 1285 q 128 1235 128 1261 l 128 1106 q 140 1067 128 1079 q 178 1056 151 1056 l 660 1056 m 253 1176 l 585 1176 l 585 1163 l 253 1163 l 253 1176 z "},"Ĭ":{"ha":840,"x_min":60,"x_max":779,"o":"m 124 -14 q 75 1 90 -14 q 60 50 60 17 l 60 215 q 75 264 60 249 q 124 279 90 279 l 247 279 l 247 718 l 124 718 q 75 733 90 718 q 60 782 60 749 l 60 950 q 75 999 60 983 q 124 1014 90 1014 l 715 1014 q 764 999 749 1014 q 779 950 779 983 l 779 782 q 764 733 779 749 q 715 718 749 718 l 594 718 l 594 279 l 715 279 q 764 264 749 279 q 779 215 779 249 l 779 50 q 764 1 779 17 q 715 -14 749 -14 l 124 -14 m 124 0 l 715 0 q 753 12 742 0 q 765 50 765 24 l 765 215 q 753 253 765 242 q 715 265 742 265 l 581 265 l 581 732 l 715 732 q 753 744 742 732 q 765 782 765 756 l 765 950 q 753 988 765 976 q 715 1000 742 1000 l 124 1000 q 85 988 97 1000 q 74 950 74 976 l 74 782 q 85 744 74 756 q 124 732 97 732 l 261 732 l 261 265 l 124 265 q 85 253 97 265 q 74 215 74 242 l 74 50 q 85 12 74 24 q 124 0 97 0 m 640 125 l 199 125 l 199 139 l 414 139 l 414 861 l 199 861 l 199 875 l 640 875 l 640 861 l 428 861 l 428 139 l 640 139 l 640 125 m 735 1307 l 735 1246 q 722 1160 735 1200 q 674 1093 708 1121 q 577 1049 639 1065 q 419 1033 515 1033 q 262 1049 324 1033 q 165 1093 200 1065 q 117 1160 131 1121 q 104 1246 104 1200 l 104 1307 q 119 1356 104 1340 q 168 1371 135 1371 l 301 1371 q 343 1359 331 1371 q 356 1314 356 1347 l 356 1285 q 371 1260 356 1268 q 421 1253 386 1253 q 473 1260 457 1253 q 489 1285 489 1268 l 489 1314 q 501 1359 489 1347 q 544 1371 514 1371 l 671 1371 q 719 1356 704 1371 q 735 1307 735 1340 m 721 1246 l 721 1307 q 709 1345 721 1333 q 671 1357 697 1357 l 544 1357 q 512 1348 521 1357 q 503 1314 503 1339 l 503 1285 q 488 1252 503 1265 q 421 1239 472 1239 q 356 1252 369 1239 q 342 1285 342 1265 l 342 1314 q 333 1348 342 1339 q 301 1357 324 1357 l 168 1357 q 130 1345 142 1357 q 118 1307 118 1333 l 118 1246 q 131 1165 118 1201 q 178 1102 144 1128 q 271 1062 213 1076 q 419 1047 329 1047 q 568 1062 510 1047 q 660 1102 626 1076 q 708 1165 694 1128 q 721 1246 721 1201 m 606 1260 l 619 1260 l 619 1247 q 612 1208 619 1228 q 583 1172 604 1188 q 522 1146 563 1156 q 418 1136 482 1136 q 315 1146 354 1136 q 256 1172 276 1156 q 230 1208 236 1188 q 224 1247 224 1228 l 224 1260 l 238 1260 l 238 1247 q 272 1180 238 1210 q 418 1150 306 1150 q 568 1180 531 1150 q 606 1247 606 1210 l 606 1260 z "},"Į":{"ha":840,"x_min":60,"x_max":779,"o":"m 779 -211 q 767 -259 779 -246 q 719 -272 754 -272 l 565 -272 q 433 -224 469 -272 q 411 -68 396 -175 l 421 -14 l 124 -14 q 75 1 90 -14 q 60 50 60 17 l 60 215 q 75 264 60 249 q 124 279 90 279 l 247 279 l 247 718 l 124 718 q 75 733 90 718 q 60 782 60 749 l 60 950 q 75 999 60 983 q 124 1014 90 1014 l 715 1014 q 764 999 749 1014 q 779 950 779 983 l 779 782 q 764 733 779 749 q 715 718 749 718 l 594 718 l 594 279 l 715 279 q 764 264 749 279 q 779 215 779 249 l 779 50 q 764 1 779 17 q 715 -14 749 -14 l 681 -14 l 675 -50 l 715 -50 q 766 -63 753 -50 q 779 -111 779 -76 l 779 -211 m 719 -258 q 756 -248 746 -258 q 765 -211 765 -237 l 765 -111 q 755 -74 765 -85 q 715 -64 744 -64 l 658 -64 l 668 0 l 715 0 q 753 12 742 0 q 765 50 765 24 l 765 215 q 753 253 765 242 q 715 265 742 265 l 581 265 l 581 732 l 715 732 q 753 744 742 732 q 765 782 765 756 l 765 950 q 753 988 765 976 q 715 1000 742 1000 l 124 1000 q 85 988 97 1000 q 74 950 74 976 l 74 782 q 85 744 74 756 q 124 732 97 732 l 261 732 l 261 265 l 124 265 q 85 253 97 265 q 74 215 74 242 l 74 50 q 85 12 74 24 q 124 0 97 0 l 438 0 l 425 -71 q 444 -212 411 -167 q 565 -258 476 -258 l 719 -258 m 640 -147 l 640 -161 l 607 -161 q 542 -135 556 -161 q 536 -57 528 -108 l 553 58 q 563 99 557 85 q 586 125 569 113 l 199 125 l 199 139 l 414 139 l 414 861 l 199 861 l 199 875 l 640 875 l 640 861 l 428 861 l 428 139 l 640 139 l 640 125 l 613 125 q 578 100 586 111 q 567 58 571 89 l 550 -60 q 554 -124 544 -101 q 607 -147 564 -147 l 640 -147 z "},"İ":{"ha":840,"x_min":60,"x_max":779,"o":"m 124 -14 q 75 1 90 -14 q 60 50 60 17 l 60 215 q 75 264 60 249 q 124 279 90 279 l 247 279 l 247 718 l 124 718 q 75 733 90 718 q 60 782 60 749 l 60 950 q 75 999 60 983 q 124 1014 90 1014 l 715 1014 q 764 999 749 1014 q 779 950 779 983 l 779 782 q 764 733 779 749 q 715 718 749 718 l 594 718 l 594 279 l 715 279 q 764 264 749 279 q 779 215 779 249 l 779 50 q 764 1 779 17 q 715 -14 749 -14 l 124 -14 m 124 0 l 715 0 q 753 12 742 0 q 765 50 765 24 l 765 215 q 753 253 765 242 q 715 265 742 265 l 581 265 l 581 732 l 715 732 q 753 744 742 732 q 765 782 765 756 l 765 950 q 753 988 765 976 q 715 1000 742 1000 l 124 1000 q 85 988 97 1000 q 74 950 74 976 l 74 782 q 85 744 74 756 q 124 732 97 732 l 261 732 l 261 265 l 124 265 q 85 253 97 265 q 74 215 74 242 l 74 50 q 85 12 74 24 q 124 0 97 0 m 640 125 l 199 125 l 199 139 l 414 139 l 414 861 l 199 861 l 199 875 l 640 875 l 640 861 l 428 861 l 428 139 l 640 139 l 640 125 m 594 1106 q 579 1057 594 1072 q 531 1042 564 1042 l 311 1042 q 263 1057 278 1042 q 247 1106 247 1072 l 247 1282 q 263 1331 247 1315 q 311 1346 278 1346 l 531 1346 q 579 1331 564 1346 q 594 1282 594 1315 l 594 1106 m 531 1056 q 569 1067 557 1056 q 581 1106 581 1079 l 581 1282 q 569 1320 581 1308 q 531 1332 557 1332 l 311 1332 q 273 1320 285 1332 q 261 1282 261 1308 l 261 1106 q 273 1067 261 1079 q 311 1056 285 1056 l 531 1056 m 428 1153 l 414 1153 l 414 1235 l 428 1235 l 428 1153 z "},"J":{"ha":956,"x_min":43,"x_max":881,"o":"m 881 950 l 881 263 q 863 142 881 197 q 799 49 846 88 q 670 -12 753 10 q 460 -35 588 -35 q 252 -12 333 -35 q 124 49 171 10 q 60 142 78 88 q 43 263 43 197 l 43 488 q 58 537 43 522 q 107 551 74 551 l 308 551 q 357 537 342 551 q 372 488 372 522 l 372 318 q 389 281 372 294 q 457 267 406 267 q 519 281 504 267 q 535 318 535 294 l 535 950 q 550 999 535 983 q 599 1014 565 1014 l 817 1014 q 865 999 850 1014 q 881 950 881 983 m 867 263 l 867 950 q 855 988 867 976 q 817 1000 843 1000 l 599 1000 q 560 988 572 1000 q 549 950 549 976 l 549 318 q 533 272 549 290 q 457 253 517 253 q 376 272 393 253 q 358 318 358 290 l 358 488 q 347 526 358 514 q 308 538 335 538 l 107 538 q 69 526 81 538 q 57 488 57 514 l 57 263 q 74 147 57 199 q 137 58 92 94 q 260 0 182 21 q 460 -21 339 -21 q 661 0 582 -21 q 785 58 740 21 q 849 147 831 94 q 867 263 867 199 m 700 875 l 714 875 l 714 296 q 662 161 714 214 q 463 108 610 108 q 334 122 385 108 q 254 160 283 136 q 213 219 225 185 q 201 296 201 254 l 201 406 l 215 406 l 215 296 q 267 169 215 217 q 463 122 319 122 q 650 170 600 122 q 700 296 700 218 l 700 875 z "},"Ĵ":{"ha":956,"x_min":43,"x_max":1001,"o":"m 881 950 l 881 263 q 863 142 881 197 q 799 49 846 88 q 670 -12 753 10 q 460 -35 588 -35 q 252 -12 333 -35 q 124 49 171 10 q 60 142 78 88 q 43 263 43 197 l 43 488 q 58 537 43 522 q 107 551 74 551 l 308 551 q 357 537 342 551 q 372 488 372 522 l 372 318 q 389 281 372 294 q 457 267 406 267 q 519 281 504 267 q 535 318 535 294 l 535 950 q 550 999 535 983 q 599 1014 565 1014 l 817 1014 q 865 999 850 1014 q 881 950 881 983 m 867 263 l 867 950 q 855 988 867 976 q 817 1000 843 1000 l 599 1000 q 560 988 572 1000 q 549 950 549 976 l 549 318 q 533 272 549 290 q 457 253 517 253 q 376 272 393 253 q 358 318 358 290 l 358 488 q 347 526 358 514 q 308 538 335 538 l 107 538 q 69 526 81 538 q 57 488 57 514 l 57 263 q 74 147 57 199 q 137 58 92 94 q 260 0 182 21 q 460 -21 339 -21 q 661 0 582 -21 q 785 58 740 21 q 849 147 831 94 q 867 263 867 199 m 700 875 l 714 875 l 714 296 q 662 161 714 214 q 463 108 610 108 q 334 122 385 108 q 254 160 283 136 q 213 219 225 185 q 201 296 201 254 l 201 406 l 215 406 l 215 296 q 267 169 215 217 q 463 122 319 122 q 650 170 600 122 q 700 296 700 218 l 700 875 m 861 1181 l 740 1219 q 720 1225 731 1222 q 696 1228 710 1228 q 672 1225 682 1228 q 651 1219 661 1222 l 531 1181 l 531 1196 l 646 1233 q 669 1239 658 1236 q 696 1242 681 1242 q 722 1239 711 1242 q 746 1233 733 1236 l 861 1196 l 861 1181 m 653 1107 q 696 1113 676 1113 q 739 1107 715 1113 l 929 1051 q 976 1049 965 1040 q 988 1094 988 1057 l 988 1207 q 976 1256 988 1244 q 929 1281 964 1267 l 739 1350 q 718 1356 729 1354 q 694 1357 707 1357 q 667 1353 682 1356 q 640 1344 653 1350 l 463 1281 q 417 1256 429 1267 q 406 1207 406 1244 l 406 1094 q 417 1049 406 1057 q 463 1051 428 1040 l 653 1107 m 467 1038 q 406 1034 421 1024 q 392 1094 392 1044 l 392 1207 q 406 1264 392 1250 q 458 1293 419 1278 l 635 1357 q 665 1366 649 1363 q 694 1371 681 1369 q 721 1369 708 1371 q 743 1363 733 1368 l 935 1293 q 989 1264 976 1278 q 1001 1207 1001 1250 l 1001 1094 q 987 1035 1001 1046 q 925 1038 972 1024 l 735 1093 q 696 1099 713 1099 q 657 1093 679 1099 l 467 1038 z "},"K":{"ha":1036,"x_min":82,"x_max":967,"o":"m 261 125 l 247 125 l 247 875 l 261 875 l 261 506 l 563 506 l 722 875 l 738 875 l 578 506 l 635 506 q 761 474 719 506 q 803 369 803 442 l 803 125 l 789 125 l 789 369 q 750 464 789 436 q 635 492 711 492 l 261 492 l 261 125 m 361 0 q 399 12 388 0 q 411 50 411 24 l 411 368 l 594 368 q 628 356 617 368 q 639 321 639 343 l 639 50 q 651 12 639 24 q 689 0 663 0 l 903 0 q 941 12 929 0 q 953 50 953 24 l 953 442 q 906 576 953 525 q 782 631 860 626 l 924 954 q 925 988 933 976 q 893 1000 917 1000 l 679 1000 q 636 990 653 1000 q 610 954 619 979 l 467 631 l 411 631 l 411 950 q 399 988 411 976 q 361 1000 388 1000 l 146 1000 q 108 988 119 1000 q 96 950 96 976 l 96 50 q 108 12 96 24 q 146 0 119 0 l 361 0 m 361 -14 l 146 -14 q 97 1 113 -14 q 82 50 82 17 l 82 950 q 97 999 82 983 q 146 1014 113 1014 l 361 1014 q 410 999 394 1014 q 425 950 425 983 l 425 644 l 458 644 l 597 960 q 628 1001 610 989 q 679 1014 647 1014 l 893 1014 q 939 997 928 1014 q 936 949 950 979 l 803 643 q 922 579 878 633 q 967 442 967 525 l 967 50 q 951 1 967 17 q 903 -14 936 -14 l 689 -14 q 640 1 656 -14 q 625 50 625 17 l 625 321 q 617 345 625 336 q 594 354 610 354 l 425 354 l 425 50 q 410 1 425 17 q 361 -14 394 -14 z "},"Ķ":{"ha":1036,"x_min":82,"x_max":967,"o":"m 261 125 l 247 125 l 247 875 l 261 875 l 261 506 l 563 506 l 722 875 l 738 875 l 578 506 l 635 506 q 761 474 719 506 q 803 369 803 442 l 803 125 l 789 125 l 789 369 q 750 464 789 436 q 635 492 711 492 l 261 492 l 261 125 m 361 0 q 399 12 388 0 q 411 50 411 24 l 411 368 l 594 368 q 628 356 617 368 q 639 321 639 343 l 639 50 q 651 12 639 24 q 689 0 663 0 l 903 0 q 941 12 929 0 q 953 50 953 24 l 953 442 q 906 576 953 525 q 782 631 860 626 l 924 954 q 925 988 933 976 q 893 1000 917 1000 l 679 1000 q 636 990 653 1000 q 610 954 619 979 l 467 631 l 411 631 l 411 950 q 399 988 411 976 q 361 1000 388 1000 l 146 1000 q 108 988 119 1000 q 96 950 96 976 l 96 50 q 108 12 96 24 q 146 0 119 0 l 361 0 m 361 -14 l 146 -14 q 97 1 113 -14 q 82 50 82 17 l 82 950 q 97 999 82 983 q 146 1014 113 1014 l 361 1014 q 410 999 394 1014 q 425 950 425 983 l 425 644 l 458 644 l 597 960 q 628 1001 610 989 q 679 1014 647 1014 l 893 1014 q 939 997 928 1014 q 936 949 950 979 l 803 643 q 922 579 878 633 q 967 442 967 525 l 967 50 q 951 1 967 17 q 903 -14 936 -14 l 689 -14 q 640 1 656 -14 q 625 50 625 17 l 625 321 q 617 345 625 336 q 594 354 610 354 l 425 354 l 425 50 q 410 1 425 17 q 361 -14 394 -14 m 414 -517 q 372 -503 385 -517 q 358 -460 358 -490 l 358 -412 q 372 -370 358 -383 q 414 -357 385 -357 l 496 -357 q 510 -351 506 -357 q 514 -337 514 -346 l 514 -333 l 408 -333 q 358 -319 372 -333 q 343 -265 343 -304 l 343 -114 q 358 -60 343 -75 q 408 -46 372 -46 l 628 -46 q 678 -60 664 -46 q 693 -114 693 -75 l 693 -325 q 642 -469 693 -421 q 506 -517 590 -517 l 414 -517 m 506 -503 q 632 -458 585 -503 q 679 -325 679 -414 l 679 -114 q 668 -72 679 -83 q 628 -60 657 -60 l 408 -60 q 368 -72 379 -60 q 357 -114 357 -83 l 357 -265 q 368 -308 357 -296 q 408 -319 379 -319 l 528 -319 l 528 -337 q 519 -362 528 -353 q 496 -371 511 -371 l 414 -371 q 382 -381 392 -371 q 372 -412 372 -390 l 372 -460 q 382 -492 372 -482 q 414 -503 392 -503 l 506 -503 m 600 -183 l 600 -318 q 570 -410 600 -382 q 485 -437 540 -437 l 436 -437 l 436 -424 l 485 -424 q 560 -399 535 -424 q 586 -318 586 -374 l 586 -197 l 436 -197 l 436 -183 l 600 -183 z "},"L":{"ha":965,"x_min":82,"x_max":917,"o":"m 146 -14 q 97 1 113 -14 q 82 50 82 17 l 82 950 q 97 999 82 983 q 146 1014 113 1014 l 361 1014 q 410 999 394 1014 q 425 950 425 983 l 425 276 l 588 276 l 588 488 q 603 536 588 521 q 651 551 618 551 l 853 551 q 901 536 886 551 q 917 488 917 521 l 917 50 q 901 1 917 17 q 853 -14 886 -14 l 146 -14 m 853 0 q 891 12 879 0 q 903 50 903 24 l 903 488 q 891 526 903 514 q 853 538 879 538 l 651 538 q 613 526 625 538 q 601 488 601 514 l 601 263 l 411 263 l 411 950 q 399 988 411 976 q 361 1000 388 1000 l 146 1000 q 108 988 119 1000 q 96 950 96 976 l 96 50 q 108 12 96 24 q 146 0 119 0 l 853 0 m 247 125 l 247 875 l 261 875 l 261 139 l 744 139 l 744 413 l 758 413 l 758 125 l 247 125 z "},"Ĺ":{"ha":965,"x_min":82,"x_max":917,"o":"m 146 -14 q 97 1 113 -14 q 82 50 82 17 l 82 950 q 97 999 82 983 q 146 1014 113 1014 l 361 1014 q 410 999 394 1014 q 425 950 425 983 l 425 276 l 588 276 l 588 488 q 603 536 588 521 q 651 551 618 551 l 853 551 q 901 536 886 551 q 917 488 917 521 l 917 50 q 901 1 917 17 q 853 -14 886 -14 l 146 -14 m 853 0 q 891 12 879 0 q 903 50 903 24 l 903 488 q 891 526 903 514 q 853 538 879 538 l 651 538 q 613 526 625 538 q 601 488 601 514 l 601 263 l 411 263 l 411 950 q 399 988 411 976 q 361 1000 388 1000 l 146 1000 q 108 988 119 1000 q 96 950 96 976 l 96 50 q 108 12 96 24 q 146 0 119 0 l 853 0 m 247 125 l 247 875 l 261 875 l 261 139 l 744 139 l 744 413 l 758 413 l 758 125 l 247 125 m 144 1032 q 98 1044 114 1028 q 82 1092 82 1060 l 82 1225 q 97 1271 82 1257 q 144 1289 111 1285 l 629 1349 q 676 1337 660 1353 q 692 1289 692 1321 l 692 1156 q 677 1110 692 1124 q 629 1092 663 1096 l 144 1032 m 628 1106 q 666 1119 654 1108 q 678 1156 678 1129 l 678 1289 q 666 1325 678 1313 q 631 1335 654 1338 l 146 1275 q 108 1262 119 1272 q 96 1225 96 1251 l 96 1092 q 108 1056 96 1068 q 143 1046 119 1043 l 628 1106 m 221 1176 l 553 1218 l 553 1204 l 221 1163 l 221 1176 z "},"Ļ":{"ha":965,"x_min":82,"x_max":917,"o":"m 146 -14 q 97 1 113 -14 q 82 50 82 17 l 82 950 q 97 999 82 983 q 146 1014 113 1014 l 361 1014 q 410 999 394 1014 q 425 950 425 983 l 425 276 l 588 276 l 588 488 q 603 536 588 521 q 651 551 618 551 l 853 551 q 901 536 886 551 q 917 488 917 521 l 917 50 q 901 1 917 17 q 853 -14 886 -14 l 146 -14 m 853 0 q 891 12 879 0 q 903 50 903 24 l 903 488 q 891 526 903 514 q 853 538 879 538 l 651 538 q 613 526 625 538 q 601 488 601 514 l 601 263 l 411 263 l 411 950 q 399 988 411 976 q 361 1000 388 1000 l 146 1000 q 108 988 119 1000 q 96 950 96 976 l 96 50 q 108 12 96 24 q 146 0 119 0 l 853 0 m 247 125 l 247 875 l 261 875 l 261 139 l 744 139 l 744 413 l 758 413 l 758 125 l 247 125 m 401 -517 q 359 -503 372 -517 q 346 -460 346 -490 l 346 -412 q 359 -370 346 -383 q 401 -357 372 -357 l 483 -357 q 497 -351 493 -357 q 501 -337 501 -346 l 501 -333 l 396 -333 q 345 -319 360 -333 q 331 -265 331 -304 l 331 -114 q 345 -60 331 -75 q 396 -46 360 -46 l 615 -46 q 666 -60 651 -46 q 681 -114 681 -75 l 681 -325 q 629 -469 681 -421 q 493 -517 578 -517 l 401 -517 m 493 -503 q 619 -458 572 -503 q 667 -325 667 -414 l 667 -114 q 656 -72 667 -83 q 615 -60 644 -60 l 396 -60 q 356 -72 367 -60 q 344 -114 344 -83 l 344 -265 q 356 -308 344 -296 q 396 -319 367 -319 l 515 -319 l 515 -337 q 507 -362 515 -353 q 483 -371 499 -371 l 401 -371 q 369 -381 379 -371 q 360 -412 360 -390 l 360 -460 q 369 -492 360 -482 q 401 -503 379 -503 l 493 -503 m 588 -183 l 588 -318 q 558 -410 588 -382 q 472 -437 528 -437 l 424 -437 l 424 -424 l 472 -424 q 548 -399 522 -424 q 574 -318 574 -374 l 574 -197 l 424 -197 l 424 -183 l 588 -183 z "},"Ľ":{"ha":965,"x_min":82,"x_max":917,"o":"m 146 -14 q 97 1 113 -14 q 82 50 82 17 l 82 950 q 97 999 82 983 q 146 1014 113 1014 l 361 1014 q 410 999 394 1014 q 425 950 425 983 l 425 276 l 588 276 l 588 488 q 603 536 588 521 q 651 551 618 551 l 853 551 q 901 536 886 551 q 917 488 917 521 l 917 50 q 901 1 917 17 q 853 -14 886 -14 l 146 -14 m 853 0 q 891 12 879 0 q 903 50 903 24 l 903 488 q 891 526 903 514 q 853 538 879 538 l 651 538 q 613 526 625 538 q 601 488 601 514 l 601 263 l 411 263 l 411 950 q 399 988 411 976 q 361 1000 388 1000 l 146 1000 q 108 988 119 1000 q 96 950 96 976 l 96 50 q 108 12 96 24 q 146 0 119 0 l 853 0 m 247 125 l 247 875 l 261 875 l 261 139 l 744 139 l 744 413 l 758 413 l 758 125 l 247 125 m 842 675 q 822 628 833 643 q 778 614 810 614 l 606 614 q 553 631 571 614 q 542 681 536 647 l 588 953 q 606 999 593 985 q 651 1014 619 1014 l 843 1014 q 896 996 878 1014 q 907 947 914 978 l 842 675 m 778 628 q 813 640 804 628 q 828 678 822 653 l 893 950 q 884 988 899 975 q 843 1000 869 1000 l 651 1000 q 615 988 625 1000 q 601 950 606 976 l 556 678 q 565 640 551 651 q 606 628 579 628 l 778 628 m 714 746 l 699 746 l 724 875 l 739 875 l 714 746 z "},"M":{"ha":1179,"x_min":82,"x_max":1097,"o":"m 585 535 q 621 546 610 535 q 656 593 632 557 l 825 851 q 844 870 833 865 q 865 875 854 875 l 889 875 q 917 865 908 875 q 926 832 926 854 l 926 125 l 913 125 l 913 832 q 908 852 913 843 q 889 861 903 861 l 868 861 q 851 858 858 861 q 836 842 844 856 l 667 586 q 628 535 642 549 q 585 521 615 521 q 541 535 554 521 q 503 586 528 549 l 333 842 q 317 858 325 856 q 300 861 310 861 l 279 861 q 261 852 265 861 q 257 832 257 843 l 257 125 l 243 125 l 243 832 q 252 865 243 854 q 279 875 261 875 l 303 875 q 325 870 314 875 q 344 851 336 865 l 514 593 q 549 546 538 557 q 585 535 560 535 m 353 0 q 391 12 379 0 q 403 50 403 24 l 403 539 l 485 388 q 515 353 497 364 q 558 343 532 343 l 614 343 q 658 353 640 343 q 688 388 675 364 l 769 539 l 769 50 q 781 12 769 24 q 819 0 793 0 l 1033 0 q 1072 12 1060 0 q 1083 50 1083 24 l 1083 950 q 1072 988 1083 976 q 1033 1000 1060 1000 l 808 1000 q 772 990 786 1000 q 744 958 757 981 l 621 732 q 609 714 614 719 q 596 708 604 708 l 583 708 q 570 714 575 708 q 558 732 565 719 l 433 958 q 406 990 421 981 q 369 1000 392 1000 l 146 1000 q 108 988 119 1000 q 96 950 96 976 l 96 50 q 108 12 96 24 q 146 0 119 0 l 353 0 m 353 -14 l 146 -14 q 97 1 113 -14 q 82 50 82 17 l 82 950 q 97 999 82 983 q 146 1014 113 1014 l 369 1014 q 413 1003 396 1014 q 446 965 431 992 l 571 739 q 576 728 574 733 q 583 722 578 722 l 596 722 q 603 728 601 722 q 608 739 606 733 l 732 965 q 765 1003 747 992 q 808 1014 782 1014 l 1033 1014 q 1082 999 1067 1014 q 1097 950 1097 983 l 1097 50 q 1082 1 1097 17 q 1033 -14 1067 -14 l 819 -14 q 770 1 785 -14 q 756 50 756 17 l 756 483 l 700 381 q 665 342 686 354 q 614 329 644 329 l 558 329 q 507 342 528 329 q 472 381 486 354 l 417 483 l 417 50 q 401 1 417 17 q 353 -14 386 -14 z "},"N":{"ha":1046,"x_min":82,"x_max":964,"o":"m 279 864 l 790 289 l 790 875 l 804 875 l 804 125 l 790 125 l 790 268 l 265 857 q 262 860 264 858 q 258 861 260 861 q 256 860 257 861 q 256 857 256 858 l 256 125 l 242 125 l 242 860 q 247 872 242 868 q 258 876 253 876 q 268 874 264 876 q 279 864 272 871 m 354 0 q 392 12 381 0 q 404 50 404 24 l 404 508 l 642 221 l 642 50 q 653 12 642 24 q 692 0 665 0 l 900 0 q 938 12 926 0 q 950 50 950 24 l 950 950 q 938 988 950 976 q 900 1000 926 1000 l 692 1000 q 653 988 665 1000 q 642 950 642 976 l 642 654 l 372 963 q 335 992 354 983 q 290 1000 317 1000 l 146 1000 q 108 988 119 1000 q 96 950 96 976 l 96 50 q 108 12 96 24 q 146 0 119 0 l 354 0 m 354 -14 l 146 -14 q 97 1 113 -14 q 82 50 82 17 l 82 950 q 97 999 82 983 q 146 1014 113 1014 l 290 1014 q 342 1004 321 1014 q 383 972 363 994 l 628 693 l 628 950 q 643 999 628 983 q 692 1014 658 1014 l 900 1014 q 949 999 933 1014 q 964 950 964 983 l 964 50 q 949 1 964 17 q 900 -14 933 -14 l 692 -14 q 643 1 658 -14 q 628 50 628 17 l 628 215 l 418 469 l 418 50 q 403 1 418 17 q 354 -14 388 -14 z "},"Ñ":{"ha":1046,"x_min":82,"x_max":964,"o":"m 279 864 l 790 289 l 790 875 l 804 875 l 804 125 l 790 125 l 790 268 l 265 857 q 262 860 264 858 q 258 861 260 861 q 256 860 257 861 q 256 857 256 858 l 256 125 l 242 125 l 242 860 q 247 872 242 868 q 258 876 253 876 q 268 874 264 876 q 279 864 272 871 m 354 0 q 392 12 381 0 q 404 50 404 24 l 404 508 l 642 221 l 642 50 q 653 12 642 24 q 692 0 665 0 l 900 0 q 938 12 926 0 q 950 50 950 24 l 950 950 q 938 988 950 976 q 900 1000 926 1000 l 692 1000 q 653 988 665 1000 q 642 950 642 976 l 642 654 l 372 963 q 335 992 354 983 q 290 1000 317 1000 l 146 1000 q 108 988 119 1000 q 96 950 96 976 l 96 50 q 108 12 96 24 q 146 0 119 0 l 354 0 m 354 -14 l 146 -14 q 97 1 113 -14 q 82 50 82 17 l 82 950 q 97 999 82 983 q 146 1014 113 1014 l 290 1014 q 342 1004 321 1014 q 383 972 363 994 l 628 693 l 628 950 q 643 999 628 983 q 692 1014 658 1014 l 900 1014 q 949 999 933 1014 q 964 950 964 983 l 964 50 q 949 1 964 17 q 900 -14 933 -14 l 692 -14 q 643 1 658 -14 q 628 50 628 17 l 628 215 l 418 469 l 418 50 q 403 1 418 17 q 354 -14 388 -14 m 765 1051 q 708 1037 732 1042 q 663 1032 685 1032 q 613 1035 640 1032 q 542 1044 585 1039 l 519 1047 l 481 1053 q 417 1060 442 1058 q 371 1060 392 1063 q 331 1053 350 1058 q 285 1040 311 1049 q 233 1043 250 1031 q 217 1090 217 1056 l 217 1231 q 231 1275 217 1261 q 275 1300 246 1289 l 276 1300 l 276 1301 q 333 1316 310 1311 q 378 1321 356 1321 q 428 1317 401 1321 q 499 1308 456 1314 l 522 1306 l 553 1301 q 624 1292 597 1294 q 669 1290 650 1289 q 708 1297 689 1292 q 757 1313 728 1303 q 808 1310 792 1322 q 825 1263 825 1297 l 825 1122 q 810 1078 825 1092 q 767 1053 796 1064 l 765 1053 l 765 1051 m 521 1061 l 543 1058 q 612 1049 585 1053 q 661 1046 639 1046 q 706 1051 683 1046 q 761 1065 728 1056 q 798 1085 785 1075 q 811 1122 811 1096 l 811 1263 q 799 1297 811 1289 q 761 1299 786 1306 q 711 1283 731 1289 q 672 1276 692 1278 q 624 1278 651 1275 q 551 1288 597 1281 l 521 1292 l 497 1294 q 428 1303 456 1300 q 380 1307 401 1307 q 336 1302 358 1307 q 281 1288 314 1297 q 244 1267 257 1278 q 231 1231 231 1257 l 231 1090 q 243 1056 231 1064 q 281 1054 256 1047 q 328 1067 308 1063 q 369 1074 349 1072 q 417 1074 390 1076 q 482 1067 443 1072 l 521 1061 m 686 1168 l 686 1154 q 626 1154 658 1151 q 542 1165 594 1157 l 519 1168 l 481 1174 q 406 1182 435 1181 q 356 1179 378 1183 l 356 1194 q 408 1195 379 1197 q 483 1188 436 1193 l 522 1182 l 544 1179 q 628 1168 597 1171 q 686 1168 658 1165 z "},"Ń":{"ha":1046,"x_min":82,"x_max":964,"o":"m 279 864 l 790 289 l 790 875 l 804 875 l 804 125 l 790 125 l 790 268 l 265 857 q 262 860 264 858 q 258 861 260 861 q 256 860 257 861 q 256 857 256 858 l 256 125 l 242 125 l 242 860 q 247 872 242 868 q 258 876 253 876 q 268 874 264 876 q 279 864 272 871 m 354 0 q 392 12 381 0 q 404 50 404 24 l 404 508 l 642 221 l 642 50 q 653 12 642 24 q 692 0 665 0 l 900 0 q 938 12 926 0 q 950 50 950 24 l 950 950 q 938 988 950 976 q 900 1000 926 1000 l 692 1000 q 653 988 665 1000 q 642 950 642 976 l 642 654 l 372 963 q 335 992 354 983 q 290 1000 317 1000 l 146 1000 q 108 988 119 1000 q 96 950 96 976 l 96 50 q 108 12 96 24 q 146 0 119 0 l 354 0 m 354 -14 l 146 -14 q 97 1 113 -14 q 82 50 82 17 l 82 950 q 97 999 82 983 q 146 1014 113 1014 l 290 1014 q 342 1004 321 1014 q 383 972 363 994 l 628 693 l 628 950 q 643 999 628 983 q 692 1014 658 1014 l 900 1014 q 949 999 933 1014 q 964 950 964 983 l 964 50 q 949 1 964 17 q 900 -14 933 -14 l 692 -14 q 643 1 658 -14 q 628 50 628 17 l 628 215 l 418 469 l 418 50 q 403 1 418 17 q 354 -14 388 -14 m 293 1032 q 247 1044 263 1028 q 231 1092 231 1060 l 231 1225 q 245 1271 231 1257 q 293 1289 260 1285 l 778 1349 q 824 1337 808 1353 q 840 1289 840 1321 l 840 1156 q 826 1110 840 1124 q 778 1092 811 1096 l 293 1032 m 776 1106 q 815 1119 803 1108 q 826 1156 826 1129 l 826 1289 q 815 1325 826 1313 q 779 1335 803 1338 l 294 1275 q 256 1262 268 1272 q 244 1225 244 1251 l 244 1092 q 256 1056 244 1068 q 292 1046 268 1043 l 776 1106 m 369 1176 l 701 1218 l 701 1204 l 369 1163 l 369 1176 z "},"Ņ":{"ha":1046,"x_min":82,"x_max":964,"o":"m 279 864 l 790 289 l 790 875 l 804 875 l 804 125 l 790 125 l 790 268 l 265 857 q 262 860 264 858 q 258 861 260 861 q 256 860 257 861 q 256 857 256 858 l 256 125 l 242 125 l 242 860 q 247 872 242 868 q 258 876 253 876 q 268 874 264 876 q 279 864 272 871 m 354 0 q 392 12 381 0 q 404 50 404 24 l 404 508 l 642 221 l 642 50 q 653 12 642 24 q 692 0 665 0 l 900 0 q 938 12 926 0 q 950 50 950 24 l 950 950 q 938 988 950 976 q 900 1000 926 1000 l 692 1000 q 653 988 665 1000 q 642 950 642 976 l 642 654 l 372 963 q 335 992 354 983 q 290 1000 317 1000 l 146 1000 q 108 988 119 1000 q 96 950 96 976 l 96 50 q 108 12 96 24 q 146 0 119 0 l 354 0 m 354 -14 l 146 -14 q 97 1 113 -14 q 82 50 82 17 l 82 950 q 97 999 82 983 q 146 1014 113 1014 l 290 1014 q 342 1004 321 1014 q 383 972 363 994 l 628 693 l 628 950 q 643 999 628 983 q 692 1014 658 1014 l 900 1014 q 949 999 933 1014 q 964 950 964 983 l 964 50 q 949 1 964 17 q 900 -14 933 -14 l 692 -14 q 643 1 658 -14 q 628 50 628 17 l 628 215 l 418 469 l 418 50 q 403 1 418 17 q 354 -14 388 -14 m 418 -517 q 376 -503 389 -517 q 363 -460 363 -490 l 363 -412 q 376 -370 363 -383 q 418 -357 389 -357 l 500 -357 q 514 -351 510 -357 q 518 -337 518 -346 l 518 -333 l 413 -333 q 362 -319 376 -333 q 347 -265 347 -304 l 347 -114 q 362 -60 347 -75 q 413 -46 376 -46 l 632 -46 q 683 -60 668 -46 q 697 -114 697 -75 l 697 -325 q 646 -469 697 -421 q 510 -517 594 -517 l 418 -517 m 510 -503 q 636 -458 589 -503 q 683 -325 683 -414 l 683 -114 q 672 -72 683 -83 q 632 -60 661 -60 l 413 -60 q 372 -72 383 -60 q 361 -114 361 -83 l 361 -265 q 372 -308 361 -296 q 413 -319 383 -319 l 532 -319 l 532 -337 q 524 -362 532 -353 q 500 -371 515 -371 l 418 -371 q 386 -381 396 -371 q 376 -412 376 -390 l 376 -460 q 386 -492 376 -482 q 418 -503 396 -503 l 510 -503 m 604 -183 l 604 -318 q 574 -410 604 -382 q 489 -437 544 -437 l 440 -437 l 440 -424 l 489 -424 q 565 -399 539 -424 q 590 -318 590 -374 l 590 -197 l 440 -197 l 440 -183 l 604 -183 z "},"Ň":{"ha":1046,"x_min":82,"x_max":964,"o":"m 279 864 l 790 289 l 790 875 l 804 875 l 804 125 l 790 125 l 790 268 l 265 857 q 262 860 264 858 q 258 861 260 861 q 256 860 257 861 q 256 857 256 858 l 256 125 l 242 125 l 242 860 q 247 872 242 868 q 258 876 253 876 q 268 874 264 876 q 279 864 272 871 m 354 0 q 392 12 381 0 q 404 50 404 24 l 404 508 l 642 221 l 642 50 q 653 12 642 24 q 692 0 665 0 l 900 0 q 938 12 926 0 q 950 50 950 24 l 950 950 q 938 988 950 976 q 900 1000 926 1000 l 692 1000 q 653 988 665 1000 q 642 950 642 976 l 642 654 l 372 963 q 335 992 354 983 q 290 1000 317 1000 l 146 1000 q 108 988 119 1000 q 96 950 96 976 l 96 50 q 108 12 96 24 q 146 0 119 0 l 354 0 m 354 -14 l 146 -14 q 97 1 113 -14 q 82 50 82 17 l 82 950 q 97 999 82 983 q 146 1014 113 1014 l 290 1014 q 342 1004 321 1014 q 383 972 363 994 l 628 693 l 628 950 q 643 999 628 983 q 692 1014 658 1014 l 900 1014 q 949 999 933 1014 q 964 950 964 983 l 964 50 q 949 1 964 17 q 900 -14 933 -14 l 692 -14 q 643 1 658 -14 q 628 50 628 17 l 628 215 l 418 469 l 418 50 q 403 1 418 17 q 354 -14 388 -14 m 510 1031 q 483 1032 496 1031 q 461 1039 471 1033 l 269 1108 q 215 1138 228 1124 q 203 1194 203 1151 l 203 1307 q 217 1367 203 1356 q 279 1364 232 1378 l 469 1308 q 508 1303 492 1303 q 547 1308 525 1303 l 738 1364 q 798 1367 783 1378 q 813 1307 813 1357 l 813 1194 q 799 1138 813 1151 q 746 1108 785 1124 l 569 1044 q 540 1035 556 1039 q 510 1031 524 1032 m 551 1294 q 508 1289 528 1289 q 465 1294 489 1289 l 275 1350 q 228 1353 239 1361 q 217 1307 217 1344 l 217 1194 q 228 1146 217 1157 q 275 1121 240 1135 l 465 1051 q 486 1046 475 1047 q 510 1044 497 1044 q 537 1049 522 1046 q 564 1057 551 1051 l 742 1121 q 787 1146 775 1135 q 799 1194 799 1157 l 799 1307 q 788 1353 799 1344 q 742 1350 776 1361 l 551 1294 m 342 1221 l 463 1182 q 483 1176 472 1179 q 507 1174 493 1174 q 531 1176 521 1174 q 551 1182 542 1179 l 672 1221 l 672 1206 l 557 1168 q 533 1163 544 1165 q 507 1160 522 1160 q 481 1163 492 1160 q 457 1168 469 1165 l 342 1206 l 342 1221 z "},"O":{"ha":1024,"x_min":67,"x_max":957,"o":"m 957 736 l 957 263 q 939 142 957 197 q 872 49 921 88 q 735 -12 822 10 q 513 -35 649 -35 q 290 -12 376 -35 q 153 49 203 10 q 85 142 104 88 q 67 263 67 197 l 67 736 q 85 856 67 801 q 153 951 104 911 q 290 1013 203 990 q 513 1035 376 1035 q 735 1013 649 1035 q 872 951 822 990 q 939 856 921 911 q 957 736 957 801 m 943 263 l 943 736 q 924 852 943 800 q 858 942 906 904 q 726 1000 810 979 q 513 1021 642 1021 q 299 1000 383 1021 q 166 942 214 979 q 99 852 118 904 q 81 736 81 800 l 81 263 q 99 147 81 199 q 166 58 118 94 q 299 0 214 21 q 513 -21 383 -21 q 726 0 642 -21 q 858 58 810 21 q 924 147 906 94 q 943 263 943 199 m 792 294 q 732 159 792 211 q 510 107 672 107 q 289 159 347 107 q 231 294 231 211 l 231 704 q 289 840 231 788 q 510 892 347 892 q 732 840 672 892 q 792 704 792 788 l 792 294 m 244 294 q 300 169 244 217 q 510 121 356 121 q 721 169 664 121 q 778 294 778 217 l 778 704 q 721 830 778 782 q 510 878 664 878 q 300 830 356 878 q 244 704 244 782 l 244 294 m 396 313 l 396 686 q 417 731 396 713 q 513 750 438 750 q 608 731 588 750 q 629 686 629 713 l 629 313 q 608 266 629 285 q 513 247 588 247 q 417 266 438 247 q 396 313 396 285 m 410 686 l 410 313 q 431 274 410 288 q 513 261 453 261 q 594 274 572 261 q 615 313 615 288 l 615 686 q 594 723 615 710 q 513 736 572 736 q 432 723 454 736 q 410 686 410 710 z "},"Ò":{"ha":1024,"x_min":67,"x_max":957,"o":"m 957 736 l 957 263 q 939 142 957 197 q 872 49 921 88 q 735 -12 822 10 q 513 -35 649 -35 q 290 -12 376 -35 q 153 49 203 10 q 85 142 104 88 q 67 263 67 197 l 67 736 q 85 856 67 801 q 153 951 104 911 q 290 1013 203 990 q 513 1035 376 1035 q 735 1013 649 1035 q 872 951 822 990 q 939 856 921 911 q 957 736 957 801 m 943 263 l 943 736 q 924 852 943 800 q 858 942 906 904 q 726 1000 810 979 q 513 1021 642 1021 q 299 1000 383 1021 q 166 942 214 979 q 99 852 118 904 q 81 736 81 800 l 81 263 q 99 147 81 199 q 166 58 118 94 q 299 0 214 21 q 513 -21 383 -21 q 726 0 642 -21 q 858 58 810 21 q 924 147 906 94 q 943 263 943 199 m 792 294 q 732 159 792 211 q 510 107 672 107 q 289 159 347 107 q 231 294 231 211 l 231 704 q 289 840 231 788 q 510 892 347 892 q 732 840 672 892 q 792 704 792 788 l 792 294 m 244 294 q 300 169 244 217 q 510 121 356 121 q 721 169 664 121 q 778 294 778 217 l 778 704 q 721 830 778 782 q 510 878 664 878 q 300 830 356 878 q 244 704 244 782 l 244 294 m 396 313 l 396 686 q 417 731 396 713 q 513 750 438 750 q 608 731 588 750 q 629 686 629 713 l 629 313 q 608 266 629 285 q 513 247 588 247 q 417 266 438 247 q 396 313 396 285 m 410 686 l 410 313 q 431 274 410 288 q 513 261 453 261 q 594 274 572 261 q 615 313 615 288 l 615 686 q 594 723 615 710 q 513 736 572 736 q 432 723 454 736 q 410 686 410 710 m 815 1092 q 799 1044 815 1060 q 753 1032 783 1028 l 268 1092 q 220 1110 235 1096 q 206 1156 206 1124 l 206 1289 q 222 1337 206 1321 q 268 1349 238 1353 l 753 1289 q 801 1271 786 1285 q 815 1225 815 1257 l 815 1092 m 754 1046 q 790 1056 778 1043 q 801 1092 801 1068 l 801 1225 q 790 1262 801 1251 q 751 1275 778 1272 l 267 1335 q 231 1325 243 1338 q 219 1289 219 1313 l 219 1156 q 231 1119 219 1129 q 269 1106 243 1108 l 754 1046 m 344 1204 l 344 1218 l 676 1176 l 676 1163 l 344 1204 z "},"Ó":{"ha":1024,"x_min":67,"x_max":957,"o":"m 957 736 l 957 263 q 939 142 957 197 q 872 49 921 88 q 735 -12 822 10 q 513 -35 649 -35 q 290 -12 376 -35 q 153 49 203 10 q 85 142 104 88 q 67 263 67 197 l 67 736 q 85 856 67 801 q 153 951 104 911 q 290 1013 203 990 q 513 1035 376 1035 q 735 1013 649 1035 q 872 951 822 990 q 939 856 921 911 q 957 736 957 801 m 943 263 l 943 736 q 924 852 943 800 q 858 942 906 904 q 726 1000 810 979 q 513 1021 642 1021 q 299 1000 383 1021 q 166 942 214 979 q 99 852 118 904 q 81 736 81 800 l 81 263 q 99 147 81 199 q 166 58 118 94 q 299 0 214 21 q 513 -21 383 -21 q 726 0 642 -21 q 858 58 810 21 q 924 147 906 94 q 943 263 943 199 m 792 294 q 732 159 792 211 q 510 107 672 107 q 289 159 347 107 q 231 294 231 211 l 231 704 q 289 840 231 788 q 510 892 347 892 q 732 840 672 892 q 792 704 792 788 l 792 294 m 244 294 q 300 169 244 217 q 510 121 356 121 q 721 169 664 121 q 778 294 778 217 l 778 704 q 721 830 778 782 q 510 878 664 878 q 300 830 356 878 q 244 704 244 782 l 244 294 m 396 313 l 396 686 q 417 731 396 713 q 513 750 438 750 q 608 731 588 750 q 629 686 629 713 l 629 313 q 608 266 629 285 q 513 247 588 247 q 417 266 438 247 q 396 313 396 285 m 410 686 l 410 313 q 431 274 410 288 q 513 261 453 261 q 594 274 572 261 q 615 313 615 288 l 615 686 q 594 723 615 710 q 513 736 572 736 q 432 723 454 736 q 410 686 410 710 m 268 1032 q 222 1044 238 1028 q 206 1092 206 1060 l 206 1225 q 220 1271 206 1257 q 268 1289 235 1285 l 753 1349 q 799 1337 783 1353 q 815 1289 815 1321 l 815 1156 q 801 1110 815 1124 q 753 1092 786 1096 l 268 1032 m 751 1106 q 790 1119 778 1108 q 801 1156 801 1129 l 801 1289 q 790 1325 801 1313 q 754 1335 778 1338 l 269 1275 q 231 1262 243 1272 q 219 1225 219 1251 l 219 1092 q 231 1056 219 1068 q 267 1046 243 1043 l 751 1106 m 344 1176 l 676 1218 l 676 1204 l 344 1163 l 344 1176 z "},"Ô":{"ha":1024,"x_min":67,"x_max":957,"o":"m 957 736 l 957 263 q 939 142 957 197 q 872 49 921 88 q 735 -12 822 10 q 513 -35 649 -35 q 290 -12 376 -35 q 153 49 203 10 q 85 142 104 88 q 67 263 67 197 l 67 736 q 85 856 67 801 q 153 951 104 911 q 290 1013 203 990 q 513 1035 376 1035 q 735 1013 649 1035 q 872 951 822 990 q 939 856 921 911 q 957 736 957 801 m 943 263 l 943 736 q 924 852 943 800 q 858 942 906 904 q 726 1000 810 979 q 513 1021 642 1021 q 299 1000 383 1021 q 166 942 214 979 q 99 852 118 904 q 81 736 81 800 l 81 263 q 99 147 81 199 q 166 58 118 94 q 299 0 214 21 q 513 -21 383 -21 q 726 0 642 -21 q 858 58 810 21 q 924 147 906 94 q 943 263 943 199 m 792 294 q 732 159 792 211 q 510 107 672 107 q 289 159 347 107 q 231 294 231 211 l 231 704 q 289 840 231 788 q 510 892 347 892 q 732 840 672 892 q 792 704 792 788 l 792 294 m 244 294 q 300 169 244 217 q 510 121 356 121 q 721 169 664 121 q 778 294 778 217 l 778 704 q 721 830 778 782 q 510 878 664 878 q 300 830 356 878 q 244 704 244 782 l 244 294 m 396 313 l 396 686 q 417 731 396 713 q 513 750 438 750 q 608 731 588 750 q 629 686 629 713 l 629 313 q 608 266 629 285 q 513 247 588 247 q 417 266 438 247 q 396 313 396 285 m 410 686 l 410 313 q 431 274 410 288 q 513 261 453 261 q 594 274 572 261 q 615 313 615 288 l 615 686 q 594 723 615 710 q 513 736 572 736 q 432 723 454 736 q 410 686 410 710 m 675 1181 l 554 1219 q 534 1225 544 1222 q 510 1228 524 1228 q 485 1225 496 1228 q 465 1219 475 1222 l 344 1181 l 344 1196 l 460 1233 q 483 1239 472 1236 q 510 1242 494 1242 q 536 1239 525 1242 q 560 1233 547 1236 l 675 1196 l 675 1181 m 467 1107 q 510 1113 490 1113 q 553 1107 529 1113 l 743 1051 q 790 1049 779 1040 q 801 1094 801 1057 l 801 1207 q 790 1256 801 1244 q 743 1281 778 1267 l 553 1350 q 532 1356 543 1354 q 508 1357 521 1357 q 481 1353 496 1356 q 454 1344 467 1350 l 276 1281 q 231 1256 243 1267 q 219 1207 219 1244 l 219 1094 q 231 1049 219 1057 q 276 1051 242 1040 l 467 1107 m 281 1038 q 220 1034 235 1024 q 206 1094 206 1044 l 206 1207 q 219 1264 206 1250 q 272 1293 233 1278 l 449 1357 q 478 1366 463 1363 q 508 1371 494 1369 q 535 1369 522 1371 q 557 1363 547 1368 l 749 1293 q 803 1264 790 1278 q 815 1207 815 1250 l 815 1094 q 801 1035 815 1046 q 739 1038 786 1024 l 549 1093 q 510 1099 526 1099 q 471 1093 493 1099 l 281 1038 z "},"Õ":{"ha":1024,"x_min":67,"x_max":957,"o":"m 957 736 l 957 263 q 939 142 957 197 q 872 49 921 88 q 735 -12 822 10 q 513 -35 649 -35 q 290 -12 376 -35 q 153 49 203 10 q 85 142 104 88 q 67 263 67 197 l 67 736 q 85 856 67 801 q 153 951 104 911 q 290 1013 203 990 q 513 1035 376 1035 q 735 1013 649 1035 q 872 951 822 990 q 939 856 921 911 q 957 736 957 801 m 943 263 l 943 736 q 924 852 943 800 q 858 942 906 904 q 726 1000 810 979 q 513 1021 642 1021 q 299 1000 383 1021 q 166 942 214 979 q 99 852 118 904 q 81 736 81 800 l 81 263 q 99 147 81 199 q 166 58 118 94 q 299 0 214 21 q 513 -21 383 -21 q 726 0 642 -21 q 858 58 810 21 q 924 147 906 94 q 943 263 943 199 m 792 294 q 732 159 792 211 q 510 107 672 107 q 289 159 347 107 q 231 294 231 211 l 231 704 q 289 840 231 788 q 510 892 347 892 q 732 840 672 892 q 792 704 792 788 l 792 294 m 244 294 q 300 169 244 217 q 510 121 356 121 q 721 169 664 121 q 778 294 778 217 l 778 704 q 721 830 778 782 q 510 878 664 878 q 300 830 356 878 q 244 704 244 782 l 244 294 m 396 313 l 396 686 q 417 731 396 713 q 513 750 438 750 q 608 731 588 750 q 629 686 629 713 l 629 313 q 608 266 629 285 q 513 247 588 247 q 417 266 438 247 q 396 313 396 285 m 410 686 l 410 313 q 431 274 410 288 q 513 261 453 261 q 594 274 572 261 q 615 313 615 288 l 615 686 q 594 723 615 710 q 513 736 572 736 q 432 723 454 736 q 410 686 410 710 m 754 1051 q 697 1037 721 1042 q 651 1032 674 1032 q 601 1035 629 1032 q 531 1044 574 1039 l 508 1047 l 469 1053 q 406 1060 431 1058 q 360 1060 381 1063 q 319 1053 339 1058 q 274 1040 300 1049 q 222 1043 239 1031 q 206 1090 206 1056 l 206 1231 q 220 1275 206 1261 q 264 1300 235 1289 l 265 1300 l 265 1301 q 322 1316 299 1311 q 367 1321 344 1321 q 417 1317 390 1321 q 488 1308 444 1314 l 511 1306 l 542 1301 q 613 1292 586 1294 q 658 1290 639 1289 q 697 1297 678 1292 q 746 1313 717 1303 q 797 1310 781 1322 q 814 1263 814 1297 l 814 1122 q 799 1078 814 1092 q 756 1053 785 1064 l 754 1053 l 754 1051 m 510 1061 l 532 1058 q 601 1049 574 1053 q 650 1046 628 1046 q 694 1051 672 1046 q 750 1065 717 1056 q 787 1085 774 1075 q 800 1122 800 1096 l 800 1263 q 788 1297 800 1289 q 750 1299 775 1306 q 700 1283 719 1289 q 660 1276 681 1278 q 613 1278 640 1275 q 540 1288 586 1281 l 510 1292 l 486 1294 q 417 1303 444 1300 q 369 1307 390 1307 q 325 1302 347 1307 q 269 1288 303 1297 q 233 1267 246 1278 q 219 1231 219 1257 l 219 1090 q 232 1056 219 1064 q 269 1054 244 1047 q 317 1067 297 1063 q 358 1074 338 1072 q 406 1074 379 1076 q 471 1067 432 1072 l 510 1061 m 675 1168 l 675 1154 q 615 1154 647 1151 q 531 1165 583 1157 l 508 1168 l 469 1174 q 395 1182 424 1181 q 344 1179 367 1183 l 344 1194 q 397 1195 368 1197 q 472 1188 425 1193 l 511 1182 l 533 1179 q 617 1168 586 1171 q 675 1168 647 1165 z "},"Ö":{"ha":1024,"x_min":67,"x_max":957,"o":"m 957 736 l 957 263 q 939 142 957 197 q 872 49 921 88 q 735 -12 822 10 q 513 -35 649 -35 q 290 -12 376 -35 q 153 49 203 10 q 85 142 104 88 q 67 263 67 197 l 67 736 q 85 856 67 801 q 153 951 104 911 q 290 1013 203 990 q 513 1035 376 1035 q 735 1013 649 1035 q 872 951 822 990 q 939 856 921 911 q 957 736 957 801 m 943 263 l 943 736 q 924 852 943 800 q 858 942 906 904 q 726 1000 810 979 q 513 1021 642 1021 q 299 1000 383 1021 q 166 942 214 979 q 99 852 118 904 q 81 736 81 800 l 81 263 q 99 147 81 199 q 166 58 118 94 q 299 0 214 21 q 513 -21 383 -21 q 726 0 642 -21 q 858 58 810 21 q 924 147 906 94 q 943 263 943 199 m 792 294 q 732 159 792 211 q 510 107 672 107 q 289 159 347 107 q 231 294 231 211 l 231 704 q 289 840 231 788 q 510 892 347 892 q 732 840 672 892 q 792 704 792 788 l 792 294 m 244 294 q 300 169 244 217 q 510 121 356 121 q 721 169 664 121 q 778 294 778 217 l 778 704 q 721 830 778 782 q 510 878 664 878 q 300 830 356 878 q 244 704 244 782 l 244 294 m 396 313 l 396 686 q 417 731 396 713 q 513 750 438 750 q 608 731 588 750 q 629 686 629 713 l 629 313 q 608 266 629 285 q 513 247 588 247 q 417 266 438 247 q 396 313 396 285 m 410 686 l 410 313 q 431 274 410 288 q 513 261 453 261 q 594 274 572 261 q 615 313 615 288 l 615 686 q 594 723 615 710 q 513 736 572 736 q 432 723 454 736 q 410 686 410 710 m 485 1101 q 470 1056 485 1071 q 425 1042 456 1042 l 233 1042 q 188 1056 203 1042 q 172 1101 172 1071 l 172 1269 q 188 1315 172 1300 q 233 1329 203 1329 l 425 1329 q 470 1315 456 1329 q 485 1269 485 1300 l 485 1101 m 843 1101 q 828 1056 843 1071 q 783 1042 814 1042 l 592 1042 q 547 1056 561 1042 q 532 1101 532 1071 l 532 1269 q 547 1315 532 1300 q 592 1329 561 1329 l 783 1329 q 828 1315 814 1329 q 843 1269 843 1300 l 843 1101 m 425 1056 q 460 1067 449 1056 q 471 1101 471 1078 l 471 1269 q 460 1304 471 1293 q 425 1315 449 1315 l 233 1315 q 198 1304 210 1315 q 186 1269 186 1293 l 186 1101 q 198 1067 186 1078 q 233 1056 210 1056 l 425 1056 m 783 1056 q 818 1067 807 1056 q 829 1101 829 1078 l 829 1269 q 818 1304 829 1293 q 783 1315 807 1315 l 592 1315 q 557 1304 568 1315 q 546 1269 546 1293 l 546 1101 q 557 1067 546 1078 q 592 1056 568 1056 l 783 1056 m 336 1153 l 322 1153 l 322 1218 l 336 1218 l 336 1153 m 694 1153 l 681 1153 l 681 1218 l 694 1218 l 694 1153 z "},"Ō":{"ha":1024,"x_min":67,"x_max":957,"o":"m 957 736 l 957 263 q 939 142 957 197 q 872 49 921 88 q 735 -12 822 10 q 513 -35 649 -35 q 290 -12 376 -35 q 153 49 203 10 q 85 142 104 88 q 67 263 67 197 l 67 736 q 85 856 67 801 q 153 951 104 911 q 290 1013 203 990 q 513 1035 376 1035 q 735 1013 649 1035 q 872 951 822 990 q 939 856 921 911 q 957 736 957 801 m 943 263 l 943 736 q 924 852 943 800 q 858 942 906 904 q 726 1000 810 979 q 513 1021 642 1021 q 299 1000 383 1021 q 166 942 214 979 q 99 852 118 904 q 81 736 81 800 l 81 263 q 99 147 81 199 q 166 58 118 94 q 299 0 214 21 q 513 -21 383 -21 q 726 0 642 -21 q 858 58 810 21 q 924 147 906 94 q 943 263 943 199 m 792 294 q 732 159 792 211 q 510 107 672 107 q 289 159 347 107 q 231 294 231 211 l 231 704 q 289 840 231 788 q 510 892 347 892 q 732 840 672 892 q 792 704 792 788 l 792 294 m 244 294 q 300 169 244 217 q 510 121 356 121 q 721 169 664 121 q 778 294 778 217 l 778 704 q 721 830 778 782 q 510 878 664 878 q 300 830 356 878 q 244 704 244 782 l 244 294 m 396 313 l 396 686 q 417 731 396 713 q 513 750 438 750 q 608 731 588 750 q 629 686 629 713 l 629 313 q 608 266 629 285 q 513 247 588 247 q 417 266 438 247 q 396 313 396 285 m 410 686 l 410 313 q 431 274 410 288 q 513 261 453 261 q 594 274 572 261 q 615 313 615 288 l 615 686 q 594 723 615 710 q 513 736 572 736 q 432 723 454 736 q 410 686 410 710 m 815 1106 q 800 1057 815 1072 q 751 1042 785 1042 l 269 1042 q 221 1057 236 1042 q 206 1106 206 1072 l 206 1235 q 221 1283 206 1268 q 269 1299 236 1299 l 751 1299 q 800 1283 785 1299 q 815 1235 815 1268 l 815 1106 m 751 1056 q 790 1067 778 1056 q 801 1106 801 1079 l 801 1235 q 790 1273 801 1261 q 751 1285 778 1285 l 269 1285 q 231 1273 243 1285 q 219 1235 219 1261 l 219 1106 q 231 1067 219 1079 q 269 1056 243 1056 l 751 1056 m 344 1176 l 676 1176 l 676 1163 l 344 1163 l 344 1176 z "},"Ŏ":{"ha":1024,"x_min":67,"x_max":957,"o":"m 957 736 l 957 263 q 939 142 957 197 q 872 49 921 88 q 735 -12 822 10 q 513 -35 649 -35 q 290 -12 376 -35 q 153 49 203 10 q 85 142 104 88 q 67 263 67 197 l 67 736 q 85 856 67 801 q 153 951 104 911 q 290 1013 203 990 q 513 1035 376 1035 q 735 1013 649 1035 q 872 951 822 990 q 939 856 921 911 q 957 736 957 801 m 943 263 l 943 736 q 924 852 943 800 q 858 942 906 904 q 726 1000 810 979 q 513 1021 642 1021 q 299 1000 383 1021 q 166 942 214 979 q 99 852 118 904 q 81 736 81 800 l 81 263 q 99 147 81 199 q 166 58 118 94 q 299 0 214 21 q 513 -21 383 -21 q 726 0 642 -21 q 858 58 810 21 q 924 147 906 94 q 943 263 943 199 m 792 294 q 732 159 792 211 q 510 107 672 107 q 289 159 347 107 q 231 294 231 211 l 231 704 q 289 840 231 788 q 510 892 347 892 q 732 840 672 892 q 792 704 792 788 l 792 294 m 244 294 q 300 169 244 217 q 510 121 356 121 q 721 169 664 121 q 778 294 778 217 l 778 704 q 721 830 778 782 q 510 878 664 878 q 300 830 356 878 q 244 704 244 782 l 244 294 m 396 313 l 396 686 q 417 731 396 713 q 513 750 438 750 q 608 731 588 750 q 629 686 629 713 l 629 313 q 608 266 629 285 q 513 247 588 247 q 417 266 438 247 q 396 313 396 285 m 410 686 l 410 313 q 431 274 410 288 q 513 261 453 261 q 594 274 572 261 q 615 313 615 288 l 615 686 q 594 723 615 710 q 513 736 572 736 q 432 723 454 736 q 410 686 410 710 m 826 1307 l 826 1246 q 813 1160 826 1200 q 765 1093 800 1121 q 669 1049 731 1065 q 511 1033 607 1033 q 353 1049 415 1033 q 257 1093 292 1065 q 209 1160 222 1121 q 196 1246 196 1200 l 196 1307 q 211 1356 196 1340 q 260 1371 226 1371 l 393 1371 q 435 1359 422 1371 q 447 1314 447 1347 l 447 1285 q 463 1260 447 1268 q 513 1253 478 1253 q 565 1260 549 1253 q 581 1285 581 1268 l 581 1314 q 593 1359 581 1347 q 636 1371 606 1371 l 763 1371 q 811 1356 796 1371 q 826 1307 826 1340 m 813 1246 l 813 1307 q 801 1345 813 1333 q 763 1357 789 1357 l 636 1357 q 603 1348 613 1357 q 594 1314 594 1339 l 594 1285 q 579 1252 594 1265 q 513 1239 564 1239 q 447 1252 461 1239 q 433 1285 433 1265 l 433 1314 q 424 1348 433 1339 q 393 1357 415 1357 l 260 1357 q 222 1345 233 1357 q 210 1307 210 1333 l 210 1246 q 223 1165 210 1201 q 270 1102 236 1128 q 363 1062 304 1076 q 511 1047 421 1047 q 660 1062 601 1047 q 752 1102 718 1076 q 799 1165 786 1128 q 813 1246 813 1201 m 697 1260 l 711 1260 l 711 1247 q 703 1208 711 1228 q 675 1172 696 1188 q 614 1146 654 1156 q 510 1136 574 1136 q 407 1146 446 1136 q 348 1172 368 1156 q 322 1208 328 1188 q 315 1247 315 1228 l 315 1260 l 329 1260 l 329 1247 q 363 1180 329 1210 q 510 1150 397 1150 q 660 1180 622 1150 q 697 1247 697 1210 l 697 1260 z "},"Ő":{"ha":1024,"x_min":67,"x_max":957,"o":"m 957 736 l 957 263 q 939 142 957 197 q 872 49 921 88 q 735 -12 822 10 q 513 -35 649 -35 q 290 -12 376 -35 q 153 49 203 10 q 85 142 104 88 q 67 263 67 197 l 67 736 q 85 856 67 801 q 153 951 104 911 q 290 1013 203 990 q 513 1035 376 1035 q 735 1013 649 1035 q 872 951 822 990 q 939 856 921 911 q 957 736 957 801 m 943 263 l 943 736 q 924 852 943 800 q 858 942 906 904 q 726 1000 810 979 q 513 1021 642 1021 q 299 1000 383 1021 q 166 942 214 979 q 99 852 118 904 q 81 736 81 800 l 81 263 q 99 147 81 199 q 166 58 118 94 q 299 0 214 21 q 513 -21 383 -21 q 726 0 642 -21 q 858 58 810 21 q 924 147 906 94 q 943 263 943 199 m 792 294 q 732 159 792 211 q 510 107 672 107 q 289 159 347 107 q 231 294 231 211 l 231 704 q 289 840 231 788 q 510 892 347 892 q 732 840 672 892 q 792 704 792 788 l 792 294 m 244 294 q 300 169 244 217 q 510 121 356 121 q 721 169 664 121 q 778 294 778 217 l 778 704 q 721 830 778 782 q 510 878 664 878 q 300 830 356 878 q 244 704 244 782 l 244 294 m 396 313 l 396 686 q 417 731 396 713 q 513 750 438 750 q 608 731 588 750 q 629 686 629 713 l 629 313 q 608 266 629 285 q 513 247 588 247 q 417 266 438 247 q 396 313 396 285 m 410 686 l 410 313 q 431 274 410 288 q 513 261 453 261 q 594 274 572 261 q 615 313 615 288 l 615 686 q 594 723 615 710 q 513 736 572 736 q 432 723 454 736 q 410 686 410 710 m 206 1103 q 214 1068 200 1081 q 251 1056 228 1056 l 399 1056 q 434 1068 425 1056 q 449 1106 443 1081 l 522 1393 q 514 1428 528 1415 q 476 1440 500 1440 l 329 1440 q 294 1428 303 1440 q 279 1390 285 1415 l 206 1103 m 567 1103 q 575 1068 561 1081 q 613 1056 589 1056 l 760 1056 q 795 1068 786 1056 q 810 1106 804 1081 l 883 1393 q 875 1428 889 1415 q 838 1440 861 1440 l 690 1440 q 655 1428 664 1440 q 640 1390 646 1415 l 567 1103 m 715 1181 l 700 1181 l 735 1315 l 750 1315 l 715 1181 m 354 1181 l 339 1181 l 374 1315 l 389 1315 l 354 1181 m 251 1042 q 201 1059 218 1042 q 192 1107 185 1076 l 192 1106 l 265 1393 q 285 1440 274 1425 q 329 1454 297 1454 l 476 1454 q 526 1437 510 1454 q 536 1390 543 1419 l 463 1103 q 442 1056 454 1071 q 399 1042 431 1042 l 251 1042 m 613 1042 q 563 1059 579 1042 q 553 1107 546 1076 l 553 1106 l 626 1393 q 647 1440 635 1425 q 690 1454 658 1454 l 838 1454 q 888 1437 871 1454 q 897 1390 904 1419 l 824 1103 q 803 1056 815 1071 q 760 1042 792 1042 l 613 1042 z "},"P":{"ha":947,"x_min":82,"x_max":913,"o":"m 146 -14 q 97 1 113 -14 q 82 50 82 17 l 82 950 q 97 999 82 983 q 146 1014 113 1014 l 571 1014 q 736 993 669 1014 q 842 935 803 972 q 897 844 881 897 q 913 729 913 792 l 913 551 q 897 436 913 489 q 842 346 881 383 q 736 288 803 308 q 571 267 669 267 l 425 267 l 425 50 q 410 1 425 17 q 361 -14 394 -14 l 146 -14 m 361 0 q 399 12 388 0 q 411 50 411 24 l 411 281 l 571 281 q 829 356 760 281 q 899 551 899 431 l 899 729 q 829 925 899 850 q 571 1000 760 1000 l 146 1000 q 108 988 119 1000 q 96 950 96 976 l 96 50 q 108 12 96 24 q 146 0 119 0 l 361 0 m 551 399 l 265 399 l 265 125 l 251 125 l 251 875 l 551 875 q 658 860 617 875 q 721 821 699 846 q 751 761 743 796 q 760 686 760 726 l 760 583 q 751 509 760 543 q 721 451 743 475 q 658 413 699 426 q 551 399 617 399 m 265 413 l 551 413 q 651 425 613 413 q 710 460 689 438 q 738 515 731 483 q 746 583 746 546 l 746 686 q 738 756 746 724 q 710 811 731 788 q 651 848 689 835 q 551 861 613 861 l 265 861 l 265 413 m 408 740 l 533 740 q 586 719 574 740 q 599 672 599 699 l 599 599 q 586 551 599 572 q 533 531 574 531 l 408 531 l 408 740 m 533 726 l 422 726 l 422 544 l 533 544 q 575 561 565 544 q 585 599 585 578 l 585 672 q 575 710 585 693 q 533 726 565 726 z "},"Q":{"ha":1024,"x_min":67,"x_max":957,"o":"m 404 -139 q 356 -124 371 -139 q 340 -75 340 -108 l 340 -11 q 206 29 260 3 q 122 92 153 56 q 79 176 92 129 q 67 275 67 222 l 67 736 q 85 856 67 801 q 153 951 104 911 q 290 1013 203 990 q 513 1035 376 1035 q 735 1013 649 1035 q 872 951 822 990 q 939 856 921 911 q 957 736 957 801 l 957 275 q 944 175 957 222 q 901 91 932 128 q 817 28 871 54 q 682 -11 764 1 l 682 -75 q 667 -124 682 -108 q 618 -139 651 -139 l 404 -139 m 618 -125 q 656 -113 644 -125 q 668 -75 668 -101 l 668 1 q 803 38 750 13 q 888 97 857 63 q 931 177 918 132 q 943 275 943 222 l 943 736 q 924 852 943 800 q 858 942 906 904 q 726 1000 810 979 q 513 1021 642 1021 q 299 1000 383 1021 q 166 942 214 979 q 99 852 118 904 q 81 736 81 800 l 81 275 q 137 98 81 171 q 354 1 193 25 l 354 -75 q 366 -113 354 -101 q 404 -125 378 -125 l 618 -125 m 503 0 l 503 107 q 288 160 344 108 q 231 294 231 211 l 231 704 q 289 840 231 788 q 510 892 347 892 q 732 840 672 892 q 792 704 792 788 l 792 294 q 733 160 792 211 q 517 107 675 108 l 517 0 l 503 0 m 244 294 q 300 169 244 217 q 510 121 356 121 q 721 169 664 121 q 778 294 778 217 l 778 704 q 721 830 778 782 q 510 878 664 878 q 300 830 356 878 q 244 704 244 782 l 244 294 m 396 306 l 396 685 q 417 730 396 711 q 513 749 438 749 q 608 730 588 749 q 629 685 629 711 l 629 306 q 608 259 629 278 q 513 240 588 240 q 417 259 438 240 q 396 306 396 278 m 410 685 l 410 306 q 431 267 410 281 q 513 254 453 254 q 594 267 572 254 q 615 306 615 281 l 615 685 q 594 722 615 708 q 513 735 572 735 q 432 722 454 735 q 410 685 410 708 z "},"R":{"ha":1032,"x_min":82,"x_max":986,"o":"m 563 861 l 260 861 l 260 460 l 563 460 q 678 501 649 460 q 707 619 707 543 l 707 717 q 672 821 707 781 q 563 861 636 861 m 410 750 l 514 750 q 563 731 550 750 q 575 685 575 713 l 575 638 q 563 591 575 610 q 514 572 550 572 l 410 572 l 410 750 m 514 736 l 424 736 l 424 586 l 514 586 q 552 601 543 586 q 561 638 561 615 l 561 685 q 552 722 561 707 q 514 736 543 736 m 260 125 l 246 125 l 246 875 l 563 875 q 682 830 643 875 q 721 717 721 785 l 721 621 q 704 516 721 557 q 638 460 688 475 l 653 460 q 779 422 738 460 q 821 311 821 383 l 821 125 l 807 125 l 807 311 q 769 413 807 379 q 653 447 732 447 l 260 447 l 260 125 m 360 0 q 398 12 386 0 q 410 50 410 24 l 410 322 l 604 322 q 645 308 633 322 q 657 263 657 293 l 657 50 q 669 12 657 24 q 707 0 681 0 l 922 0 q 960 12 949 0 q 972 50 972 24 l 972 344 q 926 485 972 432 q 804 546 879 538 q 865 605 847 564 q 882 704 882 646 l 882 768 q 823 935 882 871 q 608 1000 764 1000 l 146 1000 q 108 988 119 1000 q 96 950 96 976 l 96 50 q 108 12 96 24 q 146 0 119 0 l 360 0 m 360 -14 l 146 -14 q 97 1 113 -14 q 82 50 82 17 l 82 950 q 97 999 82 983 q 146 1014 113 1014 l 608 1014 q 835 945 774 1014 q 896 768 896 876 l 896 704 q 883 615 896 653 q 842 553 871 576 q 947 481 907 535 q 986 344 986 426 l 986 50 q 971 1 986 17 q 922 -14 956 -14 l 707 -14 q 658 1 674 -14 q 643 50 643 17 l 643 263 q 635 297 643 285 q 604 308 626 308 l 424 308 l 424 50 q 408 1 424 17 q 360 -14 393 -14 z "},"Ŕ":{"ha":1032,"x_min":82,"x_max":986,"o":"m 563 861 l 260 861 l 260 460 l 563 460 q 678 501 649 460 q 707 619 707 543 l 707 717 q 672 821 707 781 q 563 861 636 861 m 410 750 l 514 750 q 563 731 550 750 q 575 685 575 713 l 575 638 q 563 591 575 610 q 514 572 550 572 l 410 572 l 410 750 m 514 736 l 424 736 l 424 586 l 514 586 q 552 601 543 586 q 561 638 561 615 l 561 685 q 552 722 561 707 q 514 736 543 736 m 260 125 l 246 125 l 246 875 l 563 875 q 682 830 643 875 q 721 717 721 785 l 721 621 q 704 516 721 557 q 638 460 688 475 l 653 460 q 779 422 738 460 q 821 311 821 383 l 821 125 l 807 125 l 807 311 q 769 413 807 379 q 653 447 732 447 l 260 447 l 260 125 m 360 0 q 398 12 386 0 q 410 50 410 24 l 410 322 l 604 322 q 645 308 633 322 q 657 263 657 293 l 657 50 q 669 12 657 24 q 707 0 681 0 l 922 0 q 960 12 949 0 q 972 50 972 24 l 972 344 q 926 485 972 432 q 804 546 879 538 q 865 605 847 564 q 882 704 882 646 l 882 768 q 823 935 882 871 q 608 1000 764 1000 l 146 1000 q 108 988 119 1000 q 96 950 96 976 l 96 50 q 108 12 96 24 q 146 0 119 0 l 360 0 m 360 -14 l 146 -14 q 97 1 113 -14 q 82 50 82 17 l 82 950 q 97 999 82 983 q 146 1014 113 1014 l 608 1014 q 835 945 774 1014 q 896 768 896 876 l 896 704 q 883 615 896 653 q 842 553 871 576 q 947 481 907 535 q 986 344 986 426 l 986 50 q 971 1 986 17 q 922 -14 956 -14 l 707 -14 q 658 1 674 -14 q 643 50 643 17 l 643 263 q 635 297 643 285 q 604 308 626 308 l 424 308 l 424 50 q 408 1 424 17 q 360 -14 393 -14 m 258 1032 q 212 1044 228 1028 q 196 1092 196 1060 l 196 1225 q 210 1271 196 1257 q 258 1289 225 1285 l 743 1349 q 790 1337 774 1353 q 806 1289 806 1321 l 806 1156 q 791 1110 806 1124 q 743 1092 776 1096 l 258 1032 m 742 1106 q 780 1119 768 1108 q 792 1156 792 1129 l 792 1289 q 780 1325 792 1313 q 744 1335 768 1338 l 260 1275 q 222 1262 233 1272 q 210 1225 210 1251 l 210 1092 q 222 1056 210 1068 q 257 1046 233 1043 l 742 1106 m 335 1176 l 667 1218 l 667 1204 l 335 1163 l 335 1176 z "},"Ŗ":{"ha":1032,"x_min":82,"x_max":986,"o":"m 563 861 l 260 861 l 260 460 l 563 460 q 678 501 649 460 q 707 619 707 543 l 707 717 q 672 821 707 781 q 563 861 636 861 m 410 750 l 514 750 q 563 731 550 750 q 575 685 575 713 l 575 638 q 563 591 575 610 q 514 572 550 572 l 410 572 l 410 750 m 514 736 l 424 736 l 424 586 l 514 586 q 552 601 543 586 q 561 638 561 615 l 561 685 q 552 722 561 707 q 514 736 543 736 m 260 125 l 246 125 l 246 875 l 563 875 q 682 830 643 875 q 721 717 721 785 l 721 621 q 704 516 721 557 q 638 460 688 475 l 653 460 q 779 422 738 460 q 821 311 821 383 l 821 125 l 807 125 l 807 311 q 769 413 807 379 q 653 447 732 447 l 260 447 l 260 125 m 360 0 q 398 12 386 0 q 410 50 410 24 l 410 322 l 604 322 q 645 308 633 322 q 657 263 657 293 l 657 50 q 669 12 657 24 q 707 0 681 0 l 922 0 q 960 12 949 0 q 972 50 972 24 l 972 344 q 926 485 972 432 q 804 546 879 538 q 865 605 847 564 q 882 704 882 646 l 882 768 q 823 935 882 871 q 608 1000 764 1000 l 146 1000 q 108 988 119 1000 q 96 950 96 976 l 96 50 q 108 12 96 24 q 146 0 119 0 l 360 0 m 360 -14 l 146 -14 q 97 1 113 -14 q 82 50 82 17 l 82 950 q 97 999 82 983 q 146 1014 113 1014 l 608 1014 q 835 945 774 1014 q 896 768 896 876 l 896 704 q 883 615 896 653 q 842 553 871 576 q 947 481 907 535 q 986 344 986 426 l 986 50 q 971 1 986 17 q 922 -14 956 -14 l 707 -14 q 658 1 674 -14 q 643 50 643 17 l 643 263 q 635 297 643 285 q 604 308 626 308 l 424 308 l 424 50 q 408 1 424 17 q 360 -14 393 -14 m 425 -517 q 383 -503 396 -517 q 369 -460 369 -490 l 369 -412 q 383 -370 369 -383 q 425 -357 396 -357 l 507 -357 q 521 -351 517 -357 q 525 -337 525 -346 l 525 -333 l 419 -333 q 369 -319 383 -333 q 354 -265 354 -304 l 354 -114 q 369 -60 354 -75 q 419 -46 383 -46 l 639 -46 q 690 -60 675 -46 q 704 -114 704 -75 l 704 -325 q 653 -469 704 -421 q 517 -517 601 -517 l 425 -517 m 517 -503 q 643 -458 596 -503 q 690 -325 690 -414 l 690 -114 q 679 -72 690 -83 q 639 -60 668 -60 l 419 -60 q 379 -72 390 -60 q 368 -114 368 -83 l 368 -265 q 379 -308 368 -296 q 419 -319 390 -319 l 539 -319 l 539 -337 q 531 -362 539 -353 q 507 -371 522 -371 l 425 -371 q 393 -381 403 -371 q 383 -412 383 -390 l 383 -460 q 393 -492 383 -482 q 425 -503 403 -503 l 517 -503 m 611 -183 l 611 -318 q 581 -410 611 -382 q 496 -437 551 -437 l 447 -437 l 447 -424 l 496 -424 q 572 -399 546 -424 q 597 -318 597 -374 l 597 -197 l 447 -197 l 447 -183 l 611 -183 z "},"Ř":{"ha":1032,"x_min":82,"x_max":986,"o":"m 563 861 l 260 861 l 260 460 l 563 460 q 678 501 649 460 q 707 619 707 543 l 707 717 q 672 821 707 781 q 563 861 636 861 m 410 750 l 514 750 q 563 731 550 750 q 575 685 575 713 l 575 638 q 563 591 575 610 q 514 572 550 572 l 410 572 l 410 750 m 514 736 l 424 736 l 424 586 l 514 586 q 552 601 543 586 q 561 638 561 615 l 561 685 q 552 722 561 707 q 514 736 543 736 m 260 125 l 246 125 l 246 875 l 563 875 q 682 830 643 875 q 721 717 721 785 l 721 621 q 704 516 721 557 q 638 460 688 475 l 653 460 q 779 422 738 460 q 821 311 821 383 l 821 125 l 807 125 l 807 311 q 769 413 807 379 q 653 447 732 447 l 260 447 l 260 125 m 360 0 q 398 12 386 0 q 410 50 410 24 l 410 322 l 604 322 q 645 308 633 322 q 657 263 657 293 l 657 50 q 669 12 657 24 q 707 0 681 0 l 922 0 q 960 12 949 0 q 972 50 972 24 l 972 344 q 926 485 972 432 q 804 546 879 538 q 865 605 847 564 q 882 704 882 646 l 882 768 q 823 935 882 871 q 608 1000 764 1000 l 146 1000 q 108 988 119 1000 q 96 950 96 976 l 96 50 q 108 12 96 24 q 146 0 119 0 l 360 0 m 360 -14 l 146 -14 q 97 1 113 -14 q 82 50 82 17 l 82 950 q 97 999 82 983 q 146 1014 113 1014 l 608 1014 q 835 945 774 1014 q 896 768 896 876 l 896 704 q 883 615 896 653 q 842 553 871 576 q 947 481 907 535 q 986 344 986 426 l 986 50 q 971 1 986 17 q 922 -14 956 -14 l 707 -14 q 658 1 674 -14 q 643 50 643 17 l 643 263 q 635 297 643 285 q 604 308 626 308 l 424 308 l 424 50 q 408 1 424 17 q 360 -14 393 -14 m 517 1031 q 490 1032 503 1031 q 468 1039 478 1033 l 276 1108 q 222 1138 235 1124 q 210 1194 210 1151 l 210 1307 q 224 1367 210 1356 q 286 1364 239 1378 l 476 1308 q 515 1303 499 1303 q 554 1308 532 1303 l 744 1364 q 805 1367 790 1378 q 819 1307 819 1357 l 819 1194 q 806 1138 819 1151 q 753 1108 792 1124 l 576 1044 q 547 1035 563 1039 q 517 1031 531 1032 m 558 1294 q 515 1289 535 1289 q 472 1294 496 1289 l 282 1350 q 235 1353 246 1361 q 224 1307 224 1344 l 224 1194 q 235 1146 224 1157 q 282 1121 247 1135 l 472 1051 q 493 1046 482 1047 q 517 1044 504 1044 q 544 1049 529 1046 q 571 1057 558 1051 l 749 1121 q 794 1146 782 1135 q 806 1194 806 1157 l 806 1307 q 794 1353 806 1344 q 749 1350 783 1361 l 558 1294 m 349 1221 l 469 1182 q 490 1176 479 1179 q 514 1174 500 1174 q 538 1176 528 1174 q 558 1182 549 1179 l 679 1221 l 679 1206 l 564 1168 q 540 1163 551 1165 q 514 1160 529 1160 q 488 1163 499 1160 q 464 1168 476 1165 l 349 1206 l 349 1221 z "},"S":{"ha":903,"x_min":57,"x_max":861,"o":"m 861 244 q 781 53 861 119 q 560 -14 700 -14 l 121 -14 q 72 1 88 -14 q 57 50 57 17 l 57 213 q 72 261 57 246 q 121 276 88 276 l 494 276 q 511 285 506 276 q 517 303 517 293 q 511 326 517 318 q 493 336 506 335 l 285 365 q 119 434 181 381 q 57 610 57 488 l 57 756 q 137 947 57 881 q 358 1014 217 1014 l 747 1014 q 796 999 781 1014 q 811 950 811 983 l 811 785 q 796 736 811 751 q 747 721 781 721 l 424 721 q 406 713 413 721 q 400 693 400 704 q 406 672 400 681 q 425 663 413 664 l 632 635 q 799 566 736 619 q 861 390 861 513 l 861 244 m 560 0 q 770 63 693 0 q 847 244 847 126 l 847 390 q 788 557 847 507 q 631 621 728 607 l 424 649 q 396 663 406 650 q 386 693 386 675 q 396 723 386 711 q 424 735 406 735 l 747 735 q 785 747 774 735 q 797 785 797 758 l 797 950 q 785 988 797 976 q 747 1000 774 1000 l 358 1000 q 147 937 224 1000 q 71 756 71 874 l 71 610 q 130 443 71 493 q 286 379 189 393 l 494 350 q 522 338 513 349 q 531 303 531 326 q 522 274 531 286 q 494 263 513 263 l 121 263 q 83 251 94 263 q 71 213 71 239 l 71 50 q 83 12 71 24 q 121 0 94 0 l 560 0 m 672 875 l 672 861 l 364 861 q 271 829 306 861 q 236 749 236 797 l 236 635 q 256 567 236 586 q 307 542 275 547 l 600 482 q 669 446 642 474 q 696 346 696 418 l 696 265 q 654 165 696 204 q 542 125 613 125 l 196 125 l 196 139 l 542 139 q 644 174 606 139 q 682 265 682 210 l 682 346 q 659 435 682 411 q 597 468 636 460 l 304 528 q 245 556 268 535 q 222 635 222 578 l 222 749 q 261 840 222 804 q 364 875 300 875 l 672 875 z "},"Ś":{"ha":903,"x_min":57,"x_max":861,"o":"m 861 244 q 781 53 861 119 q 560 -14 700 -14 l 121 -14 q 72 1 88 -14 q 57 50 57 17 l 57 213 q 72 261 57 246 q 121 276 88 276 l 494 276 q 511 285 506 276 q 517 303 517 293 q 511 326 517 318 q 493 336 506 335 l 285 365 q 119 434 181 381 q 57 610 57 488 l 57 756 q 137 947 57 881 q 358 1014 217 1014 l 747 1014 q 796 999 781 1014 q 811 950 811 983 l 811 785 q 796 736 811 751 q 747 721 781 721 l 424 721 q 406 713 413 721 q 400 693 400 704 q 406 672 400 681 q 425 663 413 664 l 632 635 q 799 566 736 619 q 861 390 861 513 l 861 244 m 560 0 q 770 63 693 0 q 847 244 847 126 l 847 390 q 788 557 847 507 q 631 621 728 607 l 424 649 q 396 663 406 650 q 386 693 386 675 q 396 723 386 711 q 424 735 406 735 l 747 735 q 785 747 774 735 q 797 785 797 758 l 797 950 q 785 988 797 976 q 747 1000 774 1000 l 358 1000 q 147 937 224 1000 q 71 756 71 874 l 71 610 q 130 443 71 493 q 286 379 189 393 l 494 350 q 522 338 513 349 q 531 303 531 326 q 522 274 531 286 q 494 263 513 263 l 121 263 q 83 251 94 263 q 71 213 71 239 l 71 50 q 83 12 71 24 q 121 0 94 0 l 560 0 m 672 875 l 672 861 l 364 861 q 271 829 306 861 q 236 749 236 797 l 236 635 q 256 567 236 586 q 307 542 275 547 l 600 482 q 669 446 642 474 q 696 346 696 418 l 696 265 q 654 165 696 204 q 542 125 613 125 l 196 125 l 196 139 l 542 139 q 644 174 606 139 q 682 265 682 210 l 682 346 q 659 435 682 411 q 597 468 636 460 l 304 528 q 245 556 268 535 q 222 635 222 578 l 222 749 q 261 840 222 804 q 364 875 300 875 l 672 875 m 222 1032 q 176 1044 192 1028 q 160 1092 160 1060 l 160 1225 q 174 1271 160 1257 q 222 1289 189 1285 l 707 1349 q 753 1337 738 1353 q 769 1289 769 1321 l 769 1156 q 755 1110 769 1124 q 707 1092 740 1096 l 222 1032 m 706 1106 q 744 1119 732 1108 q 756 1156 756 1129 l 756 1289 q 744 1325 756 1313 q 708 1335 732 1338 l 224 1275 q 185 1262 197 1272 q 174 1225 174 1251 l 174 1092 q 185 1056 174 1068 q 221 1046 197 1043 l 706 1106 m 299 1176 l 631 1218 l 631 1204 l 299 1163 l 299 1176 z "},"Ŝ":{"ha":903,"x_min":57,"x_max":861,"o":"m 861 244 q 781 53 861 119 q 560 -14 700 -14 l 121 -14 q 72 1 88 -14 q 57 50 57 17 l 57 213 q 72 261 57 246 q 121 276 88 276 l 494 276 q 511 285 506 276 q 517 303 517 293 q 511 326 517 318 q 493 336 506 335 l 285 365 q 119 434 181 381 q 57 610 57 488 l 57 756 q 137 947 57 881 q 358 1014 217 1014 l 747 1014 q 796 999 781 1014 q 811 950 811 983 l 811 785 q 796 736 811 751 q 747 721 781 721 l 424 721 q 406 713 413 721 q 400 693 400 704 q 406 672 400 681 q 425 663 413 664 l 632 635 q 799 566 736 619 q 861 390 861 513 l 861 244 m 560 0 q 770 63 693 0 q 847 244 847 126 l 847 390 q 788 557 847 507 q 631 621 728 607 l 424 649 q 396 663 406 650 q 386 693 386 675 q 396 723 386 711 q 424 735 406 735 l 747 735 q 785 747 774 735 q 797 785 797 758 l 797 950 q 785 988 797 976 q 747 1000 774 1000 l 358 1000 q 147 937 224 1000 q 71 756 71 874 l 71 610 q 130 443 71 493 q 286 379 189 393 l 494 350 q 522 338 513 349 q 531 303 531 326 q 522 274 531 286 q 494 263 513 263 l 121 263 q 83 251 94 263 q 71 213 71 239 l 71 50 q 83 12 71 24 q 121 0 94 0 l 560 0 m 672 875 l 672 861 l 364 861 q 271 829 306 861 q 236 749 236 797 l 236 635 q 256 567 236 586 q 307 542 275 547 l 600 482 q 669 446 642 474 q 696 346 696 418 l 696 265 q 654 165 696 204 q 542 125 613 125 l 196 125 l 196 139 l 542 139 q 644 174 606 139 q 682 265 682 210 l 682 346 q 659 435 682 411 q 597 468 636 460 l 304 528 q 245 556 268 535 q 222 635 222 578 l 222 749 q 261 840 222 804 q 364 875 300 875 l 672 875 m 615 1181 l 494 1219 q 474 1225 485 1222 q 450 1228 464 1228 q 426 1225 436 1228 q 406 1219 415 1222 l 285 1181 l 285 1196 l 400 1233 q 424 1239 413 1236 q 450 1242 435 1242 q 476 1239 465 1242 q 500 1233 488 1236 l 615 1196 l 615 1181 m 407 1107 q 450 1113 431 1113 q 493 1107 469 1113 l 683 1051 q 731 1049 719 1040 q 742 1094 742 1057 l 742 1207 q 730 1256 742 1244 q 683 1281 718 1267 l 493 1350 q 472 1356 483 1354 q 449 1357 461 1357 q 422 1353 436 1356 q 394 1344 407 1350 l 217 1281 q 172 1256 183 1267 q 160 1207 160 1244 l 160 1094 q 171 1049 160 1057 q 217 1051 182 1040 l 407 1107 m 221 1038 q 160 1034 175 1024 q 146 1094 146 1044 l 146 1207 q 160 1264 146 1250 q 213 1293 174 1278 l 389 1357 q 419 1366 403 1363 q 449 1371 435 1369 q 475 1369 463 1371 q 497 1363 488 1368 l 689 1293 q 743 1264 731 1278 q 756 1207 756 1250 l 756 1094 q 741 1035 756 1046 q 679 1038 726 1024 l 489 1093 q 450 1099 467 1099 q 411 1093 433 1099 l 221 1038 z "},"Ş":{"ha":903,"x_min":57,"x_max":861,"o":"m 547 -137 q 521 -176 538 -164 q 471 -189 504 -189 l 296 -189 q 240 -168 249 -189 q 242 -115 231 -147 l 278 -14 l 121 -14 q 72 1 88 -14 q 57 50 57 17 l 57 213 q 72 261 57 246 q 121 276 88 276 l 494 276 q 511 285 506 276 q 517 303 517 293 q 511 326 517 318 q 493 336 506 335 l 285 365 q 119 434 181 381 q 57 610 57 488 l 57 756 q 137 947 57 881 q 358 1014 217 1014 l 747 1014 q 796 999 781 1014 q 811 950 811 983 l 811 785 q 796 736 811 751 q 747 721 781 721 l 424 721 q 406 713 413 721 q 400 693 400 704 q 406 672 400 681 q 425 663 413 664 l 632 635 q 799 566 736 619 q 861 390 861 513 l 861 244 q 792 62 861 128 q 597 -12 722 -4 l 592 -12 l 547 -137 m 471 -175 q 513 -165 497 -175 q 535 -133 528 -156 l 582 1 l 594 1 q 780 71 713 8 q 847 244 847 133 l 847 390 q 788 557 847 507 q 631 621 728 607 l 424 649 q 396 663 406 650 q 386 693 386 675 q 396 723 386 711 q 424 735 406 735 l 747 735 q 785 747 774 735 q 797 785 797 758 l 797 950 q 785 988 797 976 q 747 1000 774 1000 l 358 1000 q 147 937 224 1000 q 71 756 71 874 l 71 610 q 130 443 71 493 q 286 379 189 393 l 494 350 q 522 338 513 349 q 531 303 531 326 q 522 274 531 286 q 494 263 513 263 l 121 263 q 83 251 94 263 q 71 213 71 239 l 71 50 q 83 12 71 24 q 121 0 94 0 l 297 0 l 254 -119 q 253 -160 244 -144 q 296 -175 261 -175 l 471 -175 m 542 125 l 493 125 l 429 -50 l 415 -50 l 478 125 l 196 125 l 196 139 l 542 139 q 644 174 606 139 q 682 265 682 210 l 682 346 q 659 435 682 411 q 597 468 636 460 l 304 528 q 245 556 268 535 q 222 635 222 578 l 222 749 q 261 840 222 804 q 364 875 300 875 l 672 875 l 672 861 l 364 861 q 271 829 306 861 q 236 749 236 797 l 236 635 q 256 567 236 586 q 307 542 275 547 l 600 482 q 669 446 642 474 q 696 346 696 418 l 696 265 q 654 165 696 204 q 542 125 613 125 z "},"Š":{"ha":903,"x_min":57,"x_max":861,"o":"m 861 244 q 781 53 861 119 q 560 -14 700 -14 l 121 -14 q 72 1 88 -14 q 57 50 57 17 l 57 213 q 72 261 57 246 q 121 276 88 276 l 494 276 q 511 285 506 276 q 517 303 517 293 q 511 326 517 318 q 493 336 506 335 l 285 365 q 119 434 181 381 q 57 610 57 488 l 57 756 q 137 947 57 881 q 358 1014 217 1014 l 747 1014 q 796 999 781 1014 q 811 950 811 983 l 811 785 q 796 736 811 751 q 747 721 781 721 l 424 721 q 406 713 413 721 q 400 693 400 704 q 406 672 400 681 q 425 663 413 664 l 632 635 q 799 566 736 619 q 861 390 861 513 l 861 244 m 560 0 q 770 63 693 0 q 847 244 847 126 l 847 390 q 788 557 847 507 q 631 621 728 607 l 424 649 q 396 663 406 650 q 386 693 386 675 q 396 723 386 711 q 424 735 406 735 l 747 735 q 785 747 774 735 q 797 785 797 758 l 797 950 q 785 988 797 976 q 747 1000 774 1000 l 358 1000 q 147 937 224 1000 q 71 756 71 874 l 71 610 q 130 443 71 493 q 286 379 189 393 l 494 350 q 522 338 513 349 q 531 303 531 326 q 522 274 531 286 q 494 263 513 263 l 121 263 q 83 251 94 263 q 71 213 71 239 l 71 50 q 83 12 71 24 q 121 0 94 0 l 560 0 m 672 875 l 672 861 l 364 861 q 271 829 306 861 q 236 749 236 797 l 236 635 q 256 567 236 586 q 307 542 275 547 l 600 482 q 669 446 642 474 q 696 346 696 418 l 696 265 q 654 165 696 204 q 542 125 613 125 l 196 125 l 196 139 l 542 139 q 644 174 606 139 q 682 265 682 210 l 682 346 q 659 435 682 411 q 597 468 636 460 l 304 528 q 245 556 268 535 q 222 635 222 578 l 222 749 q 261 840 222 804 q 364 875 300 875 l 672 875 m 467 1031 q 440 1032 453 1031 q 418 1039 428 1033 l 226 1108 q 172 1138 185 1124 q 160 1194 160 1151 l 160 1307 q 174 1367 160 1356 q 236 1364 189 1378 l 426 1308 q 465 1303 449 1303 q 504 1308 482 1303 l 694 1364 q 755 1367 740 1378 q 769 1307 769 1357 l 769 1194 q 756 1138 769 1151 q 703 1108 742 1124 l 526 1044 q 497 1035 513 1039 q 467 1031 481 1032 m 508 1294 q 465 1289 485 1289 q 422 1294 446 1289 l 232 1350 q 185 1353 196 1361 q 174 1307 174 1344 l 174 1194 q 185 1146 174 1157 q 232 1121 197 1135 l 422 1051 q 443 1046 432 1047 q 467 1044 454 1044 q 494 1049 479 1046 q 521 1057 508 1051 l 699 1121 q 744 1146 732 1135 q 756 1194 756 1157 l 756 1307 q 744 1353 756 1344 q 699 1350 733 1361 l 508 1294 m 299 1221 l 419 1182 q 440 1176 429 1179 q 464 1174 450 1174 q 488 1176 478 1174 q 508 1182 499 1179 l 629 1221 l 629 1206 l 514 1168 q 490 1163 501 1165 q 464 1160 479 1160 q 438 1163 449 1160 q 414 1168 426 1165 l 299 1206 l 299 1221 z "},"Ș":{"ha":903,"x_min":57,"x_max":861,"o":"m 861 244 q 781 53 861 119 q 560 -14 700 -14 l 121 -14 q 72 1 88 -14 q 57 50 57 17 l 57 213 q 72 261 57 246 q 121 276 88 276 l 494 276 q 511 285 506 276 q 517 303 517 293 q 511 326 517 318 q 493 336 506 335 l 285 365 q 119 434 181 381 q 57 610 57 488 l 57 756 q 137 947 57 881 q 358 1014 217 1014 l 747 1014 q 796 999 781 1014 q 811 950 811 983 l 811 785 q 796 736 811 751 q 747 721 781 721 l 424 721 q 406 713 413 721 q 400 693 400 704 q 406 672 400 681 q 425 663 413 664 l 632 635 q 799 566 736 619 q 861 390 861 513 l 861 244 m 560 0 q 770 63 693 0 q 847 244 847 126 l 847 390 q 788 557 847 507 q 631 621 728 607 l 424 649 q 396 663 406 650 q 386 693 386 675 q 396 723 386 711 q 424 735 406 735 l 747 735 q 785 747 774 735 q 797 785 797 758 l 797 950 q 785 988 797 976 q 747 1000 774 1000 l 358 1000 q 147 937 224 1000 q 71 756 71 874 l 71 610 q 130 443 71 493 q 286 379 189 393 l 494 350 q 522 338 513 349 q 531 303 531 326 q 522 274 531 286 q 494 263 513 263 l 121 263 q 83 251 94 263 q 71 213 71 239 l 71 50 q 83 12 71 24 q 121 0 94 0 l 560 0 m 672 875 l 672 861 l 364 861 q 271 829 306 861 q 236 749 236 797 l 236 635 q 256 567 236 586 q 307 542 275 547 l 600 482 q 669 446 642 474 q 696 346 696 418 l 696 265 q 654 165 696 204 q 542 125 613 125 l 196 125 l 196 139 l 542 139 q 644 174 606 139 q 682 265 682 210 l 682 346 q 659 435 682 411 q 597 468 636 460 l 304 528 q 245 556 268 535 q 222 635 222 578 l 222 749 q 261 840 222 804 q 364 875 300 875 l 672 875 m 361 -517 q 319 -503 332 -517 q 306 -460 306 -490 l 306 -412 q 319 -370 306 -383 q 361 -357 332 -357 l 443 -357 q 457 -351 453 -357 q 461 -337 461 -346 l 461 -333 l 356 -333 q 305 -319 319 -333 q 290 -265 290 -304 l 290 -114 q 305 -60 290 -75 q 356 -46 319 -46 l 575 -46 q 626 -60 611 -46 q 640 -114 640 -75 l 640 -325 q 589 -469 640 -421 q 453 -517 538 -517 l 361 -517 m 453 -503 q 579 -458 532 -503 q 626 -325 626 -414 l 626 -114 q 615 -72 626 -83 q 575 -60 604 -60 l 356 -60 q 315 -72 326 -60 q 304 -114 304 -83 l 304 -265 q 315 -308 304 -296 q 356 -319 326 -319 l 475 -319 l 475 -337 q 467 -362 475 -353 q 443 -371 458 -371 l 361 -371 q 329 -381 339 -371 q 319 -412 319 -390 l 319 -460 q 329 -492 319 -482 q 361 -503 339 -503 l 453 -503 m 547 -183 l 547 -318 q 517 -410 547 -382 q 432 -437 488 -437 l 383 -437 l 383 -424 l 432 -424 q 508 -399 482 -424 q 533 -318 533 -374 l 533 -197 l 383 -197 l 383 -183 l 547 -183 z "},"T":{"ha":911,"x_min":25,"x_max":886,"o":"m 343 -14 q 294 1 310 -14 q 279 50 279 17 l 279 718 l 89 718 q 40 733 56 718 q 25 782 25 749 l 25 950 q 40 999 25 983 q 89 1014 56 1014 l 822 1014 q 871 999 856 1014 q 886 950 886 983 l 886 782 q 871 733 886 749 q 822 718 856 718 l 632 718 l 632 50 q 617 1 632 17 q 568 -14 601 -14 l 343 -14 m 568 0 q 606 12 594 0 q 618 50 618 24 l 618 732 l 822 732 q 860 744 849 732 q 872 782 872 756 l 872 950 q 860 988 872 976 q 822 1000 849 1000 l 89 1000 q 51 988 63 1000 q 39 950 39 976 l 39 782 q 51 744 39 756 q 89 732 63 732 l 293 732 l 293 50 q 305 12 293 24 q 343 0 317 0 l 568 0 m 449 125 l 449 861 l 164 861 l 164 875 l 747 875 l 747 861 l 463 861 l 463 125 l 449 125 z "},"Ţ":{"ha":911,"x_min":25,"x_max":886,"o":"m 343 -14 q 294 1 310 -14 q 279 50 279 17 l 279 718 l 89 718 q 40 733 56 718 q 25 782 25 749 l 25 950 q 40 999 25 983 q 89 1014 56 1014 l 822 1014 q 871 999 856 1014 q 886 950 886 983 l 886 782 q 871 733 886 749 q 822 718 856 718 l 632 718 l 632 50 q 617 1 632 17 q 568 -14 601 -14 l 343 -14 m 568 0 q 606 12 594 0 q 618 50 618 24 l 618 732 l 822 732 q 860 744 849 732 q 872 782 872 756 l 872 950 q 860 988 872 976 q 822 1000 849 1000 l 89 1000 q 51 988 63 1000 q 39 950 39 976 l 39 782 q 51 744 39 756 q 89 732 63 732 l 293 732 l 293 50 q 305 12 293 24 q 343 0 317 0 l 568 0 m 449 125 l 449 861 l 164 861 l 164 875 l 747 875 l 747 861 l 463 861 l 463 125 l 449 125 m 351 -517 q 309 -503 322 -517 q 296 -460 296 -490 l 296 -412 q 309 -370 296 -383 q 351 -357 322 -357 l 433 -357 q 447 -351 443 -357 q 451 -337 451 -346 l 451 -333 l 346 -333 q 295 -319 310 -333 q 281 -265 281 -304 l 281 -114 q 295 -60 281 -75 q 346 -46 310 -46 l 565 -46 q 616 -60 601 -46 q 631 -114 631 -75 l 631 -325 q 579 -469 631 -421 q 443 -517 528 -517 l 351 -517 m 443 -503 q 569 -458 522 -503 q 617 -325 617 -414 l 617 -114 q 606 -72 617 -83 q 565 -60 594 -60 l 346 -60 q 306 -72 317 -60 q 294 -114 294 -83 l 294 -265 q 306 -308 294 -296 q 346 -319 317 -319 l 465 -319 l 465 -337 q 457 -362 465 -353 q 433 -371 449 -371 l 351 -371 q 319 -381 329 -371 q 310 -412 310 -390 l 310 -460 q 319 -492 310 -482 q 351 -503 329 -503 l 443 -503 m 538 -183 l 538 -318 q 508 -410 538 -382 q 422 -437 478 -437 l 374 -437 l 374 -424 l 422 -424 q 498 -399 472 -424 q 524 -318 524 -374 l 524 -197 l 374 -197 l 374 -183 l 538 -183 z "},"Ť":{"ha":911,"x_min":25,"x_max":886,"o":"m 343 -14 q 294 1 310 -14 q 279 50 279 17 l 279 718 l 89 718 q 40 733 56 718 q 25 782 25 749 l 25 950 q 40 999 25 983 q 89 1014 56 1014 l 822 1014 q 871 999 856 1014 q 886 950 886 983 l 886 782 q 871 733 886 749 q 822 718 856 718 l 632 718 l 632 50 q 617 1 632 17 q 568 -14 601 -14 l 343 -14 m 568 0 q 606 12 594 0 q 618 50 618 24 l 618 732 l 822 732 q 860 744 849 732 q 872 782 872 756 l 872 950 q 860 988 872 976 q 822 1000 849 1000 l 89 1000 q 51 988 63 1000 q 39 950 39 976 l 39 782 q 51 744 39 756 q 89 732 63 732 l 293 732 l 293 50 q 305 12 293 24 q 343 0 317 0 l 568 0 m 449 125 l 449 861 l 164 861 l 164 875 l 747 875 l 747 861 l 463 861 l 463 125 l 449 125 m 457 1031 q 431 1032 443 1031 q 408 1039 418 1033 l 217 1108 q 163 1138 175 1124 q 150 1194 150 1151 l 150 1307 q 165 1367 150 1356 q 226 1364 179 1378 l 417 1308 q 456 1303 439 1303 q 494 1308 472 1303 l 685 1364 q 745 1367 731 1378 q 760 1307 760 1357 l 760 1194 q 746 1138 760 1151 q 693 1108 732 1124 l 517 1044 q 487 1035 503 1039 q 457 1031 471 1032 m 499 1294 q 456 1289 475 1289 q 413 1294 436 1289 l 222 1350 q 175 1353 186 1361 q 164 1307 164 1344 l 164 1194 q 176 1146 164 1157 q 222 1121 188 1135 l 413 1051 q 433 1046 422 1047 q 457 1044 444 1044 q 484 1049 469 1046 q 511 1057 499 1051 l 689 1121 q 734 1146 722 1135 q 746 1194 746 1157 l 746 1307 q 735 1353 746 1344 q 689 1350 724 1361 l 499 1294 m 289 1221 l 410 1182 q 430 1176 419 1179 q 454 1174 440 1174 q 478 1176 468 1174 q 499 1182 489 1179 l 619 1221 l 619 1206 l 504 1168 q 481 1163 492 1165 q 454 1160 469 1160 q 428 1163 439 1160 q 404 1168 417 1165 l 289 1206 l 289 1221 z "},"U":{"ha":1036,"x_min":75,"x_max":961,"o":"m 961 950 l 961 263 q 942 142 961 197 q 875 49 924 88 q 740 -12 826 10 q 518 -35 653 -35 q 297 -12 383 -35 q 161 49 210 10 q 94 142 113 88 q 75 263 75 197 l 75 950 q 90 999 75 983 q 139 1014 106 1014 l 357 1014 q 406 999 390 1014 q 421 950 421 983 l 421 317 q 442 278 421 292 q 521 265 464 265 q 601 278 579 265 q 622 317 622 292 l 622 950 q 637 999 622 983 q 686 1014 651 1014 l 897 1014 q 946 999 931 1014 q 961 950 961 983 m 947 263 l 947 950 q 935 988 947 976 q 897 1000 924 1000 l 686 1000 q 648 988 660 1000 q 636 950 636 976 l 636 317 q 615 270 636 289 q 521 251 594 251 q 428 270 449 251 q 407 317 407 289 l 407 950 q 395 988 407 976 q 357 1000 383 1000 l 139 1000 q 101 988 113 1000 q 89 950 89 976 l 89 263 q 108 147 89 199 q 174 58 126 94 q 306 0 222 21 q 518 -21 389 -21 q 731 0 647 -21 q 862 58 814 21 q 928 147 910 94 q 947 263 947 199 m 242 875 l 256 875 l 256 296 q 310 170 256 218 q 519 122 365 122 q 729 170 674 122 q 785 296 785 218 l 785 875 l 799 875 l 799 296 q 740 160 799 213 q 519 108 682 108 q 299 160 357 108 q 242 296 242 213 l 242 875 z "},"Ù":{"ha":1036,"x_min":75,"x_max":961,"o":"m 961 950 l 961 263 q 942 142 961 197 q 875 49 924 88 q 740 -12 826 10 q 518 -35 653 -35 q 297 -12 383 -35 q 161 49 210 10 q 94 142 113 88 q 75 263 75 197 l 75 950 q 90 999 75 983 q 139 1014 106 1014 l 357 1014 q 406 999 390 1014 q 421 950 421 983 l 421 317 q 442 278 421 292 q 521 265 464 265 q 601 278 579 265 q 622 317 622 292 l 622 950 q 637 999 622 983 q 686 1014 651 1014 l 897 1014 q 946 999 931 1014 q 961 950 961 983 m 947 263 l 947 950 q 935 988 947 976 q 897 1000 924 1000 l 686 1000 q 648 988 660 1000 q 636 950 636 976 l 636 317 q 615 270 636 289 q 521 251 594 251 q 428 270 449 251 q 407 317 407 289 l 407 950 q 395 988 407 976 q 357 1000 383 1000 l 139 1000 q 101 988 113 1000 q 89 950 89 976 l 89 263 q 108 147 89 199 q 174 58 126 94 q 306 0 222 21 q 518 -21 389 -21 q 731 0 647 -21 q 862 58 814 21 q 928 147 910 94 q 947 263 947 199 m 242 875 l 256 875 l 256 296 q 310 170 256 218 q 519 122 365 122 q 729 170 674 122 q 785 296 785 218 l 785 875 l 799 875 l 799 296 q 740 160 799 213 q 519 108 682 108 q 299 160 357 108 q 242 296 242 213 l 242 875 m 808 1092 q 792 1044 808 1060 q 746 1032 776 1028 l 261 1092 q 213 1110 228 1096 q 199 1156 199 1124 l 199 1289 q 215 1337 199 1321 q 261 1349 231 1353 l 746 1289 q 794 1271 779 1285 q 808 1225 808 1257 l 808 1092 m 747 1046 q 783 1056 771 1043 q 794 1092 794 1068 l 794 1225 q 783 1262 794 1251 q 744 1275 771 1272 l 260 1335 q 224 1325 236 1338 q 213 1289 213 1313 l 213 1156 q 224 1119 213 1129 q 263 1106 236 1108 l 747 1046 m 338 1204 l 338 1218 l 669 1176 l 669 1163 l 338 1204 z "},"Ú":{"ha":1036,"x_min":75,"x_max":961,"o":"m 961 950 l 961 263 q 942 142 961 197 q 875 49 924 88 q 740 -12 826 10 q 518 -35 653 -35 q 297 -12 383 -35 q 161 49 210 10 q 94 142 113 88 q 75 263 75 197 l 75 950 q 90 999 75 983 q 139 1014 106 1014 l 357 1014 q 406 999 390 1014 q 421 950 421 983 l 421 317 q 442 278 421 292 q 521 265 464 265 q 601 278 579 265 q 622 317 622 292 l 622 950 q 637 999 622 983 q 686 1014 651 1014 l 897 1014 q 946 999 931 1014 q 961 950 961 983 m 947 263 l 947 950 q 935 988 947 976 q 897 1000 924 1000 l 686 1000 q 648 988 660 1000 q 636 950 636 976 l 636 317 q 615 270 636 289 q 521 251 594 251 q 428 270 449 251 q 407 317 407 289 l 407 950 q 395 988 407 976 q 357 1000 383 1000 l 139 1000 q 101 988 113 1000 q 89 950 89 976 l 89 263 q 108 147 89 199 q 174 58 126 94 q 306 0 222 21 q 518 -21 389 -21 q 731 0 647 -21 q 862 58 814 21 q 928 147 910 94 q 947 263 947 199 m 242 875 l 256 875 l 256 296 q 310 170 256 218 q 519 122 365 122 q 729 170 674 122 q 785 296 785 218 l 785 875 l 799 875 l 799 296 q 740 160 799 213 q 519 108 682 108 q 299 160 357 108 q 242 296 242 213 l 242 875 m 289 1032 q 242 1044 258 1028 q 226 1092 226 1060 l 226 1225 q 241 1271 226 1257 q 289 1289 256 1285 l 774 1349 q 820 1337 804 1353 q 836 1289 836 1321 l 836 1156 q 822 1110 836 1124 q 774 1092 807 1096 l 289 1032 m 772 1106 q 810 1119 799 1108 q 822 1156 822 1129 l 822 1289 q 810 1325 822 1313 q 775 1335 799 1338 l 290 1275 q 252 1262 264 1272 q 240 1225 240 1251 l 240 1092 q 252 1056 240 1068 q 288 1046 264 1043 l 772 1106 m 365 1176 l 697 1218 l 697 1204 l 365 1163 l 365 1176 z "},"Û":{"ha":1036,"x_min":75,"x_max":961,"o":"m 961 950 l 961 263 q 942 142 961 197 q 875 49 924 88 q 740 -12 826 10 q 518 -35 653 -35 q 297 -12 383 -35 q 161 49 210 10 q 94 142 113 88 q 75 263 75 197 l 75 950 q 90 999 75 983 q 139 1014 106 1014 l 357 1014 q 406 999 390 1014 q 421 950 421 983 l 421 317 q 442 278 421 292 q 521 265 464 265 q 601 278 579 265 q 622 317 622 292 l 622 950 q 637 999 622 983 q 686 1014 651 1014 l 897 1014 q 946 999 931 1014 q 961 950 961 983 m 947 263 l 947 950 q 935 988 947 976 q 897 1000 924 1000 l 686 1000 q 648 988 660 1000 q 636 950 636 976 l 636 317 q 615 270 636 289 q 521 251 594 251 q 428 270 449 251 q 407 317 407 289 l 407 950 q 395 988 407 976 q 357 1000 383 1000 l 139 1000 q 101 988 113 1000 q 89 950 89 976 l 89 263 q 108 147 89 199 q 174 58 126 94 q 306 0 222 21 q 518 -21 389 -21 q 731 0 647 -21 q 862 58 814 21 q 928 147 910 94 q 947 263 947 199 m 242 875 l 256 875 l 256 296 q 310 170 256 218 q 519 122 365 122 q 729 170 674 122 q 785 296 785 218 l 785 875 l 799 875 l 799 296 q 740 160 799 213 q 519 108 682 108 q 299 160 357 108 q 242 296 242 213 l 242 875 m 682 1181 l 561 1219 q 541 1225 551 1222 q 517 1228 531 1228 q 492 1225 503 1228 q 472 1219 482 1222 l 351 1181 l 351 1196 l 467 1233 q 490 1239 479 1236 q 517 1242 501 1242 q 543 1239 532 1242 q 567 1233 554 1236 l 682 1196 l 682 1181 m 474 1107 q 517 1113 497 1113 q 560 1107 536 1113 l 750 1051 q 797 1049 786 1040 q 808 1094 808 1057 l 808 1207 q 797 1256 808 1244 q 750 1281 785 1267 l 560 1350 q 539 1356 550 1354 q 515 1357 528 1357 q 488 1353 503 1356 q 461 1344 474 1350 l 283 1281 q 238 1256 250 1267 q 226 1207 226 1244 l 226 1094 q 238 1049 226 1057 q 283 1051 249 1040 l 474 1107 m 288 1038 q 227 1034 242 1024 q 213 1094 213 1044 l 213 1207 q 226 1264 213 1250 q 279 1293 240 1278 l 456 1357 q 485 1366 469 1363 q 515 1371 501 1369 q 542 1369 529 1371 q 564 1363 554 1368 l 756 1293 q 810 1264 797 1278 q 822 1207 822 1250 l 822 1094 q 808 1035 822 1046 q 746 1038 793 1024 l 556 1093 q 517 1099 533 1099 q 478 1093 500 1099 l 288 1038 z "},"Ü":{"ha":1036,"x_min":75,"x_max":961,"o":"m 961 950 l 961 263 q 942 142 961 197 q 875 49 924 88 q 740 -12 826 10 q 518 -35 653 -35 q 297 -12 383 -35 q 161 49 210 10 q 94 142 113 88 q 75 263 75 197 l 75 950 q 90 999 75 983 q 139 1014 106 1014 l 357 1014 q 406 999 390 1014 q 421 950 421 983 l 421 317 q 442 278 421 292 q 521 265 464 265 q 601 278 579 265 q 622 317 622 292 l 622 950 q 637 999 622 983 q 686 1014 651 1014 l 897 1014 q 946 999 931 1014 q 961 950 961 983 m 947 263 l 947 950 q 935 988 947 976 q 897 1000 924 1000 l 686 1000 q 648 988 660 1000 q 636 950 636 976 l 636 317 q 615 270 636 289 q 521 251 594 251 q 428 270 449 251 q 407 317 407 289 l 407 950 q 395 988 407 976 q 357 1000 383 1000 l 139 1000 q 101 988 113 1000 q 89 950 89 976 l 89 263 q 108 147 89 199 q 174 58 126 94 q 306 0 222 21 q 518 -21 389 -21 q 731 0 647 -21 q 862 58 814 21 q 928 147 910 94 q 947 263 947 199 m 242 875 l 256 875 l 256 296 q 310 170 256 218 q 519 122 365 122 q 729 170 674 122 q 785 296 785 218 l 785 875 l 799 875 l 799 296 q 740 160 799 213 q 519 108 682 108 q 299 160 357 108 q 242 296 242 213 l 242 875 m 492 1101 q 477 1056 492 1071 q 432 1042 463 1042 l 240 1042 q 194 1056 210 1042 q 179 1101 179 1071 l 179 1269 q 194 1315 179 1300 q 240 1329 210 1329 l 432 1329 q 477 1315 463 1329 q 492 1269 492 1300 l 492 1101 m 850 1101 q 835 1056 850 1071 q 790 1042 821 1042 l 599 1042 q 553 1056 568 1042 q 539 1101 539 1071 l 539 1269 q 553 1315 539 1300 q 599 1329 568 1329 l 790 1329 q 835 1315 821 1329 q 850 1269 850 1300 l 850 1101 m 432 1056 q 467 1067 456 1056 q 478 1101 478 1078 l 478 1269 q 467 1304 478 1293 q 432 1315 456 1315 l 240 1315 q 205 1304 217 1315 q 193 1269 193 1293 l 193 1101 q 205 1067 193 1078 q 240 1056 217 1056 l 432 1056 m 790 1056 q 825 1067 814 1056 q 836 1101 836 1078 l 836 1269 q 825 1304 836 1293 q 790 1315 814 1315 l 599 1315 q 564 1304 575 1315 q 553 1269 553 1293 l 553 1101 q 564 1067 553 1078 q 599 1056 575 1056 l 790 1056 m 343 1153 l 329 1153 l 329 1218 l 343 1218 l 343 1153 m 701 1153 l 688 1153 l 688 1218 l 701 1218 l 701 1153 z "},"Ũ":{"ha":1036,"x_min":75,"x_max":961,"o":"m 961 950 l 961 263 q 942 142 961 197 q 875 49 924 88 q 740 -12 826 10 q 518 -35 653 -35 q 297 -12 383 -35 q 161 49 210 10 q 94 142 113 88 q 75 263 75 197 l 75 950 q 90 999 75 983 q 139 1014 106 1014 l 357 1014 q 406 999 390 1014 q 421 950 421 983 l 421 317 q 442 278 421 292 q 521 265 464 265 q 601 278 579 265 q 622 317 622 292 l 622 950 q 637 999 622 983 q 686 1014 651 1014 l 897 1014 q 946 999 931 1014 q 961 950 961 983 m 947 263 l 947 950 q 935 988 947 976 q 897 1000 924 1000 l 686 1000 q 648 988 660 1000 q 636 950 636 976 l 636 317 q 615 270 636 289 q 521 251 594 251 q 428 270 449 251 q 407 317 407 289 l 407 950 q 395 988 407 976 q 357 1000 383 1000 l 139 1000 q 101 988 113 1000 q 89 950 89 976 l 89 263 q 108 147 89 199 q 174 58 126 94 q 306 0 222 21 q 518 -21 389 -21 q 731 0 647 -21 q 862 58 814 21 q 928 147 910 94 q 947 263 947 199 m 242 875 l 256 875 l 256 296 q 310 170 256 218 q 519 122 365 122 q 729 170 674 122 q 785 296 785 218 l 785 875 l 799 875 l 799 296 q 740 160 799 213 q 519 108 682 108 q 299 160 357 108 q 242 296 242 213 l 242 875 m 761 1051 q 704 1037 728 1042 q 658 1032 681 1032 q 608 1035 636 1032 q 538 1044 581 1039 l 515 1047 l 476 1053 q 413 1060 438 1058 q 367 1060 388 1063 q 326 1053 346 1058 q 281 1040 307 1049 q 229 1043 246 1031 q 213 1090 213 1056 l 213 1231 q 227 1275 213 1261 q 271 1300 242 1289 l 272 1300 l 272 1301 q 328 1316 306 1311 q 374 1321 351 1321 q 424 1317 397 1321 q 494 1308 451 1314 l 518 1306 l 549 1301 q 619 1292 593 1294 q 665 1290 646 1289 q 704 1297 685 1292 q 753 1313 724 1303 q 804 1310 788 1322 q 821 1263 821 1297 l 821 1122 q 806 1078 821 1092 q 763 1053 792 1064 l 761 1053 l 761 1051 m 517 1061 l 539 1058 q 608 1049 581 1053 q 657 1046 635 1046 q 701 1051 679 1046 q 757 1065 724 1056 q 794 1085 781 1075 q 807 1122 807 1096 l 807 1263 q 794 1297 807 1289 q 757 1299 782 1306 q 707 1283 726 1289 q 667 1276 688 1278 q 620 1278 647 1275 q 547 1288 593 1281 l 517 1292 l 493 1294 q 424 1303 451 1300 q 376 1307 397 1307 q 332 1302 354 1307 q 276 1288 310 1297 q 240 1267 253 1278 q 226 1231 226 1257 l 226 1090 q 239 1056 226 1064 q 276 1054 251 1047 q 324 1067 304 1063 q 365 1074 344 1072 q 413 1074 386 1076 q 478 1067 439 1072 l 517 1061 m 682 1168 l 682 1154 q 622 1154 654 1151 q 538 1165 590 1157 l 515 1168 l 476 1174 q 402 1182 431 1181 q 351 1179 374 1183 l 351 1194 q 403 1195 375 1197 q 479 1188 432 1193 l 518 1182 l 540 1179 q 624 1168 593 1171 q 682 1168 654 1165 z "},"Ū":{"ha":1036,"x_min":75,"x_max":961,"o":"m 961 950 l 961 263 q 942 142 961 197 q 875 49 924 88 q 740 -12 826 10 q 518 -35 653 -35 q 297 -12 383 -35 q 161 49 210 10 q 94 142 113 88 q 75 263 75 197 l 75 950 q 90 999 75 983 q 139 1014 106 1014 l 357 1014 q 406 999 390 1014 q 421 950 421 983 l 421 317 q 442 278 421 292 q 521 265 464 265 q 601 278 579 265 q 622 317 622 292 l 622 950 q 637 999 622 983 q 686 1014 651 1014 l 897 1014 q 946 999 931 1014 q 961 950 961 983 m 947 263 l 947 950 q 935 988 947 976 q 897 1000 924 1000 l 686 1000 q 648 988 660 1000 q 636 950 636 976 l 636 317 q 615 270 636 289 q 521 251 594 251 q 428 270 449 251 q 407 317 407 289 l 407 950 q 395 988 407 976 q 357 1000 383 1000 l 139 1000 q 101 988 113 1000 q 89 950 89 976 l 89 263 q 108 147 89 199 q 174 58 126 94 q 306 0 222 21 q 518 -21 389 -21 q 731 0 647 -21 q 862 58 814 21 q 928 147 910 94 q 947 263 947 199 m 242 875 l 256 875 l 256 296 q 310 170 256 218 q 519 122 365 122 q 729 170 674 122 q 785 296 785 218 l 785 875 l 799 875 l 799 296 q 740 160 799 213 q 519 108 682 108 q 299 160 357 108 q 242 296 242 213 l 242 875 m 822 1106 q 807 1057 822 1072 q 758 1042 792 1042 l 276 1042 q 228 1057 243 1042 q 213 1106 213 1072 l 213 1235 q 228 1283 213 1268 q 276 1299 243 1299 l 758 1299 q 807 1283 792 1299 q 822 1235 822 1268 l 822 1106 m 758 1056 q 797 1067 785 1056 q 808 1106 808 1079 l 808 1235 q 797 1273 808 1261 q 758 1285 785 1285 l 276 1285 q 238 1273 250 1285 q 226 1235 226 1261 l 226 1106 q 238 1067 226 1079 q 276 1056 250 1056 l 758 1056 m 351 1176 l 683 1176 l 683 1163 l 351 1163 l 351 1176 z "},"Ŭ":{"ha":1036,"x_min":75,"x_max":961,"o":"m 961 950 l 961 263 q 942 142 961 197 q 875 49 924 88 q 740 -12 826 10 q 518 -35 653 -35 q 297 -12 383 -35 q 161 49 210 10 q 94 142 113 88 q 75 263 75 197 l 75 950 q 90 999 75 983 q 139 1014 106 1014 l 357 1014 q 406 999 390 1014 q 421 950 421 983 l 421 317 q 442 278 421 292 q 521 265 464 265 q 601 278 579 265 q 622 317 622 292 l 622 950 q 637 999 622 983 q 686 1014 651 1014 l 897 1014 q 946 999 931 1014 q 961 950 961 983 m 947 263 l 947 950 q 935 988 947 976 q 897 1000 924 1000 l 686 1000 q 648 988 660 1000 q 636 950 636 976 l 636 317 q 615 270 636 289 q 521 251 594 251 q 428 270 449 251 q 407 317 407 289 l 407 950 q 395 988 407 976 q 357 1000 383 1000 l 139 1000 q 101 988 113 1000 q 89 950 89 976 l 89 263 q 108 147 89 199 q 174 58 126 94 q 306 0 222 21 q 518 -21 389 -21 q 731 0 647 -21 q 862 58 814 21 q 928 147 910 94 q 947 263 947 199 m 242 875 l 256 875 l 256 296 q 310 170 256 218 q 519 122 365 122 q 729 170 674 122 q 785 296 785 218 l 785 875 l 799 875 l 799 296 q 740 160 799 213 q 519 108 682 108 q 299 160 357 108 q 242 296 242 213 l 242 875 m 833 1307 l 833 1246 q 820 1160 833 1200 q 772 1093 807 1121 q 676 1049 738 1065 q 518 1033 614 1033 q 360 1049 422 1033 q 264 1093 299 1065 q 216 1160 229 1121 q 203 1246 203 1200 l 203 1307 q 218 1356 203 1340 q 267 1371 233 1371 l 400 1371 q 442 1359 429 1371 q 454 1314 454 1347 l 454 1285 q 469 1260 454 1268 q 519 1253 485 1253 q 572 1260 556 1253 q 588 1285 588 1268 l 588 1314 q 600 1359 588 1347 q 643 1371 613 1371 l 769 1371 q 818 1356 803 1371 q 833 1307 833 1340 m 819 1246 l 819 1307 q 808 1345 819 1333 q 769 1357 796 1357 l 643 1357 q 610 1348 619 1357 q 601 1314 601 1339 l 601 1285 q 586 1252 601 1265 q 519 1239 571 1239 q 454 1252 468 1239 q 440 1285 440 1265 l 440 1314 q 431 1348 440 1339 q 400 1357 422 1357 l 267 1357 q 228 1345 240 1357 q 217 1307 217 1333 l 217 1246 q 230 1165 217 1201 q 277 1102 243 1128 q 369 1062 311 1076 q 518 1047 428 1047 q 667 1062 608 1047 q 759 1102 725 1076 q 806 1165 793 1128 q 819 1246 819 1201 m 704 1260 l 718 1260 l 718 1247 q 710 1208 718 1228 q 682 1172 703 1188 q 621 1146 661 1156 q 517 1136 581 1136 q 414 1146 453 1136 q 355 1172 375 1156 q 328 1208 335 1188 q 322 1247 322 1228 l 322 1260 l 336 1260 l 336 1247 q 370 1180 336 1210 q 517 1150 404 1150 q 667 1180 629 1150 q 704 1247 704 1210 l 704 1260 z "},"Ů":{"ha":1036,"x_min":75,"x_max":961,"o":"m 961 950 l 961 263 q 942 142 961 197 q 875 49 924 88 q 740 -12 826 10 q 518 -35 653 -35 q 297 -12 383 -35 q 161 49 210 10 q 94 142 113 88 q 75 263 75 197 l 75 950 q 90 999 75 983 q 139 1014 106 1014 l 357 1014 q 406 999 390 1014 q 421 950 421 983 l 421 317 q 442 278 421 292 q 521 265 464 265 q 601 278 579 265 q 622 317 622 292 l 622 950 q 637 999 622 983 q 686 1014 651 1014 l 897 1014 q 946 999 931 1014 q 961 950 961 983 m 947 263 l 947 950 q 935 988 947 976 q 897 1000 924 1000 l 686 1000 q 648 988 660 1000 q 636 950 636 976 l 636 317 q 615 270 636 289 q 521 251 594 251 q 428 270 449 251 q 407 317 407 289 l 407 950 q 395 988 407 976 q 357 1000 383 1000 l 139 1000 q 101 988 113 1000 q 89 950 89 976 l 89 263 q 108 147 89 199 q 174 58 126 94 q 306 0 222 21 q 518 -21 389 -21 q 731 0 647 -21 q 862 58 814 21 q 928 147 910 94 q 947 263 947 199 m 242 875 l 256 875 l 256 296 q 310 170 256 218 q 519 122 365 122 q 729 170 674 122 q 785 296 785 218 l 785 875 l 799 875 l 799 296 q 740 160 799 213 q 519 108 682 108 q 299 160 357 108 q 242 296 242 213 l 242 875 m 518 1594 q 676 1578 614 1594 q 772 1535 738 1563 q 820 1467 807 1507 q 833 1382 833 1428 l 833 1246 q 820 1160 833 1200 q 772 1093 807 1121 q 676 1049 738 1065 q 518 1033 614 1033 q 360 1049 422 1033 q 264 1093 299 1065 q 216 1160 229 1121 q 203 1246 203 1200 l 203 1382 q 216 1467 203 1428 q 264 1535 229 1507 q 360 1578 299 1563 q 518 1594 422 1594 m 819 1382 q 806 1463 819 1426 q 759 1526 793 1500 q 667 1566 725 1551 q 518 1581 608 1581 q 369 1566 428 1581 q 277 1526 311 1551 q 230 1463 243 1500 q 217 1382 217 1426 l 217 1246 q 230 1165 217 1201 q 277 1102 243 1128 q 369 1062 311 1076 q 518 1047 428 1047 q 667 1062 608 1047 q 759 1102 725 1076 q 806 1165 793 1128 q 819 1246 819 1201 l 819 1382 m 322 1278 l 322 1354 q 330 1411 322 1385 q 358 1456 338 1438 q 418 1484 379 1474 q 518 1494 457 1494 q 679 1455 642 1494 q 717 1354 717 1415 l 717 1278 q 679 1177 717 1215 q 518 1139 642 1139 q 418 1149 457 1139 q 358 1177 379 1158 q 330 1222 338 1196 q 322 1278 322 1247 m 518 1481 q 372 1447 407 1481 q 336 1354 336 1413 l 336 1278 q 372 1186 336 1219 q 518 1153 407 1153 q 666 1186 629 1153 q 703 1278 703 1219 l 703 1354 q 666 1446 703 1411 q 518 1481 629 1481 m 601 1292 q 586 1247 601 1261 q 519 1232 571 1232 q 454 1247 468 1232 q 440 1292 440 1261 l 440 1340 q 454 1381 440 1367 q 519 1396 468 1396 q 586 1381 571 1396 q 601 1340 601 1367 l 601 1292 m 519 1246 q 573 1256 558 1246 q 588 1292 588 1267 l 588 1340 q 573 1372 588 1363 q 519 1382 558 1382 q 467 1372 481 1382 q 454 1340 454 1363 l 454 1292 q 467 1256 454 1267 q 519 1246 481 1246 z "},"Ű":{"ha":1036,"x_min":75,"x_max":961,"o":"m 961 950 l 961 263 q 942 142 961 197 q 875 49 924 88 q 740 -12 826 10 q 518 -35 653 -35 q 297 -12 383 -35 q 161 49 210 10 q 94 142 113 88 q 75 263 75 197 l 75 950 q 90 999 75 983 q 139 1014 106 1014 l 357 1014 q 406 999 390 1014 q 421 950 421 983 l 421 317 q 442 278 421 292 q 521 265 464 265 q 601 278 579 265 q 622 317 622 292 l 622 950 q 637 999 622 983 q 686 1014 651 1014 l 897 1014 q 946 999 931 1014 q 961 950 961 983 m 947 263 l 947 950 q 935 988 947 976 q 897 1000 924 1000 l 686 1000 q 648 988 660 1000 q 636 950 636 976 l 636 317 q 615 270 636 289 q 521 251 594 251 q 428 270 449 251 q 407 317 407 289 l 407 950 q 395 988 407 976 q 357 1000 383 1000 l 139 1000 q 101 988 113 1000 q 89 950 89 976 l 89 263 q 108 147 89 199 q 174 58 126 94 q 306 0 222 21 q 518 -21 389 -21 q 731 0 647 -21 q 862 58 814 21 q 928 147 910 94 q 947 263 947 199 m 242 875 l 256 875 l 256 296 q 310 170 256 218 q 519 122 365 122 q 729 170 674 122 q 785 296 785 218 l 785 875 l 799 875 l 799 296 q 740 160 799 213 q 519 108 682 108 q 299 160 357 108 q 242 296 242 213 l 242 875 m 218 1103 q 226 1068 213 1081 q 264 1056 240 1056 l 411 1056 q 447 1068 438 1056 q 461 1106 456 1081 l 535 1393 q 526 1428 540 1415 q 489 1440 513 1440 l 342 1440 q 306 1428 315 1440 q 292 1390 297 1415 l 218 1103 m 579 1103 q 588 1068 574 1081 q 625 1056 601 1056 l 772 1056 q 808 1068 799 1056 q 822 1106 817 1081 l 896 1393 q 888 1428 901 1415 q 850 1440 874 1440 l 703 1440 q 667 1428 676 1440 q 653 1390 658 1415 l 579 1103 m 728 1181 l 713 1181 l 747 1315 l 763 1315 l 728 1181 m 367 1181 l 351 1181 l 386 1315 l 401 1315 l 367 1181 m 264 1042 q 214 1059 231 1042 q 204 1107 197 1076 l 204 1106 l 278 1393 q 298 1440 286 1425 q 342 1454 310 1454 l 489 1454 q 539 1437 522 1454 q 549 1390 556 1419 l 475 1103 q 455 1056 467 1071 q 411 1042 443 1042 l 264 1042 m 625 1042 q 575 1059 592 1042 q 565 1107 558 1076 l 565 1106 l 639 1393 q 659 1440 647 1425 q 703 1454 671 1454 l 850 1454 q 900 1437 883 1454 q 910 1390 917 1419 l 836 1103 q 816 1056 828 1071 q 772 1042 804 1042 l 625 1042 z "},"Ų":{"ha":1036,"x_min":75,"x_max":961,"o":"m 678 -286 l 524 -286 q 391 -237 428 -286 q 369 -82 354 -189 l 379 -28 q 228 9 288 -17 q 135 72 169 35 q 88 158 101 110 q 75 263 75 207 l 75 950 q 90 999 75 983 q 139 1014 106 1014 l 357 1014 q 406 999 390 1014 q 421 950 421 983 l 421 317 q 442 278 421 292 q 521 265 464 265 q 601 278 579 265 q 622 317 622 292 l 622 950 q 637 999 622 983 q 686 1014 651 1014 l 897 1014 q 946 999 931 1014 q 961 950 961 983 l 961 263 q 947 156 961 206 q 897 68 933 106 q 799 6 861 31 q 639 -29 736 -19 l 633 -64 l 674 -64 q 724 -77 711 -64 q 738 -125 738 -90 l 738 -225 q 725 -273 738 -260 q 678 -286 713 -286 m 625 -17 q 783 15 721 -8 q 882 75 846 39 q 933 159 918 111 q 947 263 947 207 l 947 950 q 935 988 947 976 q 897 1000 924 1000 l 686 1000 q 648 988 660 1000 q 636 950 636 976 l 636 317 q 615 270 636 289 q 521 251 594 251 q 428 270 449 251 q 407 317 407 289 l 407 950 q 395 988 407 976 q 357 1000 383 1000 l 139 1000 q 101 988 113 1000 q 89 950 89 976 l 89 263 q 103 160 89 207 q 151 78 117 114 q 244 18 185 42 q 394 -15 304 -6 l 383 -85 q 401 -226 368 -181 q 524 -272 435 -272 l 678 -272 q 714 -262 704 -272 q 724 -225 724 -251 l 724 -125 q 713 -88 724 -99 q 674 -78 703 -78 l 617 -78 l 625 -17 m 599 -175 l 565 -175 q 500 -149 514 -175 q 494 -71 486 -122 l 511 44 q 521 84 515 71 q 542 108 526 97 l 519 108 q 299 160 357 108 q 242 296 242 213 l 242 875 l 256 875 l 256 296 q 310 170 256 218 q 519 122 365 122 q 729 170 674 122 q 785 296 785 218 l 785 875 l 799 875 l 799 296 q 750 168 799 218 q 568 110 701 118 q 537 85 544 96 q 525 44 529 74 l 508 -74 q 513 -138 503 -115 q 565 -161 522 -161 l 599 -161 l 599 -175 z "},"V":{"ha":1014,"x_min":61,"x_max":953,"o":"m 771 40 q 739 -2 758 10 q 688 -14 719 -14 l 326 -14 q 275 -2 294 -14 q 243 40 256 10 l 107 381 q 85 435 94 413 q 71 480 76 458 q 63 526 65 501 q 61 583 61 550 l 61 950 q 76 999 61 983 q 125 1014 92 1014 l 346 1014 q 397 998 379 1014 q 414 950 414 982 l 414 567 q 417 540 414 553 q 424 514 419 528 l 490 319 q 494 309 492 313 q 503 306 497 306 l 518 306 q 526 309 524 306 q 532 319 529 313 l 597 515 q 604 542 601 529 q 607 568 607 554 l 607 950 q 622 999 607 983 q 671 1014 638 1014 l 889 1014 q 938 999 924 1014 q 953 950 953 983 l 953 583 q 951 526 953 550 q 943 480 949 501 q 928 435 938 458 q 907 381 919 413 l 771 40 m 688 0 q 731 10 714 0 q 758 46 749 19 l 894 386 q 915 440 907 417 q 929 483 924 463 q 937 527 935 504 q 939 583 939 550 l 939 950 q 927 988 939 976 q 889 1000 915 1000 l 671 1000 q 633 988 644 1000 q 621 950 621 976 l 621 568 q 618 540 621 554 q 610 511 615 526 l 544 315 q 535 297 540 301 q 518 292 529 292 l 503 292 q 486 297 492 292 q 476 315 481 301 l 411 510 q 403 539 406 525 q 400 567 400 553 l 400 950 q 386 988 400 976 q 346 1000 372 1000 l 125 1000 q 87 988 99 1000 q 75 950 75 976 l 75 583 q 77 527 75 550 q 85 483 79 504 q 99 440 90 463 q 119 386 107 417 l 256 46 q 283 10 265 19 q 326 0 300 0 l 688 0 m 232 875 l 246 875 l 246 575 q 251 506 246 539 q 268 446 257 474 l 360 224 q 391 163 374 188 q 447 139 408 139 l 569 139 q 626 163 608 139 q 657 224 643 188 l 749 446 q 765 506 760 474 q 771 575 771 539 l 771 875 l 785 875 l 785 575 q 780 503 785 536 q 763 440 775 471 l 671 218 q 633 151 654 178 q 569 125 613 125 l 447 125 q 383 151 404 125 q 346 218 363 178 l 254 440 q 237 503 242 471 q 232 575 232 536 l 232 875 z "},"W":{"ha":1154,"x_min":69,"x_max":1085,"o":"m 610 479 q 646 466 632 479 q 678 414 660 453 l 792 158 q 808 142 797 144 q 829 139 819 139 l 836 139 q 857 148 847 139 q 868 168 867 157 l 903 326 q 909 394 908 353 q 910 467 910 436 l 910 875 l 924 875 l 924 465 q 923 393 924 435 q 917 325 922 351 l 882 168 q 865 135 876 146 q 836 125 853 125 l 826 125 q 800 130 814 125 q 781 149 786 135 l 667 407 q 638 455 650 444 q 610 465 626 465 l 547 465 q 519 455 531 465 q 490 407 507 444 l 376 149 q 357 130 371 135 q 331 125 343 125 l 321 125 q 292 135 304 125 q 275 168 281 146 l 240 325 q 234 393 235 351 q 233 465 233 435 l 233 875 l 247 875 l 247 467 q 248 394 247 436 q 254 326 249 353 l 289 168 q 300 148 290 157 q 321 139 310 139 l 328 139 q 349 142 338 139 q 365 158 360 144 l 479 414 q 511 466 497 453 q 547 479 525 479 l 610 479 m 814 1000 q 776 988 788 1000 q 764 950 764 976 l 764 439 l 683 614 q 654 647 672 638 q 610 657 636 657 l 551 657 q 507 647 525 657 q 478 614 489 638 l 397 439 l 397 950 q 385 988 397 976 q 347 1000 374 1000 l 133 1000 q 95 988 107 1000 q 83 950 83 976 l 83 414 q 87 331 83 369 q 108 242 90 293 l 178 50 q 201 14 185 28 q 239 0 217 0 l 422 0 q 460 10 444 0 q 481 42 475 21 l 546 268 q 556 287 550 282 q 571 292 563 292 l 583 292 q 598 287 592 292 q 608 268 604 282 l 672 42 q 696 10 678 19 q 736 0 714 0 l 921 0 q 956 15 943 0 q 976 50 969 29 l 1046 239 q 1067 328 1064 290 q 1071 411 1071 367 l 1071 950 q 1059 988 1071 976 q 1021 1000 1047 1000 l 814 1000 m 422 -14 l 239 -14 q 193 3 213 -14 q 165 46 174 19 l 96 238 q 73 328 76 289 q 69 414 69 368 l 69 950 q 85 999 69 983 q 133 1014 100 1014 l 347 1014 q 396 999 381 1014 q 411 950 411 983 l 411 501 l 465 619 q 499 659 479 647 q 551 671 519 671 l 610 671 q 662 659 642 671 q 696 619 682 647 l 750 501 l 750 950 q 765 999 750 983 q 814 1014 779 1014 l 1021 1014 q 1069 999 1054 1014 q 1085 950 1085 983 l 1085 411 q 1081 326 1085 365 q 1058 235 1078 286 l 989 46 q 964 3 981 19 q 921 -14 947 -14 l 736 -14 q 688 -1 708 -14 q 658 38 667 11 l 594 264 q 590 274 593 269 q 583 278 588 278 l 571 278 q 564 274 567 278 q 560 264 561 269 l 494 38 q 467 -1 486 13 q 422 -14 449 -14 z "},"Ŵ":{"ha":1154,"x_min":69,"x_max":1085,"o":"m 610 479 q 646 466 632 479 q 678 414 660 453 l 792 158 q 808 142 797 144 q 829 139 819 139 l 836 139 q 857 148 847 139 q 868 168 867 157 l 903 326 q 909 394 908 353 q 910 467 910 436 l 910 875 l 924 875 l 924 465 q 923 393 924 435 q 917 325 922 351 l 882 168 q 865 135 876 146 q 836 125 853 125 l 826 125 q 800 130 814 125 q 781 149 786 135 l 667 407 q 638 455 650 444 q 610 465 626 465 l 547 465 q 519 455 531 465 q 490 407 507 444 l 376 149 q 357 130 371 135 q 331 125 343 125 l 321 125 q 292 135 304 125 q 275 168 281 146 l 240 325 q 234 393 235 351 q 233 465 233 435 l 233 875 l 247 875 l 247 467 q 248 394 247 436 q 254 326 249 353 l 289 168 q 300 148 290 157 q 321 139 310 139 l 328 139 q 349 142 338 139 q 365 158 360 144 l 479 414 q 511 466 497 453 q 547 479 525 479 l 610 479 m 814 1000 q 776 988 788 1000 q 764 950 764 976 l 764 439 l 683 614 q 654 647 672 638 q 610 657 636 657 l 551 657 q 507 647 525 657 q 478 614 489 638 l 397 439 l 397 950 q 385 988 397 976 q 347 1000 374 1000 l 133 1000 q 95 988 107 1000 q 83 950 83 976 l 83 414 q 87 331 83 369 q 108 242 90 293 l 178 50 q 201 14 185 28 q 239 0 217 0 l 422 0 q 460 10 444 0 q 481 42 475 21 l 546 268 q 556 287 550 282 q 571 292 563 292 l 583 292 q 598 287 592 292 q 608 268 604 282 l 672 42 q 696 10 678 19 q 736 0 714 0 l 921 0 q 956 15 943 0 q 976 50 969 29 l 1046 239 q 1067 328 1064 290 q 1071 411 1071 367 l 1071 950 q 1059 988 1071 976 q 1021 1000 1047 1000 l 814 1000 m 422 -14 l 239 -14 q 193 3 213 -14 q 165 46 174 19 l 96 238 q 73 328 76 289 q 69 414 69 368 l 69 950 q 85 999 69 983 q 133 1014 100 1014 l 347 1014 q 396 999 381 1014 q 411 950 411 983 l 411 501 l 465 619 q 499 659 479 647 q 551 671 519 671 l 610 671 q 662 659 642 671 q 696 619 682 647 l 750 501 l 750 950 q 765 999 750 983 q 814 1014 779 1014 l 1021 1014 q 1069 999 1054 1014 q 1085 950 1085 983 l 1085 411 q 1081 326 1085 365 q 1058 235 1078 286 l 989 46 q 964 3 981 19 q 921 -14 947 -14 l 736 -14 q 688 -1 708 -14 q 658 38 667 11 l 594 264 q 590 274 593 269 q 583 278 588 278 l 571 278 q 564 274 567 278 q 560 264 561 269 l 494 38 q 467 -1 486 13 q 422 -14 449 -14 m 740 1181 l 619 1219 q 599 1225 610 1222 q 575 1228 589 1228 q 551 1225 561 1228 q 531 1219 540 1222 l 410 1181 l 410 1196 l 525 1233 q 549 1239 538 1236 q 575 1242 560 1242 q 601 1239 590 1242 q 625 1233 613 1236 l 740 1196 l 740 1181 m 532 1107 q 575 1113 556 1113 q 618 1107 594 1113 l 808 1051 q 856 1049 844 1040 q 867 1094 867 1057 l 867 1207 q 855 1256 867 1244 q 808 1281 843 1267 l 618 1350 q 597 1356 608 1354 q 574 1357 586 1357 q 547 1353 561 1356 q 519 1344 532 1350 l 342 1281 q 297 1256 308 1267 q 285 1207 285 1244 l 285 1094 q 296 1049 285 1057 q 342 1051 307 1040 l 532 1107 m 346 1038 q 285 1034 300 1024 q 271 1094 271 1044 l 271 1207 q 285 1264 271 1250 q 338 1293 299 1278 l 514 1357 q 544 1366 528 1363 q 574 1371 560 1369 q 600 1369 588 1371 q 622 1363 613 1368 l 814 1293 q 868 1264 856 1278 q 881 1207 881 1250 l 881 1094 q 866 1035 881 1046 q 804 1038 851 1024 l 614 1093 q 575 1099 592 1099 q 536 1093 558 1099 l 346 1038 z "},"Ẁ":{"ha":1154,"x_min":69,"x_max":1085,"o":"m 610 479 q 646 466 632 479 q 678 414 660 453 l 792 158 q 808 142 797 144 q 829 139 819 139 l 836 139 q 857 148 847 139 q 868 168 867 157 l 903 326 q 909 394 908 353 q 910 467 910 436 l 910 875 l 924 875 l 924 465 q 923 393 924 435 q 917 325 922 351 l 882 168 q 865 135 876 146 q 836 125 853 125 l 826 125 q 800 130 814 125 q 781 149 786 135 l 667 407 q 638 455 650 444 q 610 465 626 465 l 547 465 q 519 455 531 465 q 490 407 507 444 l 376 149 q 357 130 371 135 q 331 125 343 125 l 321 125 q 292 135 304 125 q 275 168 281 146 l 240 325 q 234 393 235 351 q 233 465 233 435 l 233 875 l 247 875 l 247 467 q 248 394 247 436 q 254 326 249 353 l 289 168 q 300 148 290 157 q 321 139 310 139 l 328 139 q 349 142 338 139 q 365 158 360 144 l 479 414 q 511 466 497 453 q 547 479 525 479 l 610 479 m 814 1000 q 776 988 788 1000 q 764 950 764 976 l 764 439 l 683 614 q 654 647 672 638 q 610 657 636 657 l 551 657 q 507 647 525 657 q 478 614 489 638 l 397 439 l 397 950 q 385 988 397 976 q 347 1000 374 1000 l 133 1000 q 95 988 107 1000 q 83 950 83 976 l 83 414 q 87 331 83 369 q 108 242 90 293 l 178 50 q 201 14 185 28 q 239 0 217 0 l 422 0 q 460 10 444 0 q 481 42 475 21 l 546 268 q 556 287 550 282 q 571 292 563 292 l 583 292 q 598 287 592 292 q 608 268 604 282 l 672 42 q 696 10 678 19 q 736 0 714 0 l 921 0 q 956 15 943 0 q 976 50 969 29 l 1046 239 q 1067 328 1064 290 q 1071 411 1071 367 l 1071 950 q 1059 988 1071 976 q 1021 1000 1047 1000 l 814 1000 m 422 -14 l 239 -14 q 193 3 213 -14 q 165 46 174 19 l 96 238 q 73 328 76 289 q 69 414 69 368 l 69 950 q 85 999 69 983 q 133 1014 100 1014 l 347 1014 q 396 999 381 1014 q 411 950 411 983 l 411 501 l 465 619 q 499 659 479 647 q 551 671 519 671 l 610 671 q 662 659 642 671 q 696 619 682 647 l 750 501 l 750 950 q 765 999 750 983 q 814 1014 779 1014 l 1021 1014 q 1069 999 1054 1014 q 1085 950 1085 983 l 1085 411 q 1081 326 1085 365 q 1058 235 1078 286 l 989 46 q 964 3 981 19 q 921 -14 947 -14 l 736 -14 q 688 -1 708 -14 q 658 38 667 11 l 594 264 q 590 274 593 269 q 583 278 588 278 l 571 278 q 564 274 567 278 q 560 264 561 269 l 494 38 q 467 -1 486 13 q 422 -14 449 -14 m 867 1092 q 851 1044 867 1060 q 804 1032 835 1028 l 319 1092 q 272 1110 286 1096 q 257 1156 257 1124 l 257 1289 q 273 1337 257 1321 q 319 1349 289 1353 l 804 1289 q 852 1271 838 1285 q 867 1225 867 1257 l 867 1092 m 806 1046 q 841 1056 829 1043 q 853 1092 853 1068 l 853 1225 q 841 1262 853 1251 q 803 1275 829 1272 l 318 1335 q 283 1325 294 1338 q 271 1289 271 1313 l 271 1156 q 283 1119 271 1129 q 321 1106 294 1108 l 806 1046 m 396 1204 l 396 1218 l 728 1176 l 728 1163 l 396 1204 z "}}}
